<svg xmlns="http://www.w3.org/2000/svg" viewBox="0 0 1817 370">
	<path fill="#141414" fill-rule="evenodd" d="M126 3C72 10 26 43 8 88c-4 9-8 26-8 30 0 6 3 13 7 17 7 7 9 7 54 7h40l4-3c2-2 6-5 7-8 6-8 13-15 18-16 9-2 19 1 24 8l3 4 9-9a642 642 0 0 1 33-37l29-34c11-11 10-10 8-12-5-6-30-20-45-25-19-6-46-9-65-7M60 177c-26 5-47 23-56 48a74 74 0 0 0 51 95l89 2c82 0 84 0 92-2a74 74 0 0 0-2-144c-9-2-164-2-174 1"/>
	<path fill="#eb6535" fill-rule="evenodd" d="m286 3-3 1-6 2-6 2-1 1-2 1c-3 0-14 8-22 17-7 8-8 8-10 7v1c2 2 3 1-8 12a48451 48451 0 0 0-90 101l-8 9-13 13-1 1-1 2c0 2 5 2 56 2 46 0 58 0 64 2a74 74 0 0 1 2 143l-6 2c1 0 4 6 3 7l1 1 4 5c6 11 19 22 33 28a81 81 0 0 0 54 2l3-2 5-2 12-7 2-2a67 67 0 0 0 16-18l4-8 5-7 8-4c7-3 10-6 18-13l5-4 1-2 2-3 8-12 1-4c5-5 7-30 5-42-2-11-8-24-14-31l-4-6-2-2-4-2-7-6-1-1-5-3-7-4-1-59c-1-54-1-58-3-64-5-19-15-33-31-44l-6-3-2-1-1-1-5-2-7-2-3-1-16-1-16 1m236 3-13 5-4 1-3 1-5 2a70 70 0 0 0-13 4l-5 2-5 1-3 1-2 1c-2 1-2 2-2 4l1 4h7l8 1 3 1c1 0 3 1 6 6l3 4v116a883 883 0 0 1-4 140c-2 4-11 9-20 11-3 0-5 3-4 6l53 1h53v-3c0-3-3-5-7-5l-6-2-5-2c-2 0-8-7-9-10-2-3-3-137-2-142a72 72 0 0 1 34-26c9-3 35-3 35 1l2 1 1 1 1 1c3 0 13 11 13 14l1 2 2 6c1 4 2 20 2 67 0 59 0 74-3 77l-3 4c-3 3-7 5-15 8-7 1-8 2-8 5v3h53c47 0 53 0 53-2 2-3-2-6-7-6-3 0-8-2-8-3l-2-1c-3 0-9-7-10-12l-1-70c0-64-1-81-3-87a137 137 0 0 0-8-19c-3-5-15-18-18-18l-1-1c-1-1-9-5-12-5-9-2-24-4-29-3l-17 4-3 1-3 1-5 3-6 4-3 2-2 1a89 89 0 0 1-16 16l-5 6-6 7-2 2-1-65V5c0-3 0-3-5-3l-17 4m297 85-9 1-6 1a79 79 0 0 1-15 4l-12 5c-1 0-2 0-1 1 0 1-1 2-3 2l-3 2-1 1-2 1-3 2-7 6-6 5-1 1-3 5-7 9-5 8-1 3-2 4c-2 4-8 20-10 29-2 8-3 50-1 55l4 13a125 125 0 0 0 18 38l5 6 2 3v1c1 0 6 3 8 6l5 3 4 3 8 4 7 4 2 1 9 2 12 3a198 198 0 0 0 44-1l7-2 5-2 7-3 7-4c4-2 13-11 19-17 6-8 12-19 15-31 4-11 4-13 0-13-3-1-4-1-5 5l-6 10-4 6a71 71 0 0 1-19 14l-3 2-5 2-18 3-3-1-7-1c-7 0-13-2-20-5l-3-1-2-1-1-1-2-1-3-2-5-5-4-2-1-1-2-3-6-8a379 379 0 0 0-8-13l-2-6-2-5-1-2-1-3a2317 2317 0 0 0-6-38v-7h142v-10c0-10-2-24-5-32a65 65 0 0 0-9-19c0-3-15-18-18-20l-2-2-1-1-7-3-8-3v-1l-1-1h-5a293 293 0 0 0-37-3m153 7a946 946 0 0 0-37 13c-8 2-9 2-9 6v3h7c7 0 13 2 15 4l3 6c2 3 3 4 3 71l1 68 2 9c3 10 6 16 11 23a49 49 0 0 0 15 15l14 6c6 2 8 2 21 2l18-1c11-4 19-9 29-17l19-19 5-6 3-3 1 4c0 10 3 20 6 23l1 2c0 2 10 11 14 12a50 50 0 0 0 26 6l6-2a51 51 0 0 0 18-11c5-2 16-21 14-24-1-3-5-2-8 1-7 10-13 13-20 10-3-1-6-6-5-8l-1-1c-1-1-2-19-2-100V90h-4l-4 1-3 1-10 3a508 508 0 0 1-52 17c-2 0-4 2-4 5s0 3 7 3c8 0 13 2 16 6 5 7 5 6 5 74v64l-4 4-5 4-2 2-2 2-4 3-5 3-1 1c0 1-7 4-15 6h-21l-4-1-2-1-3-1c-2 0-3-1-3-2l-3-2h-2l-4-4c-4-6-7-12-8-17l-1-86-1-84c-1-2-7-1-31 7m290-7-4 1-3 1-6 2-18 6-6 1c-2 0-3 0-2 1l-1 1-4 1-17 5h-3l-3 3c-2 1-3 2-3 4v3h7l9 1 2 1c2 0 4 1 6 5l4 5v165l-3 3-3 3-4 2-5 2-7 3c-6 1-7 2-7 3-1 5-3 5 60 5h59v-3c0-4 0-4-5-4l-20-5c-8-3-12-7-14-13l-1-62c1-62 1-61 6-74 6-13 19-27 26-27l1-1 8-1c5 0 7 0 10 2l3 2 3 2 8 5c4 2 6 3 11 3l7-1 2-1c2 0 8-7 10-12 2-6 1-19-2-24s-10-9-16-11l-5-2-10-1-16 2c-11 4-11 5-14 7l-4 3a76 76 0 0 0-24 36l-3 7-1-27V91l-4-1-4 1m204 0-12 2-3 1-5 1-5 2a91 91 0 0 0-22 11l-1 1-3 2c-8 5-24 25-30 37a147 147 0 0 0-12 88l1 10 1 4 2 5c3 9 11 26 17 33l11 10 1 2 2 2 3 2 2 2 4 2 11 6 4 2 8 3 7 2 4 1 3 1h41l8-2 9-3 5-2 1-1 2-1 8-5 5-4a56 56 0 0 0 11-11l6-8 3-4 1-1 1-5c3-5 7-16 8-22 0-3 0-4-2-4-3-1-6 0-6 2l-7 14-4 5a44 44 0 0 1-9 9l-17 9-8 1-7 1c-3 2-27-2-27-4l-3-1c-7 0-23-13-32-25-12-16-21-49-19-70v-5h141v-16l-2-16-1-3-1-5-3-6c-1-6-7-16-10-20a115 115 0 0 0-16-15 79 79 0 0 0-36-13 886 886 0 0 1-28-1m182 1-12 3a94 94 0 0 0-21 11l-7 7c-7 7-10 12-14 22-2 6-3 32-1 36l6 15 4 5a49 49 0 0 0 13 14l6 4 3 2 1 1 10 5 3 1 5 2 5 2 2 1 2 1 4 1 2 1 4 1 10 4 5 2 2 1c2 0 7 2 13 6l4 2 2 1 2 1 1 1 4 3 4 4 2 4c7 7 8 24 3 35l-4 7a53 53 0 0 1-18 11l-5 1-7 1c-6 2-27-2-27-4l-2-1-5-2-5-3-3-2-1-1a99 99 0 0 1-30-32c-2-1-10-16-10-18l-1-2h-6c-1 1-1 1 4 35a3288 3288 0 0 1 8 44l3 1c3 0 3-1 5-7l1-5 2-2c0-2 2-3 4-3l12 4 2 1 6 3 4 1 10 3a120 120 0 0 0 58 0l3-2 7-3 4-2 2-1 7-5 7-6c4-5 7-9 9-14l4-6 3-14c1-8 0-22-1-28l-6-16-4-5c-3-6-13-15-17-17l-3-3-1-1-7-3-6-3-1-1-2-1-3-1-2-1-2-1-4-1-3-1-2-1-3-1-4-2-4-1-3-1-2-1-3-1-2-1-16-7c-5-2-15-10-18-13-2-2-5-9-4-9l-1-1-1-9c0-6 0-8 3-13 1-4 4-8 6-10l14-8 3-1h26a72 72 0 0 1 19 9l3 2 3 2a101 101 0 0 1 19 20c1 0 6 7 11 17 4 8 5 8 7 8 5 0 5 1-1-33l-3-18c-4-24-3-21-7-22-3 0-3 0-3 4l-3 8c-1 4-2 4-5 4l-8-2-5-2-3-1-9-4a1312 1312 0 0 1-20-6c-2-2-20-1-30 1m-841 14-10 5c-5 4-15 16-15 19l-1 2c-2 0-8 22-9 36l-1 6h93v-6a89 89 0 0 0-15-47c0-4-12-13-19-16-5-1-17-1-23 1m656-1-4 1-5 1-3 3c-2 0-4 2-9 6a80 80 0 0 0-15 29l-5 25v4h89c3 1 4-2 3-13-1-13-3-21-9-32-4-8-13-19-16-19l-3-2c-1-2-5-3-15-4l-8 1m325 177c-6 1-14 13-14 20 0 5 5 15 9 18 4 2 15 4 17 3l4-1 2-1 1-1c2 0 7-6 9-10 4-11-3-26-13-28h-15"/>
</svg>