<svg class="desktop" viewBox="0 0 427 86" fill="none" xmlns="http://www.w3.org/2000/svg">
        <title>Logo du site 24 heures Mtl</title>
        <!-- 24 -->
        <path class="logo24deuxtop" d="M33.7404 0C17.2508 0 3.29797 10.6549 0.253719 25.3687C0.253719 25.3687 -1.77578 32.9793 6.84959 32.9793H21.0561C24.8614 32.9793 25.8761 31.2035 27.3983 28.9203C28.9204 26.6372 30.9499 26.3835 31.9646 26.3835C34.2478 26.3835 36.0236 27.6519 36.7847 29.6814L56.0649 8.11799C49.9764 3.04425 42.1121 0 33.7404 0Z" fill="#121212"></path>
        <path class="logo24quatre" d="M88.0298 41.8584V17.2507C88.0298 7.61062 80.1654 0 70.779 0C65.7053 0 61.1389 2.28319 57.841 5.83481L26.8911 40.59H51.4988C61.1389 40.59 68.7495 48.4543 68.7495 57.8407C68.7495 67.2271 60.8852 75.0914 51.4988 75.0914H54.543C57.0799 81.4336 63.4221 86 70.5253 86C78.1359 86 84.4781 81.1799 87.015 74.3304C93.8646 72.0472 98.9383 65.4513 98.9383 57.8407C98.9383 50.4838 94.3719 44.3953 88.0298 41.8584Z" fill="#ED6331"></path>
        <path class="logo24deuxbottom" d="M51.7522 40.59H17.2507C7.86431 40.59 0 48.2006 0 57.8407C0 67.4808 7.86431 75.0914 17.2507 75.0914H51.4985C61.1386 75.0914 68.7493 67.2271 68.7493 57.8407C68.7493 48.4543 61.1386 40.59 51.7522 40.59Z" fill="#121212"></path>
        <!-- heures. -->
        <g class="logoheures">
            <path d="M421.344 75.3132C424.061 75.3132 426.264 73.1108 426.264 70.394C426.264 67.6772 424.061 65.4748 421.344 65.4748C418.628 65.4748 416.425 67.6772 416.425 70.394C416.425 73.1108 418.628 75.3132 421.344 75.3132Z" fill="#ED6331"></path>
            <path d="M161.776 70.6597C162.701 71.6195 164.424 72.2966 166.952 72.7079V74.1477H142.442V72.7079C144.902 72.2966 146.607 71.6195 147.567 70.6597C148.527 69.6999 149.007 68.2001 149.007 66.1433V39.1735C149.007 35.8226 148.167 33.2602 146.496 31.4776C144.816 29.7036 142.545 28.8124 139.674 28.8124C137.351 28.8124 135.277 29.3266 133.469 30.355C131.661 31.3834 129.69 33.0545 127.573 35.377V66.1433C127.573 68.1915 128.053 69.6999 129.013 70.6597C129.973 71.6195 131.678 72.2966 134.138 72.7079V74.1477H109.627V72.7079C112.156 72.2966 113.887 71.6195 114.804 70.6597C115.729 69.6999 116.192 68.2001 116.192 66.1433V12.7093C116.192 10.524 115.832 8.98137 115.112 8.09865C114.392 7.20737 113.218 6.76173 111.573 6.76173C110.75 6.76173 110.099 6.79601 109.627 6.86457V5.42481L126.142 0H127.573V32.7117C130.513 28.8809 133.401 25.9585 136.237 23.9446C139.074 21.9306 142.099 20.9194 145.313 20.9194C150.164 20.9194 153.892 22.462 156.488 25.5386C159.085 28.6152 160.388 32.8231 160.388 38.1537V66.1519C160.388 68.2001 160.85 69.7084 161.776 70.6683V70.6597Z" fill="#ED6331"></path>
            <path d="M213.959 58.2503C213.136 63.3752 210.882 67.5488 207.189 70.7625C203.495 73.9763 199.09 75.5789 193.956 75.5789C188.823 75.5789 184.161 74.3962 180.364 72.0395C176.568 69.6827 173.714 66.5204 171.803 62.5525C169.892 58.5846 168.932 54.2139 168.932 49.4232C168.932 43.887 170.012 38.9421 172.163 34.6057C174.314 30.2607 177.305 26.9012 181.136 24.5016C184.967 22.1106 189.337 20.9108 194.265 20.9108C200.967 20.9108 206.006 22.9762 209.391 27.1155C212.776 31.2548 214.259 36.5682 213.856 43.0643H180.63V43.5785C180.63 50.7601 182.267 56.622 185.549 61.1641C188.832 65.7148 193.477 67.9859 199.493 67.9859C202.501 67.9859 205.2 67.0603 207.591 65.2177C209.982 63.3752 211.654 60.9499 212.613 57.9332L213.95 58.2418H213.959V58.2503ZM184.221 28.3667C182.233 31.4091 181.076 35.497 180.733 40.6218H202.681C202.886 37.888 202.578 35.2227 201.755 32.626C200.932 30.0293 199.724 27.9039 198.113 26.2671C196.502 24.6216 194.642 23.8075 192.525 23.8075C188.969 23.8075 186.201 25.3329 184.221 28.3667Z" fill="#ED6331"></path>
            <path d="M276.571 67.0689C275.2 70.3512 273.58 72.6051 271.695 73.8392C269.81 75.0732 267.95 75.6817 266.107 75.6817C263.716 75.6817 261.522 74.7904 259.543 73.0164C257.555 71.2425 256.569 68.7486 256.569 65.5263V63.9922C253.561 67.823 250.673 70.7282 247.905 72.7079C245.137 74.6876 242.18 75.6817 239.035 75.6817C234.176 75.6817 230.456 74.1305 227.859 71.0111C225.263 67.9002 223.96 63.6751 223.96 58.3446V33.5259C223.96 31.3405 223.583 29.7979 222.829 28.9066C222.075 28.0153 220.841 27.5697 219.135 27.5697C218.381 27.5697 217.798 27.604 217.387 27.6725V26.2414L233.901 20.808H235.341V57.3162C235.341 60.6671 236.181 63.2295 237.852 65.0035C239.523 66.786 241.803 67.6688 244.674 67.6688C246.928 67.6688 248.967 67.1717 250.776 66.1776C252.584 65.1835 254.521 63.598 256.569 61.4041V33.5344C256.569 31.3491 256.192 29.8065 255.438 28.9152C254.684 28.0239 253.458 27.5783 251.744 27.5783C250.99 27.5783 250.416 27.6126 250.004 27.6811V26.2499L266.519 20.8165H267.958V65.6377C267.958 67.0089 268.233 68.0801 268.781 68.8686C269.33 69.657 270.075 70.0512 271.035 70.0512C272.535 70.0512 273.975 68.8943 275.346 66.5632L276.58 67.0774L276.571 67.0689Z" fill="#ED6331"></path>
            <path d="M318.178 22.4534C319.721 23.5504 320.484 25.0844 320.484 27.0726C320.484 28.7095 320.038 30.0636 319.155 31.1263C318.264 32.1889 317.142 32.7117 315.77 32.7117C314.879 32.7117 314.125 32.5574 313.516 32.2489C312.908 31.9404 312.248 31.5119 311.571 30.9634C310.885 30.4149 310.268 30.0036 309.728 29.7293C309.18 29.4551 308.494 29.318 307.68 29.318C305.966 29.318 304.364 29.9693 302.864 31.2634C301.356 32.566 300.147 34.3229 299.222 36.5425C298.296 38.7621 297.833 41.2731 297.833 44.0755V66.3318C297.833 68.4486 298.502 69.9227 299.83 70.7454C301.167 71.5681 303.678 72.2194 307.372 72.6908V74.1305H279.476V72.6908C282.004 72.1423 283.796 71.4567 284.858 70.6426C285.921 69.8198 286.444 68.3886 286.444 66.3318V33.5344C286.444 31.3491 286.067 29.8065 285.313 28.9152C284.558 28.0239 283.324 27.5783 281.619 27.5783C280.865 27.5783 280.282 27.6126 279.871 27.6811V26.2499L296.385 20.8165H297.816V35.6855C298.776 30.972 300.584 27.3126 303.25 24.7159C305.915 22.1192 308.82 20.8165 311.965 20.8165C314.562 20.8165 316.627 21.365 318.17 22.462H318.178V22.4534Z" fill="#ED6331"></path>
            <path d="M366.651 58.2503C365.828 63.3752 363.574 67.5488 359.88 70.7625C356.187 73.9763 351.782 75.5789 346.648 75.5789C341.515 75.5789 336.853 74.3962 333.056 72.0395C329.26 69.6827 326.406 66.5204 324.495 62.5525C322.584 58.5846 321.624 54.2139 321.624 49.4232C321.624 43.887 322.704 38.9421 324.855 34.6057C327.006 30.2607 329.997 26.9012 333.827 24.5016C337.658 22.1106 342.029 20.9108 346.957 20.9108C353.658 20.9108 358.698 22.9762 362.083 27.1155C365.468 31.2548 366.951 36.5682 366.548 43.0643H333.322V43.5785C333.322 50.7601 334.959 56.622 338.241 61.1641C341.523 65.7148 346.168 67.9859 352.184 67.9859C355.192 67.9859 357.892 67.0603 360.283 65.2177C362.674 63.3752 364.345 60.9499 365.305 57.9332L366.642 58.2418H366.651V58.2503ZM336.913 28.3667C334.924 31.4091 333.767 35.497 333.425 40.6218H355.372C355.578 37.888 355.27 35.2227 354.447 32.626C353.624 30.0293 352.416 27.9039 350.805 26.2671C349.193 24.6216 347.334 23.8075 345.217 23.8075C341.66 23.8075 338.892 25.3329 336.913 28.3667Z" fill="#ED6331"></path>
            <path d="M387.904 74.9618C386.327 74.4819 384.587 73.7963 382.676 72.9136C381.177 72.1594 380.148 71.7824 379.6 71.7824C379.051 71.7824 378.606 72.0737 378.271 72.6565C377.929 73.2393 377.654 74.242 377.449 75.6817H376.009L373.138 57.2219H374.578C376.557 62.0725 379.24 65.8691 382.625 68.6029C386.01 71.3367 389.584 72.7079 393.346 72.7079C396.217 72.7079 398.591 71.9366 400.476 70.4026C402.353 68.86 403.296 66.8289 403.296 64.3008C403.296 62.184 402.713 60.4014 401.548 58.9702C400.382 57.5304 398.951 56.4078 397.237 55.5851C395.523 54.7623 393.166 53.8111 390.158 52.7141C386.464 51.3429 383.542 50.1003 381.391 48.969C379.24 47.8378 377.389 46.2009 375.855 44.0498C374.312 41.8988 373.549 39.1478 373.549 35.7969C373.549 31.3577 375.186 27.7497 378.469 24.9816C381.751 22.2135 385.856 20.8251 390.775 20.8251C392.686 20.8251 394.4 21.0651 395.9 21.545C397.4 22.0249 399.079 22.6762 400.922 23.4904C402.696 24.2445 403.827 24.6216 404.307 24.6216C404.924 24.6216 405.37 24.3474 405.635 23.7989C405.91 23.2504 406.081 22.2563 406.15 20.8251H407.589L410.255 37.648H408.815C406.767 33.2688 404.23 29.8579 401.222 27.3897C398.214 24.9301 394.966 23.6961 391.478 23.6961C388.881 23.6961 386.721 24.4331 385.016 25.8986C383.302 27.3726 382.454 29.3008 382.454 31.6919C382.454 33.5344 382.985 35.0599 384.048 36.2597C385.11 37.4595 386.421 38.445 387.998 39.2335C389.567 40.0219 391.761 40.9218 394.563 41.9502C398.325 43.3214 401.368 44.6154 403.69 45.8495C406.012 47.0836 408.001 48.8747 409.638 51.2315C411.283 53.5882 412.097 56.6477 412.097 60.41C412.097 63.1438 411.36 65.672 409.895 68.003C408.421 70.3255 406.287 72.1937 403.484 73.5906C400.682 74.9875 397.365 75.6903 393.535 75.6903C391.349 75.6903 389.464 75.4503 387.896 74.9704H387.904V74.9618Z" fill="#ED6331"></path>
        </g>
    </svg>
