<svg xmlns="http://www.w3.org/2000/svg" width="200" height="92" fill="none" viewBox="0 0 200 92">
  <path fill="#21409A" d="M19.57 26.542c0 7.715 0 21.508 11.572 21.508 5.198 0 12.308-4.009 13.8-9.338 0 0 .44-1.314.44-5.632 0-17.217-4.902-25.95-14.385-25.95-7.419 0-11.427 9.2-11.427 19.412zm8.312 30.11C14.68 56.652 0 46.124 0 28.48 0 11.421 17.802 0 30.997 0 51.31 0 63.624 14.68 63.624 35c0 26.396-17.204 56.513-44.192 56.513a63.89 63.89 0 01-3.713-.131l-1.479-4.6c4.16-1.354 23.73-1.078 29.644-39.028-3.286 4.738-8.136 8.898-16.002 8.898zM107.114 25.247c0-8.378-2.314-16.882-9.818-16.882-7.367 0-9.68 8.504-9.68 16.882 0 6.493 3.18 14.582 9.68 14.582 6.637 0 9.818-8.09 9.818-14.582zM84.58 65.51c0 8.668 4.475 17.618 12.703 17.618 8.372 0 12.847-8.95 12.847-17.618 0-8.944-4.186-18.768-12.847-18.768S84.58 56.6 84.58 65.51zm29.013-22.94c9.673 4.323 14.864 12.42 14.864 22.94 0 15.6-15.863 24.689-31.174 24.689-15.154 0-31.037-9.088-31.037-24.689 0-10.514 5.198-18.617 14.733-22.651C73.91 38.955 69 31.739 69 23.657 69 10.665 82.998 1.314 97.257 1.314c14.457 0 28.441 9.378 28.441 22.343 0 8.083-4.915 15.298-12.13 18.912M171.474 37.391c13.142 0 28.526 6.046 28.526 19.879 0 17.571-28.671 30.977-45.382 30.977h-3.581v-5.776h3.581c12.256 0 25.937-13.097 25.937-23 0-7.064-6.624-10.823-14.687-10.823h-13.55V3.24h45.099l-6.492 15.272h-31.116v18.88h11.665zM143.913 83.457a6.736 6.736 0 11-13.472 0 6.736 6.736 0 0113.472 0z"/>
</svg>
