<svg xmlns="http://www.w3.org/2000/svg" viewBox="2 1 414 139">
	<path fill="#cececf" d="M178 136v-3h4c7 0 14-4 20-9 9-8 11-19 6-24-4-4-9-5-20-5h-9V44h25c24 0 26 0 25 2l-3 8-3 7h-35v22h12c13 0 14 1 20 4 5 2 8 4 10 8 8 12 0 27-20 37-9 4-21 8-28 8-4 0-4 0-4-4zm-157-5-3-3c0-2 1-2 5-3 9-2 16-8 21-19 3-5 7-17 7-20 0-2 0-2-3 0-9 9-25 8-36-3a30 30 0 0 1-1-43c15-15 39-15 53 0 7 8 9 14 9 29 0 11 0 13-3 22-6 17-16 30-29 36-7 3-17 5-20 4zm23-51 6-4c3-3 3-4 3-14-1-17-6-25-16-25-4 0-5 1-7 3-4 4-6 10-6 20 0 15 4 22 12 22l8-2zm221 7V59h-10V45h10v-5c0-10 3-16 10-20 4-2 5-2 14-2l10-1 1 9v8h-5c-5 0-7 2-7 8v3h12v14h-12v56h-23zm44-7V45h23l-1 4 1 5 3-4c4-4 10-7 17-7s11 2 16 7l4 4 3-3c4-6 10-8 18-8 7 0 12 2 16 6 6 6 7 10 7 40v26h-23V91c-1-23-1-25-3-27-4-5-13-2-15 5l-1 24v22h-23V90c-1-24-1-24-3-26-4-4-12-2-15 3l-1 25v23h-23zm-165 33 3-11c4-11 8-20 10-20 5-2 11 1 11 5 0 2-2 4-8 9a92 92 0 0 0-16 17zM98 99c-16-5-24-18-20-33 1-6 5-12 11-16l4-2-4-4c-5-4-8-10-9-16-2-16 20-31 40-26 19 5 29 20 21 35l-6 8-4 3 2 1c5 3 11 9 12 14 2 6 2 15 0 20-3 6-9 11-16 15-8 3-22 4-31 1zm21-8c9-6 9-29 0-36-4-3-10-3-14-1-6 4-9 17-6 27 1 6 7 12 12 12l8-2zm-1-50c4-3 5-9 4-17 0-10-5-16-12-15-7 2-11 14-8 25 3 10 10 13 16 7z"/>
	<path d="m20 130-1-2c0-2 0-2 4-3 7-2 13-6 18-12 3-6 8-17 9-24 1-5 1-6-2-3-7 6-15 7-24 4C14 87 5 78 3 68s1-20 8-28c16-16 41-15 55 3l6 12v25c-1 8-7 23-12 31l-12 11c-9 7-24 11-28 8zm20-48c4-1 6-2 9-5s4-4 4-11c0-17-4-26-11-28-8-3-12-1-15 6-2 3-3 9-3 16 0 13 3 19 8 21l8 1zm65 18c-17-2-29-15-28-30 1-8 5-15 13-20l3-2-4-4c-6-6-9-13-9-20 1-12 18-24 34-23 12 1 23 8 27 16 2 5 3 12 1 16-2 6-5 10-10 14l-1 1 9 8c6 6 7 12 6 21-1 6-2 9-7 14-5 4-10 7-15 8s-14 2-19 1zm13-9c5-2 8-9 8-17 0-11-4-19-10-21-4-1-8 0-11 1l-6 10-1 10 1 9c3 5 6 9 10 10 2 0 6 0 9-2zm-3-47 6-7 1-8c1-9-1-16-5-18-2-2-3-2-5-2-5 1-8 3-10 9v18c3 6 8 9 13 8zm29 68a189 189 0 0 1 12-29c3-3 9-2 11 2 1 3 0 4-6 10a141 141 0 0 0-17 17zm35 28-1-4v-3h4c7 0 15-4 21-10 10-10 11-21 2-26-4-1-8-2-18-2h-8V44h22l28 1-3 8-3 7h-18l-17 1v22h2l12 1 13 1c8 3 13 7 16 12 5 12-3 25-21 35l-20 7-11 1zm86-53V59h-10V45h10v-6c1-9 2-13 8-17 4-3 6-4 16-4h10v16h-2c-4 0-6 0-8 2l-1 5v4h11v14h-11v56h-23V87zm44-7V45h23l-1 4v5l4-3c5-5 9-8 18-8 5 0 5 1 8 2s5 3 7 6l4 3 3-3c4-4 8-7 14-7 8-1 15 1 20 5 5 5 6 7 6 27l1 27v12h-23v-12l-2-38c-2-5-13-4-16 2-1 2-2 13-2 33v15h-22v-10a742 742 0 0 1-1-36c0-3 0-4-2-5-5-4-12-2-15 3l-1 25v23h-23V80z"/>
	<path fill="#1a1a1a" d="M21 130c-3-2-2-3 3-5 11-4 17-10 23-23l4-16c0-2-1-2-4 0l-6 4-8 1c-6 0-10-1-15-4-8-5-14-13-15-21-3-14 6-28 21-34 5-2 9-3 16-3 9 1 16 4 22 10 9 9 11 15 10 33 0 10 0 10-2 16-2 7-7 17-10 21l-7 9c-6 5-10 8-18 11-5 1-13 2-14 1zm23-49c4-2 7-5 8-7 1-4 1-19-1-24-2-9-7-13-14-13-4 0-7 1-9 5-3 4-3 6-4 16 0 14 2 20 7 23 3 2 9 2 13 0zm59 18c-15-3-25-14-25-26 0-9 4-17 12-22l3-3-4-4C78 32 78 18 90 9c11-8 25-9 37-4 8 4 13 10 15 16l1 7c-1 6-3 10-8 16-4 4-5 4-4 5 3 1 8 5 9 7l4 6c2 3 2 4 2 10 0 10-1 12-7 17-4 5-8 7-13 9-6 2-17 3-23 1zm13-6c7-3 11-11 10-23-1-11-6-17-14-17-6 0-9 2-12 7-2 5-2 9-2 15s0 7 2 9c3 6 7 9 11 9h5zm1-50c4-3 6-8 5-18 0-7-1-11-4-14-2-2-3-2-5-2-4 0-6 1-8 3-5 6-6 22 0 29 3 3 8 4 12 2zm62 96-1-3v-3h4c8 0 14-3 21-10 6-5 7-9 8-14 0-5-1-7-3-9-4-4-6-5-19-5h-10V44h23l26 2-2 7-3 7h-33l-2 1v22h8c15 1 18 2 23 4 6 3 9 6 11 10 2 3 2 4 2 8s0 5-2 8c-4 9-16 18-31 23-10 3-20 4-20 3zm-33-30c2-8 8-24 11-26 3-3 11 1 10 5l-6 7a538 538 0 0 0-15 14zm119-22V59h-10V45h10l2-16c2-3 5-7 9-9l13-2h9l1 8v8h-3c-4 0-7 1-8 3l-1 5v3h12v14h-11v56h-23V87zm44-7V45h22v5l1 4 4-4c6-5 8-6 16-6 6 0 6 0 10 2l6 5 3 4 4-4c4-4 7-5 12-7 11-3 24 3 26 13l2 42v16h-22V98c0-20-1-32-2-34-2-3-7-3-12-1-5 3-6 6-6 33v19h-21v-4l-1-12a861 861 0 0 0-2-34c-4-5-13-4-16 2l-1 23-1 23v2h-22V80z"/>
</svg>