<svg xmlns="http://www.w3.org/2000/svg" viewBox="0 0 802 180">
  <path fill="#fff" fill-rule="evenodd" d="M107 25c1 2 1 3-1 7-3 6-3 8 1 10 1 1 3 3 3 5l2 2c2 0 1-5-1-8l-1-6c2-7 1-9-1-11-2-3-3-2-2 1m24-1c-3 2-3 2-1 13 0 2 0 4-2 6s-3 6-1 6l4-4c5-5 5-8 2-13-3-3-3-3 1-7 3-4 1-4-3-1M76 35l2 3c3 3 3 4 2 8 0 4 0 5 2 7 3 4 13 6 15 3 2-2-1-5-6-5s-8-2-8-7l-1-5c0-2-6-6-6-4m88 6-2 4c0 3-4 5-10 5l-9 3c-2 1-3 4-1 6 2 1 3 1 6-1 2-2 5-3 7-3 4 0 8-3 9-9l3-7c1-2-2-1-3 2m-55 11c-9 3-15 10-18 19-3 6-2 10 0 4 2-5 9-11 14-14 6-3 15-4 22-2 6 3 15 11 17 16 1 4 3 4 2 0-3-17-21-28-37-23m-45 6c0 7 6 12 14 11 3-1 5-1 6 1 2 1 4 1 4-2 0-2-4-4-11-4-5 0-6 0-9-2l-2-5-1-2-1 3m104 0c-2 1-3 4-4 6-2 4-3 5-8 5s-7 1-7 2c-2 3 0 5 3 3l6-1c5 0 9-3 9-7 0-3 2-6 4-8v-1l-3 1m-53 6c-2 0-3 2-4 4-2 4 1 9 5 11 10 4 16-11 7-16-4-1-5-1-8 1M95 78c-4 2-10 8-6 7 8-4 11-3 21 2 12 6 23 5 32-1 6-4 6-5 0-2l-10 3c-5 0-6 0-15-5-11-5-16-6-22-4m13 17c-6 2-13 9-16 16l-1 6 5-4c10-12 22-14 35-8l10 8c4 5 5 5 5 3l-3-8c-4-7-10-12-16-14-5-1-14-1-19 1m2 35c0 17 0 17 3 19 1 2 4 3 7 4 6 0 7 0 7-4s0-4-3-4c-5 0-6-2-6-9l1-6 3-1c4 0 4 0 4-4 0-3 0-3-4-3h-4v-8h-8v16m-57-7c-8 2-11 10-9 18 1 5 2 7 5 9 4 2 12 3 14 1h3c0 1 1 2 3 2h4v-11c0-13-1-16-7-19-5-2-8-2-13 0m32-1-6 5c-2 3-2 4-2 20v16h7v-6l1-7 3 1c0 2 9 1 12-1 2 0 4-2 5-4 2-4 2-12 0-17-2-6-13-9-20-7m55 0c-3 1-8 6-9 9v12l1 10h7v-10c0-11 1-13 7-13 5 0 6 2 6 13l1 10h7v-11c0-11-1-15-6-18-3-2-10-3-14-2m-87 8c-5 5-1 16 5 16 4 0 7-4 7-9 0-8-7-12-12-7m35-1c-4 3-5 10-1 15 5 5 12 1 12-7 0-7-6-11-11-8"/>
  <path fill="#414142" fill-rule="evenodd" d="M521 2c-12 3-21 9-26 18-11 19-7 44 10 56 7 6 14 8 25 8 6 0 10 0 14-2 11-4 20-13 24-25 2-5 2-8 2-16-1-9-1-10-4-17-6-12-15-19-29-22-7-2-8-2-16 0M249 2v81h5V47l1-35 29 36c22 28 28 35 30 35h2V3h-5v34l-1 35-40-50C257 7 253 2 251 2h-2m110 7a4611 4611 0 0 0-31 74c2 0 3-1 8-11l5-11 23-1 25 1 5 12c5 9 5 10 8 10h3a646 646 0 0 0-27-60C368 3 368 2 365 2c-2 0-3 1-6 7m39-4v2h28v76h6V7h28V2h-62v3m73 38v40h5V2h-5v41M583 3l-1 40v40h5V47l1-35 29 36c19 24 28 35 30 35h2V2h-2l-2 1-1 35v35l-24-30-28-35c-5-5-8-7-9-5m111 4a1438 1438 0 0 0-30 63l-6 13h3c3 0 4-1 8-10l5-12 25-1c21 0 23 0 24 2l5 11c4 9 5 10 8 10h3l-5-10-18-40C702 3 701 2 699 2c-3 0-3 1-5 5m54 36v40h54v-4l-23-1h-25l-1-38V2h-5v41M520 7c-13 4-22 15-25 30s6 32 20 40c5 2 7 2 15 2 7 0 9 0 14-2 7-3 14-11 17-17 3-7 4-16 3-23-1-9-4-14-10-20-7-8-13-10-23-11l-11 1m-158 6a1370 1370 0 0 1-19 42 211 211 0 0 0 43 0l-9-20a984 984 0 0 1-12-26l-3 4m335-3a389 389 0 0 1-20 45l22 1 21-1-6-13a979 979 0 0 1-16-33l-1 1M557 96c-10 2-17 8-20 17-2 9 0 19 7 24 4 3 8 4 24 9 11 3 15 8 10 14-2 2-4 2-9 3-8 0-15-2-21-6l-5-3-5 6-5 6 3 2c5 4 11 7 18 8l9 3c4 1 4 1 17-3 17-5 23-26 11-38-5-4-9-6-25-10-12-4-16-9-10-15 2-2 3-2 9-2s9 1 14 4l6 3 5-6c3-5 4-6 3-8-2-2-11-6-19-7-7-2-10-2-17-1m-308 41v40h17v-50l13 15 19 25 7 10h15V96h-8l-8 1-1 24v25l-14-17-19-25-6-8h-15v41m89-1v41h61v-15h-44v-18h38v-15h-38v-17h44V97l-31-1h-30v40m69-39 14 41 13 40h16l9-26 9-26 17 48 2 4h15l14-40 13-41-9-1-8 1-7 22a4128 4128 0 0 0-11 31l-9-27-9-27h-15l-9 28c-5 15-9 27-10 26l-9-27-8-26-9-1-9 1"/>
  <path fill="#29527f" fill-rule="evenodd" d="M27 2A21380 21380 0 0 1 0 176v2h188v-3A4852 4852 0 0 0 214 4c0-2-1-2-93-2H27m443 41c0 35 1 40 2 41v-1l-1-41-1-39v40m179 0c0 37 0 40-2 40v1l3-1V42l-1-39v40m-62 5v35h-2l-2 1h2l3-1V47l-1-33v34M107 25c1 2 1 3-1 7-3 6-3 8 1 10 1 1 3 3 3 5l2 2c2 0 1-5-1-8l-1-6c2-7 1-9-1-11-2-3-3-2-2 1m24-1c-3 2-3 2-1 13 0 2 0 4-2 6s-3 6-1 6l4-4c5-5 5-8 2-13-3-3-3-3 1-7 3-4 1-4-3-1M76 35l2 3c3 3 3 4 2 8 0 4 0 5 2 7 3 4 13 6 15 3 2-2-1-5-6-5s-8-2-8-7l-1-5c0-2-6-6-6-4m88 6-2 4c0 3-4 5-10 5l-9 3c-2 1-3 4-1 6 2 1 3 1 6-1 2-2 5-3 7-3 4 0 8-3 9-9l3-7c1-2-2-1-3 2m-55 11c-9 3-15 10-18 19-3 6-2 10 0 4 2-5 9-11 14-14 6-3 15-4 22-2 6 3 15 11 17 16 1 4 3 4 2 0-3-17-21-28-37-23m-45 6c0 7 6 12 14 11 3-1 5-1 6 1 2 1 4 1 4-2 0-2-4-4-11-4-5 0-6 0-9-2l-2-5-1-2-1 3m104 0c-2 1-3 4-4 6-2 4-3 5-8 5s-7 1-7 2c-2 3 0 5 3 3l6-1c5 0 9-3 9-7 0-3 2-6 4-8v-1l-3 1m-53 6c-2 0-3 2-4 4-2 4 1 9 5 11 10 4 16-11 7-16-4-1-5-1-8 1M95 78c-4 2-10 8-6 7 8-4 11-3 21 2 12 6 23 5 32-1 6-4 6-5 0-2l-10 3c-5 0-6 0-15-5-11-5-16-6-22-4m13 17c-6 2-13 9-16 16l-1 6 5-4c10-12 22-14 35-8l10 8c4 5 5 5 5 3l-3-8c-4-7-10-12-16-14-5-1-14-1-19 1m140 42 1 41h17l-9-1h-8v-40l-1-40v40m72 0v40h-7l-7 1h7l8-1v-41l-1-39v40m-210-7c0 17 0 17 3 19 1 2 4 3 7 4 6 0 7 0 7-4s0-4-3-4c-5 0-6-2-6-9l1-6 3-1c4 0 4 0 4-4 0-3 0-3-4-3h-4v-8h-8v16m-57-7c-8 2-11 10-9 18 1 5 2 7 5 9 4 2 12 3 14 1h3c0 1 1 2 3 2h4v-11c0-13-1-16-7-19-5-2-8-2-13 0m32-1-6 5c-2 3-2 4-2 20v16h7v-6l1-7 3 1c0 2 9 1 12-1 2 0 4-2 5-4 2-4 2-12 0-17-2-6-13-9-20-7m55 0c-3 1-8 6-9 9v12l1 10h7v-10c0-11 1-13 7-13 5 0 6 2 6 13l1 10h7v-11c0-11-1-15-6-18-3-2-10-3-14-2m-87 8c-5 5-1 16 5 16 4 0 7-4 7-9 0-8-7-12-12-7m35-1c-4 3-5 10-1 15 5 5 12 1 12-7 0-7-6-11-11-8m305 7-1 8v1c2 0 2-2 2-10l-1-6v7m-40 42"/>
</svg>