<svg xmlns="http://www.w3.org/2000/svg" viewBox="34 25 436 147">
  <path fill="#dea13d" fill-rule="evenodd" d="m246 54 1 29h16l-8-1h-8V54l-1-28v28m35-12a270 270 0 0 0 1-1l-1-15v16M74 75v7H54l-19 1h19l21-1v-8l-1-6v7M34 97v29l1 28V97h42v14H67l-10 1h21V97l-22-1-22 1m48 0v29l1 28V97h20l20-1h-20l-21 1m121 0v29l1 28V97h26l-13-1-14 1m40 0a250 250 0 0 0 0 17V97h9l9-1h-9l-9 1m146 0v29l1 28V97h11l12-1h-12l-12 1M67 118h9v7l1 8v-15l-9-1h-9l8 1m225 34-4 4v7c1 3 3 4 4 5 2 0 3 1 3 2 0 3 1 2 5-3 5-5 5-9 1-13-3-3-5-4-9-2"/>
  <path fill="#261f25" fill-rule="evenodd" d="m153 26-8 6c-5 5-8 13-8 23 0 18 10 29 25 29 14 0 22-6 24-17l1-5h-10c-8 0-9 0-9 2 0 3-3 6-6 5l-3-3V43c2-5 8-5 9 1 1 3 1 3 10 3h9v-4c-1-7-4-11-9-14-4-3-5-3-13-4l-12 1M35 54v28h39V67H55V26H35v28m44 1v28h40V69l-11-1c-10 0-10 0-10-3s0-3 9-3h9V47h-9c-9 0-9 0-9-3v-3h20V26H79v29m117-8-8 28-2 7h19l1-5 1-4h15l1 4 1 5h10l10-1-8-27-8-27-13-1h-13l-6 21m51 7v28h16V66c0-9 0-16 1-15l5 16 5 15h24V26h-16v16l-1 16-5-16-5-16h-24v28m69-27-15 54 9 1h10l1-4 1-4h14l1 4 1 4h21l-2-5-8-28-6-23h-13l-14 1m45 0v29l1 27 15-1c17 0 20 0 27-6 5-5 7-12 7-22 0-13-4-22-13-26-6-2-36-3-37-1m64 2a2667 2667 0 0 0-15 51c0 2 1 2 9 2h10l1-5 1-4h7l8 1v4l1 4h11c9 0 10 0 10-2l-16-54h-26l-1 3m-44 26c0 14 0 15 2 15l5-2c2-3 3-3 3-11V45c-1-3-5-6-7-6-3 0-3 0-3 16m56-10-2 9c-2 6-1 6 3 6h4v-5l-2-11-2-5-1 6m-225 4-1 10 4 1c4 0 4 0 4-2a216 216 0 0 1-4-17l-3 8m115-2-2 10c0 3 0 3 4 3l4-1-4-19-2 7m-40 49c-13 3-20 13-20 28l1 12c2 6 7 12 12 15l5 2 2-3c5-4 15-4 18 2 1 1 7-2 11-6 3-3 6-12 5-13l-10-1c-10 0-10 0-10 3-1 4-3 5-6 5-4 0-5-4-6-15 0-12 1-14 6-15 4 0 4 0 5 3l1 4h10c10 0 10 0 10-3 0-4-3-10-7-13-6-5-18-7-27-5m148 0c-11 3-16 9-16 18 0 8 3 12 14 15 16 6 17 6 17 8 0 3-2 5-5 5s-6-3-6-5l-10-1c-10 0-11 0-11 2 0 6 6 13 14 15 5 1 18 2 24 0 8-2 14-8 14-14 1-8 0-10-4-14-3-4-5-4-24-10-4-1-4-5-1-6 3-2 8 0 8 2s2 2 10 2c11 0 11 0 8-8-2-5-7-7-14-9h-18M35 125v28h22v-21h19v-14H58l-1-4v-3h20V97H35v28m48 0v28h21v-20h3c5 0 5 0 6 8l2 9v3h43l1-4 1-4 8-1h8l1 4 1 5h12l11-1-9-27-9-27-14-1h-15l-8 26-9 27-2-10c-2-11-3-14-8-15l-3-1 4-2c7-3 9-13 4-20-3-4-6-5-28-5H83v28m121 0v28h18v-33l6 17 6 16h27V97h-18v17l-1 16-6-17-6-15-13-1h-13v28m129-4-10 28-1 4h21l1-4 2-4 8-1h8l1 4 1 5h23l-3-9-9-28-6-19h-29l-7 24m57 4v28h22V97h-22v28m-286-10c0 5 0 5 3 5 4 0 6-2 6-6 0-2 0-3-3-4-5-2-6-2-6 5m64-5-2 10-3 10h10l-3-10-2-10m184 9-3 10 5 1h5l-2-10-3-10-2 9"/>
</svg>