<svg xmlns="http://www.w3.org/2000/svg" viewBox=".3 1 72.9 22.7">
    <path fill="#df0031" d="M11.5 15.4a4 4 0 0 0 4-3.8c0-2.1-1.8-3.8-4-3.8s-4 1.7-4 3.8a4 4 0 0 0 4 3.8m-4.6 0a4 4 0 0 1-4-3.8 4 4 0 0 1 4-3.8zm9.2 4.3V16H20c0 2-1.7 3.7-3.8 3.7M6.9 3.5v3.7H3c0-2 1.7-3.7 3.8-3.7m.1 16.2V16H3c0 2 1.7 3.7 3.8 3.7m13.9-4.8V8.3c1.2.7 2 1.9 2 3.3s-.8 2.6-2 3.3M8 2.7h7A4 4 0 0 0 11.4 1 4 4 0 0 0 8 2.8m6.9 17.7H8a4 4 0 0 0 3.4 1.8 4 4 0 0 0 3.5-1.8m.6-4.5c0 2.1-1.8 3.9-4 3.9s-4-1.8-4-3.9zm.6-.6a4 4 0 0 0 4-3.8 4 4 0 0 0-4-3.8zm-.6-8.2c0-2.1-1.8-3.9-4-3.9s-4 1.8-4 3.9zM2.3 14.9V8.3c-1.2.7-2 1.9-2 3.3s.8 2.6 2 3.3m17.6-7.7h-3.8V3.5c2.1 0 3.8 1.7 3.8 3.7"/>
    <path fill="#bbb" d="M25.5 23.7V1.3h1v22.4z"/>
    <path d="m37 9.4-.1 1.7c-.4-.2-1-.3-1.4-.3-.7 0-1.2.2-1.6.7s-.6 1-.6 1.8.2 1.4.6 1.9c.4.5.9.7 1.6.7.5 0 1 0 1.6-.3l.1 1.7c-.6.2-1.3.3-2 .3-1.4 0-2.4-.4-3-1.2-.7-.8-1-1.8-1-3 0-1.3.3-2.3 1-3C32.8 9.5 33.7 9 35 9c.8 0 1.5.1 2 .3zm1.6 8V5.7h2.1v4.7c.6-.9 1.4-1.3 2.4-1.3 1.2 0 2 .5 2.7 1.3.5.7.7 1.7.7 3 0 1.2-.2 2.1-.7 2.9a3 3 0 0 1-2.7 1.3c-1 0-1.9-.4-2.4-1.2v1zm2.1-4c0 .6.2 1.2.4 1.7.3.6.8.8 1.5.8.6 0 1-.3 1.4-.8.2-.5.3-1 .3-1.8 0-.6 0-1.2-.3-1.7s-.8-.8-1.4-.8c-.6 0-1.1.3-1.4.8-.3.5-.5 1-.5 1.7zm12.9-4-.2 1.7c-.4-.2-1-.3-1.4-.3-.7 0-1.2.2-1.6.7s-.6 1-.6 1.8.2 1.4.6 1.9c.4.5 1 .7 1.6.7.5 0 1 0 1.6-.3l.1 1.7c-.6.2-1.3.3-2 .3-1.4 0-2.4-.4-3-1.2-.7-.8-1-1.8-1-3 0-1.3.3-2.3 1-3 .7-.9 1.6-1.3 2.8-1.3.8 0 1.5.1 2 .3zm1.5 8v-2.2h2.2v2.2zm9.8-8-.2 1.7-1.4-.3c-.7 0-1.2.2-1.6.7s-.6 1-.6 1.8.2 1.4.6 1.9c.4.5.9.7 1.6.7.5 0 1 0 1.6-.3l.1 1.7c-.6.2-1.3.3-2 .3-1.4 0-2.4-.4-3-1.2-.7-.8-1-1.8-1-3 0-1.3.3-2.3 1-3 .7-.9 1.6-1.3 2.8-1.3.8 0 1.5.1 2 .3zm1.9 2.1V9.8c.8-.5 1.8-.7 2.8-.7 1.2 0 2 .3 2.6.8.6.6.8 1.4.8 2.6v1a82.8 82.8 0 0 0 .2 3.9h-1.9v-1.2h-.1c-.2.4-.6.8-1 1a3 3 0 0 1-1.5.4 3 3 0 0 1-2-.7c-.5-.4-.8-1-.8-1.7 0-1.1.4-1.9 1.4-2.3.6-.3 1.5-.5 2.7-.5h1c0-.6-.1-1-.4-1.3-.3-.3-.8-.4-1.4-.4a4 4 0 0 0-2.5.8zm1 3.6c0 .6.5 1 1.4 1 .9 0 1.4-.4 1.7-1.2.2-.3.2-.7.2-1.2h-.9c-1.5 0-2.3.4-2.3 1.4z"/>
</svg>