<svg xmlns="http://www.w3.org/2000/svg" xml:space="preserve" viewBox="0 0 747 157">
  <path d="M345 10h35l22 77h1l23-77h32l-38 118h-34l-22-77h-1l-23 77h-33l38-118z"/>
  <path d="m462 92-1 6c0 9 5 13 15 13 11 0 16-3 19-9h30c-10 20-29 28-52 28-26 0-44-12-41-37 3-30 27-53 60-53 24 0 42 12 39 37l-2 15h-67zm40-16c2-9-2-17-13-17-12 0-19 7-24 17h37z"/>
  <path d="M528 42h31l-4 59h1l32-59h30l-4 59 33-59h32l-56 85h-32l3-58-32 59h-32l-2-86z"/>
  <path d="M679 99c0 4 1 7 3 9 3 3 7 4 12 4s13-2 14-9c1-8-7-8-21-11s-25-7-24-23c2-23 28-30 47-30 20 0 40 5 37 27l-28 1c0-3 0-6-2-8-1-2-5-3-9-3-6 0-14 3-14 9-1 6 9 7 20 9 17 4 26 7 25 24-2 26-29 32-51 32-23 0-38-8-37-30l28-1zM85 50c-1-12-9-20-22-20-14 0-23 12-23 36 0 17 4 34 25 34 13 0 19-9 21-21h38c-3 32-26 51-59 51-40 0-65-25-65-65S27 0 62 0c37 0 58 19 62 50H85zm45 77V37h36v90h-36zm0-127h36v25h-36V0z"/>
  <path d="M232 127c-47 2-52-1-52-32V57h-16V37h16V9h35v28h18v20h-18v33c0 8 2 11 12 11h5v26z"/>
  <path d="m274 92 16-55h34l-29 84c-9 27-13 36-45 36l-15-1v-24h7c11 0 14-3 10-13l-29-82h35l16 55z"/>
</svg>