<svg xmlns="http://www.w3.org/2000/svg" viewBox="0 0 680 340">
	<path fill="#040404" fill-rule="evenodd" d="M457 2c-11 7-11 26 1 33 5 3 15 3 20 0 6-4 8-8 8-16s-1-12-7-16c-3-2-4-3-10-3-7 0-8 0-12 2m88 203-50 130 14 1h14l8-23 10-24 70-1 69-1-4-13-5-10-60-1h-60l30-77 30-76-6-17-8-17-52 129M107 79c-23 3-34 7-52 19A131 131 0 0 0 1 209a128 128 0 0 0 69 120c23 11 51 14 78 7 14-4 43-20 43-24 0-2-21-14-24-14l-4 2c-5 3-15 8-24 11-12 3-28 3-40 0-43-11-73-54-73-102s30-91 73-102a83 83 0 0 1 64 11l4 2c3 0 24-12 24-14 0-4-29-20-43-24-14-3-31-5-41-3m215 71-62 68-1-28v-29h-25v62l1 61 26-27 26-27 49 53 49 53h18c15 0 17 0 17-2l-57-63-57-62A4732 4732 0 0 1 420 84c0-2-2-2-17-2h-18l-63 68m134-67-1 59v59l12 12 12 13 1-72V82h-12l-12 1"/>
</svg>