<svg xmlns="http://www.w3.org/2000/svg" xml:space="preserve" viewBox="21.8 23.3 161.3 53.6">
	<path fill="#f3a100" d="M79.9 45a15 15 0 0 0-14.7-15.2A15 15 0 0 0 50.5 45a15 15 0 0 0 14.2 15.2V68L76 55.3c2.4-2.7 3.9-6.4 3.9-10.3z"/>
	<path d="M47.1 50c.2 0 .5.1.6.3l1.8 1.9c-1.4 1.6-3 2.8-4.9 3.7-1.9.9-4.3 1.3-7 1.3a14.6 14.6 0 0 1-14.7-10 19 19 0 0 1-1.1-6.8c0-2.5.4-4.8 1.2-6.8a15 15 0 0 1 8.4-8.8c2-.8 4.2-1.2 6.6-1.2 2.4 0 4.4.4 6.2 1.1 1.8.8 3.4 1.8 4.7 3.1l-1.5 2.1-.4.4-.6.2c-.3 0-.6-.2-1-.4l-1.6-1c-.6-.4-1.5-.7-2.4-1-1-.3-2.2-.4-3.6-.4a12 12 0 0 0-4.7.9c-1.4.6-2.6 1.4-3.7 2.6-1 1.1-1.8 2.5-2.4 4.1-.6 1.6-.9 3.4-.9 5.5s.3 3.9.9 5.5c.6 1.6 1.4 3 2.4 4.1a11.3 11.3 0 0 0 8.1 3.4 21.3 21.3 0 0 0 4.9-.7c.7-.2 1.3-.6 1.9-.9l1.7-1.3c.6-.8.8-.9 1.1-.9z" class="st0"/>
	<path fill="#fff" d="M65.3 33.1a10.9 10.9 0 0 1 8.1 3.3c1 1 1.7 2.3 2.2 3.8a15.4 15.4 0 0 1 0 10c-.5 1.5-1.3 2.7-2.2 3.8-1 1-2.1 1.8-3.5 2.4-1.4.6-2.9.8-4.6.8a13 13 0 0 1-4.6-.8c-1.4-.6-2.5-1.4-3.5-2.4s-1.7-2.3-2.2-3.8a15.4 15.4 0 0 1 0-10c.5-1.5 1.3-2.7 2.2-3.8 1-1 2.1-1.9 3.5-2.4 1.3-.7 2.9-.9 4.6-.9zm0 20.8c2.3 0 4-.8 5.2-2.3a11 11 0 0 0 1.7-6.5c0-2.8-.6-4.9-1.7-6.5-1.1-1.6-2.9-2.3-5.2-2.3-1.2 0-2.2.2-3.1.6-.9.4-1.6 1-2.2 1.7a8 8 0 0 0-1.3 2.8 14 14 0 0 0-.4 3.7c0 2.8.6 4.9 1.7 6.5 1.2 1.5 2.9 2.3 5.3 2.3z"/>
	<path d="M86.8 33.4v14.9c0 1.8.4 3.1 1.2 4.1.8 1 2 1.5 3.7 1.5a7 7 0 0 0 3.4-.9 11 11 0 0 0 2.9-2.4V33.4h4.1v23.3h-2.4c-.6 0-1-.3-1.1-.9l-.3-2.5c-1 1.1-2.2 2-3.4 2.7-1.3.7-2.7 1-4.3 1a9 9 0 0 1-3.4-.6c-1-.4-1.8-1-2.5-1.8a6.4 6.4 0 0 1-1.5-2.7c-.3-1.1-.5-2.3-.5-3.6V33.4h4.1zm19.8 23.4V33.4h2.4c.4 0 .8.1.9.3.2.2.3.5.3.9l.3 3.5a9.6 9.6 0 0 1 2.7-3.7 6 6 0 0 1 5.4-1.1l1.2.5-.3 3.1c-.1.4-.3.6-.7.6l-.9-.1-1.4-.1c-.7 0-1.4.1-2 .3a4 4 0 0 0-1.6 1 4 4 0 0 0-1.2 1.6c-.4.6-.7 1.3-1 2.1v14.8h-4.1zm15.8 0V33.4h2.4c.4 0 .8.1.9.3.2.2.3.5.3.9l.3 3.5a9.6 9.6 0 0 1 2.7-3.7 6 6 0 0 1 5.4-1.1l1.2.5-.3 3.1c-.1.4-.3.6-.7.6l-.9-.1-1.4-.1c-.7 0-1.4.1-2 .3a4 4 0 0 0-1.6 1 4 4 0 0 0-1.2 1.6c-.4.6-.7 1.3-1 2.1v14.8h-4.1zm21.1-30.7-.2 1.1-.6.9-.9.6c-.4.2-.7.2-1.1.2l-1.1-.2-.9-.6-.6-.9c-.2-.3-.2-.7-.2-1.1l.2-1.1.6-.9.9-.6c.3-.2.7-.2 1.1-.2l1.1.2.9.6.6.9.2 1.1zm-.9 7.3v23.3h-4.1V33.4h4.1zm14.2-.3a10 10 0 0 1 7 2.7c.9.9 1.5 2 2 3.3.5 1.3.7 2.8.7 4.4l-.2 1.3c-.1.2-.4.3-.8.3H150a10.4 10.4 0 0 0 2.1 6.5c.6.7 1.4 1.3 2.3 1.6.9.4 1.9.5 3 .5 1 0 1.9-.1 2.7-.4l1.9-.8 1.3-.8.9-.4c.3 0 .6.1.8.4l1.2 1.5c-.5.6-1.1 1.1-1.8 1.6s-1.5.8-2.3 1.1l-2.5.7-2.6.2c-1.6 0-3.1-.3-4.5-.8a8.5 8.5 0 0 1-3.5-2.4c-1-1.1-1.8-2.4-2.3-3.9-.6-1.6-.8-3.3-.8-5.3 0-1.6.2-3.1.7-4.6.5-1.4 1.2-2.6 2.2-3.7.9-1 2.1-1.9 3.4-2.4 1.4-.3 3-.6 4.6-.6zm.1 3c-2 0-3.5.6-4.7 1.7a8.2 8.2 0 0 0-2.1 4.8h12.8a7.1 7.1 0 0 0-1.6-4.7c-.5-.6-1.1-1-1.9-1.3-.7-.4-1.5-.5-2.5-.5zm13 20.7V33.4h2.4c.4 0 .8.1.9.3.2.2.3.5.3.9l.3 3.5a9.6 9.6 0 0 1 2.7-3.7 6 6 0 0 1 5.4-1.1l1.2.5-.3 3.1c-.1.4-.3.6-.7.6l-.9-.1-1.4-.1c-.7 0-1.4.1-2 .3a4 4 0 0 0-1.6 1 4 4 0 0 0-1.2 1.6c-.4.6-.7 1.3-1 2.1v14.8h-4.1zm-77.4 3.9v1.8h-7.7v5.6h6.6v1.8h-6.6v6.9h-2.2V60.7h9.9zm.9 16V65.4h1.1l.4.1.2.4.1 1.7c.4-.8.8-1.4 1.3-1.8.5-.4 1.2-.7 1.9-.7l.7.1.6.2V67c0 .2-.2.3-.3.3l-.5-.1-.7-.1-1 .2-.8.5-.6.8-.5 1v7.1h-1.9zm12-11.5a5 5 0 0 1 3.9 1.6c.5.5.8 1.1 1.1 1.8.2.7.4 1.5.4 2.4a6 6 0 0 1-.4 2.4 5.2 5.2 0 0 1-2.8 3c-.7.3-1.4.4-2.2.4a5 5 0 0 1-3.9-1.6c-.5-.5-.8-1.1-1.1-1.8-.2-.7-.4-1.5-.4-2.4 0-.9.1-1.7.4-2.4a5.2 5.2 0 0 1 2.8-3c.6-.2 1.4-.4 2.2-.4zm0 10.1c1.1 0 1.9-.4 2.5-1.1.5-.7.8-1.8.8-3.1s-.3-2.4-.8-3.1c-.5-.7-1.4-1.1-2.5-1.1-.6 0-1.1.1-1.5.3-.4.2-.8.5-1 .8-.3.4-.5.8-.6 1.3a9 9 0 0 0-.2 1.8c0 1.3.3 2.4.8 3.1.5.7 1.4 1.1 2.5 1.1zm7.4 1.4V65.4h1.2c.3 0 .5.1.5.4l.2 1.2c.5-.5 1-1 1.6-1.3a4.6 4.6 0 0 1 3.7-.2c.5.2.9.5 1.2.9.3.4.6.8.7 1.4.2.5.2 1.1.2 1.7v7.2h-2v-7.2a3 3 0 0 0-.6-2c-.4-.5-1-.7-1.8-.7-.6 0-1.1.1-1.7.4l-1.4 1.1v8.3h-1.8zm15.3.2c-.9 0-1.6-.2-2.1-.7-.5-.5-.7-1.2-.7-2.1v-6.9H124l-.3-.1-.1-.3V66l1.8-.2.5-3.5.2-.3.3-.1h1v3.9h3.3v1.4h-3.3V74c0 .5.1.8.3 1.1.2.2.5.3.9.3l.5-.1.4-.2.3-.2.2-.1.3.2.6.9a5 5 0 0 1-1.2.8l-1.6.2zm8.7-11.7c.7 0 1.3.1 1.9.3a4 4 0 0 1 1.5 1c.4.4.7 1 1 1.6.2.6.4 1.3.4 2.1l-.1.6-.4.2h-7.5c0 .7.1 1.3.3 1.9.2.5.4 1 .7 1.3.3.4.7.6 1.1.8.4.2.9.3 1.4.3l1.3-.2c.4-.1.7-.2.9-.4l.7-.4.5-.2.4.2.6.7c-.2.3-.5.6-.9.8l-1.1.5-1.2.3-1.2.1c-.8 0-1.5-.1-2.2-.4a4 4 0 0 1-1.7-1.2 4 4 0 0 1-1.1-1.9c-.3-.7-.4-1.6-.4-2.6 0-.8.1-1.5.4-2.2.2-.7.6-1.3 1-1.8.5-.5 1-.9 1.7-1.2l2-.2zm0 1.5c-1 0-1.7.3-2.3.8a4 4 0 0 0-1 2.3h6.2l-.2-1.3a2 2 0 0 0-.6-1c-.2-.3-.6-.5-.9-.6l-1.2-.2zm6.7 10V65.4h1.2c.3 0 .5.1.5.4l.2 1.2c.5-.5 1-1 1.6-1.3a4.6 4.6 0 0 1 3.7-.2c.5.2.9.5 1.2.9.3.4.6.8.7 1.4.2.5.2 1.1.2 1.7v7.2h-2v-7.2a3 3 0 0 0-.6-2c-.4-.5-1-.7-1.8-.7-.6 0-1.1.1-1.7.4l-1.4 1.1v8.3h-1.8zm19.1 0-.4-.1-.2-.4-.2-1.1-.9.7-.9.5c-.3.1-.6.3-1 .3l-1.2.1a5 5 0 0 1-1.2-.2 2 2 0 0 1-1-.6c-.3-.2-.5-.6-.7-.9-.2-.4-.3-.8-.3-1.3 0-.4.1-.9.4-1.3.2-.4.6-.8 1.2-1.1.5-.3 1.3-.6 2.1-.8l3.2-.4v-.9a3 3 0 0 0-.6-2c-.4-.4-.9-.7-1.7-.7l-1.2.2-.9.4-.6.4-.5.2-.3-.1-.2-.3-.4-.6a6 6 0 0 1 6.1-1.4c.5.2.9.5 1.2.9l.8 1.3c.2.5.3 1.1.3 1.7v7.2h-.9zm-4.2-1.2 1-.1.8-.3.7-.5.7-.6v-2.3l-2.3.2a6 6 0 0 0-1.6.5c-.4.2-.7.4-.9.7-.2.3-.3.5-.3.8l.1.8.4.5.6.3c.3-.1.5 0 .8 0zm15.5-8.1-.2.2-.2.1-.4-.1-.5-.3-.7-.3-1.1-.1c-.6 0-1 .1-1.5.3a3.1 3.1 0 0 0-1.7 2.2 9 9 0 0 0 0 3.6c.2.5.4 1 .7 1.3.3.4.6.6 1 .8.4.2.9.3 1.4.3l1.2-.2.8-.4.5-.4.4-.2.4.2.6.7a3 3 0 0 1-.8.8l-1 .5c-.4.1-.7.3-1.1.3l-1.2.1c-.7 0-1.4-.1-2-.4-.6-.3-1.1-.6-1.6-1.1-.4-.5-.8-1.1-1-1.8-.3-.7-.4-1.5-.4-2.5 0-.8.1-1.6.4-2.3.2-.7.6-1.3 1-1.8s1-.9 1.7-1.2c.7-.3 1.4-.4 2.3-.4.8 0 1.5.1 2.1.4.6.3 1.1.6 1.6 1.1l-.7.6z" class="st0"/>
	<path d="M171.9 71.9v-.1l.1-.1.1-.1h.2l.1.1.1.1v.2l-.1.1-.1.1h-.2l-.1-.1-.1-.1v-.1zm3.1-2.2V73h-.4v-1.2l-.4.3-.5.1-.4-.1-.3-.2-.2-.4-.1-.5.1-.5.2-.4.3-.3.4-.1.4.1.3.2v-.2l.1-.1h.5zm-1.1 2.1.4-.1.3-.3v-1.2l-.3-.2-.3-.1-.5.2-.2.7v.4l.1.3.2.2.3.1zm3.4-1.7c0 .1 0 .1 0 0 0 .1 0 .1 0 0-.1.1-.1 0-.2 0l-.1-.1-.2-.1h-.2l-.3.1-.2.2-.1.3v.4l.1.4.1.3.2.2.3.1h.3l.2-.1.1-.1h.2l.1.2-.2.2-.2.1-.2.1h-.3l-.4-.1-.3-.2-.2-.4-.1-.5.1-.5.2-.4.4-.3.5-.1.5.1.3.2h-.4zm.5 1.8v-.1l.1-.1.1-.1h.2l.1.1.1.1v.2l-.1.1-.1.1h-.2l-.1-.1-.1-.1v-.1zm2.8-1.8c0 .1 0 .1 0 0-.1.1-.1.1 0 0-.1.1-.1 0-.2 0l-.1-.1-.2-.1h-.2l-.3.1-.2.2-.1.3v.4l.1.4.1.3.2.2.3.1h.3l.2-.1.1-.1h.2l.1.2-.2.2-.2.1-.2.1h-.3l-.4-.1-.3-.2-.2-.4-.1-.5.1-.5.2-.4.4-.3.5-.1.5.1.4.2h-.5z" class="st4"/>
	<path d="M182.7 72.2c-.1 0-.1 0 0 0l-.2-.1v-.2l-.2.2-.2.1-.2.1h-.6l-.2-.1-.1-.2-.1-.3.1-.3c.1-.1.1-.2.3-.2l.5-.2.7-.1v-.2l-.1-.4-.4-.1h-.3l-.2.1-.1.1h-.2l-.1-.1-.1-.1.4-.3.5-.1.4.1.3.2.2.3.1.4v1.6h-.2zm-1-.3h.2l.2-.1.2-.1.1-.1v-.5h-.5l-.3.1-.2.1-.1.2v.2l.1.1.1.1h.2z" class="st4"/>
	<path d="M43.2 62.8h.5l.1.1 1 2.6.1.2.1.2.1-.2.1-.2 1-2.6.1-.1h.5l-1.5 3.7h-.4l-1.7-3.7zm7.1 1.9-.1.8a2 2 0 0 1-.4.6l-.6.4-.7.1-.7-.1a2 2 0 0 1-.6-.4l-.4-.6-.1-.8.1-.8.4-.6.6-.4.7-.1.7.1.6.4.4.6.1.8zm-.5 0-.1-.6-.3-.5-.4-.3-.5-.1-.5.1-.4.3-.3.5-.1.6.1.6.3.5.4.3.5.1.5-.1.4-.3.3-.5.1-.6zm3.5-1.9v.4h-1.2v3.3h-.5v-3.3h-1.2v-.4h2.9zm.9 2.2v1.5h-.5v-3.7h1l.6.1.4.2.2.3.1.4-.1.4-.2.3-.3.2-.4.1.2.2 1.1 1.5H56l-.2-.1-1-1.3-.1-.1h-.5zm0-.4h.5l.4-.1.3-.1.2-.2.1-.3-.2-.5a1 1 0 0 0-.6-.2h-.5v1.4zm4.9-1.8v.4h-1.8v1.2h1.4v.4h-1.4v1.3h1.8v.4h-2.3v-3.7h2.3zM33.9 71l.1.1.1-.1.1-.1 1.2-2.3.1-.1h.5v3.7h-.4v-2.9l-1.3 2.3-.2.1H34l-.2-.1-1.3-2.3v2.9H32v-3.7h.5l.1.1 1.3 2.3v.1zm5.1-2.5v.4h-1.8v1.2h1.4v.4h-1.4v1.3H39v.4h-2.3v-3.7H39zm-.2-1.1-.8.7h-.5l.6-.7.1-.1h.6zm3.9 2.9-.1.8a2 2 0 0 1-.4.6l-.6.4-.7.1h-1.4v-3.7h1.4l.7.1.6.4.4.6.1.7zm-.5 0-.1-.6-.3-.5-.4-.3-.5-.1H40v2.9h.9l.5-.1.4-.3.3-.4.1-.6zm1.7 1.9h-.5v-3.7h.5v3.7zm3.8 0h-.5l-.1-.1-.3-.9h-1.6l-.4.8-.1.1h-.5l1.5-3.7h.5l1.5 3.8zm-2.4-1.4h1.4l-.6-1.5-.1-.2-.1-.2-.1.2-.1.2-.4 1.5zm7-.5-.1.8a2 2 0 0 1-.4.6l-.6.4-.7.1h-1.4v-3.7h1.4l.7.1.6.4.4.6.1.7zm-.5 0-.1-.6-.3-.5-.4-.2-.5-.1h-.9v2.9h.9l.5-.1.4-.3.3-.4.1-.7zm1.3-1.8.1.4v.4l-.1.4-.3.3-.1-.1v-.2l.1-.2.1-.3v-.3l-.1-.3v-.1l.1-.1.2.1zm1.3 3.7h-.5v-3.7h.5v3.7zm3.4-.8s.1 0 0 0l.3.2-.5.4-.8.1-.7-.1a2 2 0 0 1-.6-.4l-.4-.6-.1-.7.1-.8.4-.6.6-.4.7-.1.7.1.5.3-.2.2h-.2l-.2-.1-.3-.1-.4-.1-.5.1-.4.3-.3.5-.1.6.1.6.3.5.4.3.5.1h.3l.2-.1.2-.1.4-.1c-.1 0 0 0 0 0zm1.2.8h-.5v-3.7h.5v3.7z" class="st3"/>
</svg>