<svg xmlns="http://www.w3.org/2000/svg" viewBox="5.1 3.3 289.2 101.8">
  <path fill="#ea6c04" fill-rule="evenodd" d="M205.4 4c-3.4 1.3-6.4 6-6.4 9.7 0 5 5.4 10.3 10.5 10.3 4.7 0 10.5-5.3 10.5-9.7 0-7.7-7.7-13.1-14.6-10.3m69.1 48.9a2017.6 2017.6 0 0 1-7.4 34.8c-1.7 7.9-3.1 15-3.1 15.8 0 2.3 6.7 2 7.4-.3.8-2.7 9.6-50 9.6-51.5 0-.4-1.3-.7-3-.7-2 0-3 .6-3.5 1.9m-100 4.4a1352 1352 0 0 0-9.1 43.5l-.7 4.2H177c12.1 0 12.2 0 13.1-2.6.6-1.4 1-2.7 1-3 0-.2-3.8-.4-8.5-.4s-8.5-.3-8.5-.6l2-10.8a3788 3788 0 0 0 5.6-29.8c.4-1.5-.1-1.8-3-1.8-2 0-3.8.6-4 1.3m26 23.8a21.2 21.2 0 0 0-7.6 15.4c0 8.2 5.2 10.9 10.8 5.7l3-2.9-.5 2.9c-.5 2.4-.2 2.8 1.6 2.8 1.3 0 2.5-.9 3-2.3 1.4-3.6 5.2-23 4.6-23.5-.3-.3-2.9-.7-5.8-1-4.7-.3-5.6 0-9 3m18.3-2.5c0 .5.7 3.5 1.5 6.8s1.5 9 1.5 12.8c0 5.2.3 6.7 1.4 6.7 3 0 15.5-20.5 15.6-25.8 0-.6-.9-1.2-2-1.2-1.3 0-2.2 1.3-3.5 5.4-1 3-2.7 7-4 9.1l-2.2 3.7-.6-6.4c-.8-9-2-11.8-5.2-11.8-1.4 0-2.5.3-2.5.8m28.5 1a20 20 0 0 0-9.5 17c0 7.9 5.3 10.5 10.8 5.4l3-2.9-.5 2.9c-.5 2.4-.2 2.8 1.6 2.8 1.3 0 2.5-1 3-2.3 1.4-3 5.2-23 4.6-23.5-.2-.3-2.6-.7-5.2-.9-3.5-.3-5.6 0-7.8 1.5m-43 3.3c-4.3 3.4-7.3 13.4-5 16.6 1.1 1.5 1.4 1.4 3.8-.9a46.9 46.9 0 0 0 6.7-17c0-1.5-2.6-.9-5.4 1.3m44.7.3c-3 2.6-5.3 8.2-5.3 13.4 0 7.5 5.8 2.8 9-7.3 1-3.7 2-7.1 2-7.6 0-1.7-2.8-1-5.7 1.5"/>
  <path fill="#040404" fill-rule="evenodd" d="M26.2 9c-12 2.4-19.4 13.3-20.9 30.4-1 12.4 2.8 26.7 8.4 31.8 5.6 5 17.6 7.3 26.3 4.8 6.2-1.8 6.3-2 4-9.6l-2.5-7.3c-.2-.1-2 .2-4 .9-2.7.9-4 .9-6.2-.2-3.8-1.8-5.2-6.4-5.2-17-.1-15.6 3.6-20.3 13-16.3 1.3.5 2-.6 3.7-5.2 1-3.2 2.3-6.5 2.7-7.4C46.8 10.7 34 7.5 26.2 9M58 26.5c-8.6 4-12.2 10.4-12.8 23.1-.9 18.4 6 27.4 21 27.4 15.6 0 23.7-10.5 22.6-29-.9-15.2-7.2-22.2-20.2-22.8A27 27 0 0 0 58 26.5m97.3 2-2.8 3.5-.5-2.7c-.5-2.7-.7-2.8-7.5-2.8h-7v49l9.3.3 9.2.3V60.7c0-14 .2-15.6 2-17.1 1-1 2.6-1.5 3.8-1.2 2.3.8 3.2-2.4 3.2-11.5 0-5.9 0-5.9-3.5-5.9-2.7 0-4 .7-6.2 3.5m31.9-2.8c-.8.3-2.2 1.8-3.1 3.5l-1.8 2.9-.6-3C181 26 181 26 174 26h-7v25c0 23.8 0 25 1.9 25 1.5 0 2.1-1.6 3.7-9.8l2-9.7 3.7-.3c3.5-.3 3.7-.2 3.2 2L178 75.6c0 .3 1.6.4 3.6.2l3.6-.3-.1-15c-.2-13.8 0-15.3 1.7-16.9a4.6 4.6 0 0 1 4.6-1c2.5.6 2.6.4 2.6-3.2 0-2.2.3-6.3.6-9.1.7-5.3.7-5.3-2.7-5.2-1.9 0-4 .3-4.7.6m46.2.7c-4.3 2-10 9-11.3 14.1a63 63 0 0 0 0 22.8 22.2 22.2 0 0 0 10.6 12.3c4 1.7 17 1.7 23.3 0l4.5-1.1-.4-6.5c-.2-3.6-.4-6.6-.6-6.8-.1-.1-3.5.3-7.4 1-8 1.2-11.4.4-12.4-3.1-.5-2-.2-2.1 10.9-2.1H262v-8.8C262 32 256.2 25 242.8 25a31 31 0 0 0-9.4 1.4m49.9 2.1-2.8 3.5-.5-2.7c-.5-2.7-.7-2.8-7.5-2.8h-7V51c0 24.5 0 24.5 2.3 24.8 1.2.2 2.2.1 2.2-.1 0-1.2 3.2-17.6 4.1-21 .9-3.2 1.4-3.7 4-3.7 1.6 0 2.9.3 2.9.8l-2 11c-2.6 13.5-2.7 13.2 1.5 13.2h3.5V60.7c0-14 .2-15.6 2-17.1 1.1-1 2.6-1.5 3.8-1.2 2.2.7 2.5-.3 3.8-11.1l.7-6.3h-4.1c-3.5 0-4.5.5-7 3.5M91 44.2c0 20 .7 24.4 5 29 2.3 2.7 3.5 3.2 8.9 3.6 5.3.4 6.6.1 10-2.1 3.7-2.5 4-2.5 4.4-.6.4 1.6 1.4 1.9 7.1 1.9h6.6V26h-18v16.8c0 16.8-.5 19.2-3.7 19.2-1 0-1.3-4.2-1.5-17.8l-.3-17.7-9.3-.3L91 26v18.3M195.8 31l-.2 7.3c0 1.5.6 2.3 2.2 2.5 2.2.3 2.2.5 2.2 17.8V76h18V26h-22l-.2 5m44.2 8.4c0 .8-.3 2.1-.6 3-.5 1.3 0 1.6 2.6 1.6 2.9 0 3.2-.3 2.6-2.3l-.6-3c0-1.4-4-.7-4 .7M64.7 40.7c-.4.3-.7 4.7-.7 9.8 0 6.6.4 9.7 1.5 11 1.5 2 1.5 2 3 0a43 43 0 0 0 .9-19.3c-.6-2-3.3-3-4.7-1.5"/>
</svg>