<svg xmlns="http://www.w3.org/2000/svg" data-name="Layer 1" viewBox="0 0 440 71">
  <ellipse cx="35.4" cy="35.3" fill="#eb0000" stroke="#fff" stroke-miterlimit="10" rx="34.9" ry="34.8"/>
  <path d="M50 44a17 17 0 1 1 0-17l5-3a23 23 0 1 0 0 23Z" class="cls-2"/>
  <path fill="#005fff" d="M75 2h65v66H75z"/>
  <path fill="#23be19" d="m143 2 39 68 39-68h-78z"/>
  <path d="M128 14H86v6h18v37h6V20h18v-6zm79 0h-7l-18 31-18-31h-7l25 43 25-43z" class="cls-2"/>
  <path d="M294 68v-2h1l4-1 1-5V24l-1-5-4-1h-1v-3h35l1 10h-3v-1l-2-5-10-1h-7v21h7l7-1 1-4v-1h4v14h-4v-1l-1-4-7-1h-7v19a4 4 0 0 0 2 4l10 1h2a6 6 0 0 0 4-1l2-5 1-1h3l-1 10Zm93 0h-2l-15-41-13 41h-3l-14-43a17 17 0 0 0-2-6 4 4 0 0 0-3-1v-3h17v3h-1a6 6 0 0 0-3 0 3 3 0 0 0-1 3 14 14 0 0 0 1 4l9 31 13-41h2l15 41 10-31a17 17 0 0 0 1-5l-4-2h-1v-3h13v3h-1a3 3 0 0 0-2 1 19 19 0 0 0-2 6Zm34 2a43 43 0 0 1-14-2V56h3a14 14 0 0 0 4 8 12 12 0 0 0 8 3 10 10 0 0 0 7-3 9 9 0 0 0 3-7c0-3-2-7-8-11l-5-3-10-8a11 11 0 0 1-2-7 12 12 0 0 1 5-10c3-3 8-4 13-4a40 40 0 0 1 13 2l1 10h-3c-2-6-6-10-12-10a10 10 0 0 0-7 3 8 8 0 0 0-3 6c0 4 2 7 7 10l7 5 10 8a12 12 0 0 1 2 7 13 13 0 0 1-5 11c-4 2-8 4-14 4m-177-6q-2-1-2-6V17l43 51h2V13l1-7 6-1h1V2h-22v3h1l6 1 2 7v39L241 2h-13v3h1c2 0 4 1 7 4l1 2v47l-1 6-6 2h-1v2h22v-2h-1l-6-2" class="cls-5"/>
</svg>