<svg xmlns="http://www.w3.org/2000/svg" viewBox="18 19 765 505">
  <path fill="#040404" fill-rule="evenodd" d="M93 19a80 80 0 0 0-72 58l-2 8v102c0 102 0 103 2 111a80 80 0 0 0 60 56c10 2 35 2 47-1 32-8 49-28 54-61v-44c-1-4-6-5-23-6s-34-1-40 1c-4 1-4 2-4 20-1 14-1 17-5 20-2 2-9 3-12 1l-4-3c-3-7-4-181 0-187 1-3 7-5 12-5 3 1 8 6 8 8a1777 1777 0 0 1 3 36c2 2 12 3 36 2 26-1 28-1 30-7 1-4 0-29-1-41-3-28-15-48-34-58-15-8-33-11-55-10m389 0c-17 1-19 1-22 4-2 1-2 10-2 164 0 187-1 167 11 168h124c3 0 4-1 5-3l1-31-1-30-2-3h-27c-27 0-34-1-36-3-1-1-2-37-2-131V24l-3-2c-4-3-20-4-46-3m138 0-4 3-1 29 1 31 4 3 21 1c17 0 18 1 20 2l1 133 1 131c2 3 17 4 43 4 23-1 28-2 28-5l1-132c0-122 1-129 2-131 2-1 5-2 22-2s20-1 22-2c1-2 2-5 2-32s-1-30-2-31-9-2-27-2H620m-383 1-4 2a6280 6280 0 0 0-2 248c2 23 2 25 4 33 5 13 9 19 19 29 8 8 11 10 18 14 39 19 90 10 113-19 5-8 9-15 12-24l2-7 1-135c0-151 1-139-7-141l-32-1c-25 0-27 1-30 3l-2 2-1 126-2 129-4 4c-3 2-10 2-13 0-5-3-5 2-5-133V25l-2-3-3-2-30-1-32 1M20 391c-2 1-2 1-2 32 0 27 0 31 2 32 1 2 22 2 219 2h217l2-2 1-33c0-29-1-30-2-32l-218-1c-194 0-217 0-219 2m693-1-7 1c-2 2-2 130 0 132l28 1h27l1-2v-24l-13-1-13-1a1409 1409 0 0 1-3-105c-1-1-12-2-20-1m-221 3v128l1 3h11l13-1c2-1 2-2 2-36 0-32 0-38 3-36l3 14 5 15 5 2c4 0 6-3 9-18 1-7 3-12 4-12l1 35v35l3 1c3 1 23 1 24-1l1-66v-65l-11-1h-14c-2 1-4 6-11 31l-5 17-2 2-1-3-8-22c-5-20-6-23-8-24l-13-1c-11 0-11 0-12 3m114-1v12l1 12 9 1h8v52l1 53c1 2 2 2 14 2l14-1 1-53 1-52 8-1 9-1 1-14v-11l-33-1c-31 0-33 0-34 2"/>
</svg>