<svg xmlns="http://www.w3.org/2000/svg" width="720" height="504" viewBox="0 0 720 504" version="1.1"><path d="" stroke="none" fill="#080404" fill-rule="evenodd"/><path d="M 122 29.068 C 106.069 31.819, 91.699 44.472, 81.760 64.500 C 73.744 80.651, 68.432 98.569, 59.460 139.724 C 58.988 141.889, 58.570 141.955, 43.750 142.224 L 28.525 142.500 22.841 162.500 C 19.714 173.500, 17.121 183.287, 17.078 184.250 C 17.007 185.848, 18.405 186, 33.125 186 L 49.250 186 48.612 189.250 C 48.261 191.037, 38.937 234.034, 27.891 284.797 L 7.807 377.095 18.575 402.297 C 30.005 429.049, 29.777 428.556, 30.416 427.917 C 30.644 427.688, 42.546 373.336, 56.863 307.136 C 71.181 240.936, 83.086 186.581, 83.319 186.348 C 83.552 186.115, 87.972 186.054, 93.143 186.212 L 102.543 186.500 90.885 240.108 C 76.904 304.390, 75.615 312.271, 75.607 333.500 C 75.601 347.224, 75.932 350.686, 77.932 357.834 C 82.960 375.800, 93.197 385.075, 109.692 386.608 C 122.637 387.811, 135.670 382.536, 148.266 370.993 C 151.970 367.600, 154.984 365.425, 154.964 366.161 C 154.945 366.898, 154.277 370.200, 153.480 373.500 C 152.683 376.800, 152.024 379.837, 152.016 380.250 C 152.007 380.663, 159.358 381, 168.352 381 L 184.703 381 189.880 357.250 C 192.727 344.188, 204.410 290.525, 215.842 238 L 236.628 142.500 220.172 142.225 C 211.121 142.074, 203.538 142.129, 203.319 142.347 C 203.101 142.566, 197.341 168.379, 190.520 199.710 C 176.227 265.356, 174.538 272.319, 169.007 288.358 C 157.483 321.779, 140.743 342.891, 125.700 342.978 C 119.952 343.011, 116.139 340.540, 113.668 335.179 C 110.661 328.655, 110.778 309.735, 113.937 291.500 C 115.842 280.503, 144.042 148.942, 145.607 143.750 C 146.100 142.114, 144.404 142, 119.567 142 C 101.785 142, 93 141.655, 93 140.957 C 93 140.383, 94.581 132.845, 96.512 124.207 C 103.704 92.047, 109.694 78.748, 119.161 73.918 C 124.873 71.004, 132.464 71.591, 137.361 75.326 C 140.497 77.718, 140.920 77.815, 141.387 76.250 C 142.737 71.725, 151.984 32.651, 151.757 32.430 C 151.616 32.291, 148.723 31.460, 145.328 30.582 C 137.103 28.455, 128.707 27.910, 122 29.068 M 295.447 138.350 C 276.390 144.569, 257.110 164.869, 242.395 194.209 C 217.813 243.224, 206.353 307.714, 215.599 345 C 219.412 360.376, 227.587 372.197, 238.144 377.600 C 245.661 381.448, 257.103 382.076, 266.671 379.166 C 274.777 376.701, 284.078 371.268, 291.708 364.540 C 295.391 361.294, 297.058 360.303, 296.690 361.581 C 296.386 362.636, 295.610 366.200, 294.965 369.500 C 294.320 372.800, 292.436 379.775, 290.779 385 C 283.173 408.985, 271.418 426.225, 255.337 436.980 C 245.026 443.877, 236.300 446.474, 223.500 446.456 C 211.617 446.439, 204.057 444.450, 197.838 439.707 C 188.957 432.933, 185.289 423.033, 184.302 403.171 L 183.689 390.841 168.094 391.556 C 158.495 391.995, 152.218 392.698, 151.765 393.385 C 150.097 395.917, 151.814 416.544, 154.605 427.500 C 159.053 444.964, 171.459 460.389, 187 467.778 C 216.236 481.679, 255.287 477.055, 281.955 456.534 C 289.341 450.851, 298.879 440.456, 304.593 431.861 C 310.456 423.040, 318.079 406.814, 321.910 395 C 324.306 387.607, 375.946 153.801, 377.206 144.639 C 377.494 142.542, 377.193 142.495, 361.831 142.225 L 346.161 141.950 344.267 150.225 L 342.373 158.500 340.180 154.277 C 337.228 148.592, 332.024 143.564, 325.717 140.301 C 321.185 137.957, 319.121 137.565, 310 137.315 C 303.250 137.130, 298.053 137.500, 295.447 138.350 M 567.972 138.824 C 557.014 142.437, 549.880 147.090, 539.365 157.483 C 523.139 173.522, 510.406 195.275, 500.725 223.500 C 483.808 272.817, 479.556 326.597, 490.317 355.123 C 499.656 379.881, 520.565 390.729, 549 385.569 C 558.680 383.813, 565.519 381.182, 575.951 375.203 L 584.384 370.369 590.631 341.934 C 594.066 326.295, 596.905 312.658, 596.939 311.629 C 596.979 310.394, 593.684 313.155, 587.250 319.747 C 568.706 338.745, 547.354 347.396, 535.500 340.712 C 523.769 334.098, 517.835 311.833, 520.974 286.210 L 522.225 276 568.504 276 L 614.783 276 616.428 268.750 C 624.808 231.816, 627.237 190.209, 622.144 170.846 C 618.212 155.898, 610.927 145.779, 600.278 140.473 C 595.202 137.944, 593.224 137.558, 584 137.298 C 575.914 137.069, 572.229 137.420, 567.972 138.824 M 679.976 140.301 C 659.647 148.736, 642.999 171.760, 634.638 203 C 628.368 226.425, 628.995 243.139, 636.719 258.457 C 639.873 264.714, 643.282 269.153, 653.261 280 C 667.207 295.160, 669.683 303.968, 664.445 319.785 C 655.175 347.773, 631.094 350.862, 615.211 326.100 C 612.738 322.245, 611.536 321.101, 611.010 322.100 C 610.605 322.870, 607.636 334.178, 604.413 347.229 L 598.553 370.958 602.527 375.035 C 610.428 383.141, 625.784 387.954, 639.638 386.667 C 668.679 383.968, 692.280 355.357, 702.157 310.881 C 705.382 296.355, 705.359 277.379, 702.105 268 C 698.683 258.137, 695.882 254.024, 684.007 241.418 C 670.419 226.994, 668.459 223.311, 668.617 212.500 C 668.763 202.488, 671.672 194.396, 677.333 188.254 C 684.602 180.368, 690.939 178.635, 700.414 181.941 C 703.667 183.076, 706.535 183.798, 706.789 183.545 C 707.580 182.753, 700.080 162.034, 694.645 150 C 688.741 136.928, 688.495 136.766, 679.976 140.301 M 386.490 143.250 C 384.640 148.417, 352.743 299.035, 351.536 308.301 C 349.579 323.337, 349.567 345.281, 351.511 354.500 C 354.663 369.446, 363.260 380.840, 374.280 384.677 C 381.780 387.288, 394.710 387.037, 402.146 384.137 C 409.844 381.133, 418.442 375.370, 424.823 368.936 C 429.220 364.502, 430.047 363.997, 429.574 366.034 C 429.259 367.390, 428.366 371.313, 427.589 374.750 L 426.177 381 442.521 381 C 457.216 381, 458.919 380.823, 459.401 379.250 C 459.941 377.484, 511 143.100, 511 142.385 C 511 142.173, 503.460 142, 494.245 142 L 477.490 142 465.090 199.250 C 458.270 230.738, 450.964 262.865, 448.853 270.645 C 436.518 316.105, 418.118 342.882, 399.150 342.978 C 395.544 342.996, 394.234 342.434, 391.490 339.690 C 386.649 334.849, 385.673 329.935, 386.287 313.500 C 386.930 296.299, 388.152 289.723, 405.568 209.766 C 413.028 175.520, 419.383 146.262, 419.691 144.750 L 420.250 142 403.594 142 C 391.174 142, 386.823 142.318, 386.490 143.250 M 296.255 182.521 C 279.871 190.808, 261.587 225.766, 253.376 264.500 C 250.283 279.093, 249.057 304.763, 250.937 315.561 C 253.440 329.935, 259.405 337.575, 268 337.417 C 295.640 336.907, 324.870 271.652, 322.736 215.220 C 322.186 200.674, 320.663 193.739, 316.759 188.004 C 311.386 180.108, 304.608 178.296, 296.255 182.521 M 568.764 180.996 C 559.979 183.641, 550.488 193.770, 542.754 208.755 C 538.270 217.442, 532 232.488, 532 234.560 C 532 234.802, 544.774 235, 560.388 235 L 588.775 235 590.023 224.810 C 592.249 206.643, 589.633 189.752, 583.740 184.231 C 579.597 180.351, 574.537 179.258, 568.764 180.996" stroke="none" fill="#040404" fill-rule="evenodd"/></svg>