<svg xmlns="http://www.w3.org/2000/svg" viewBox="0 0 270 87">
  <path fill-rule="evenodd" d="m1 36-1 2 1 3 1 2 3 1h2l2-2c2-2 3-4 1-7l-1-2H3l-2 3m27 14-4 2-1-1-1-2h-7v34h9V58l3-2h8l2 1v13l1 13h8V56l-1-3-1-2-3-2c-5-1-8-1-13 1M1 66v17h9V49H1v17"/>
  <path fill="#ec2c24" fill-rule="evenodd" d="m75 13 1 13 4 2 17 5 14 4h2l1-1V16l-1-1-1-2-18-6-18-7h-1v13m0 47v27h1l17-6 1-21V40l-2-1-10-4-7-2v27"/>
  <path fill="#0d4f92" fill-rule="evenodd" d="m55 7-18 7-1 11v12h1l20-5 18-6V0h-1L55 7m151 17-5 1h-2v9h-19l-5 6-4 6-5-6-4-6h-13l-1 1v1l7 10c8 12 8 10 0 22l-6 12v2h13l4-6c5-8 5-8 10 0l4 6h13l1-1v-1l-7-11-7-11v-2l7-10 6-8v3l1 4h5v20l1 5 1 5 4 4 3 4 8-1h9l1-1 1-1-1-4-1-4h-8l-2-2-1-2V46l6-1h6V35l-6-1h-6l-1-6v-5h-3l-4 1M66 36l-9 3-1 1v20l1 21 7 3 10 3h1V34h-1l-8 2m55-1c-8 4-12 10-13 19l-1 6 1 5 4 8 2 4 5 3 5 3 9-1h10l2-1 3-2-1-4v-4h-17l-3-1-3-2-1-3c-3-4-2-4 14-4h14v-5c0-6-1-11-4-15l-3-3-4-3-3-2h-13l-3 2m117-1-7 4-3 3-2 4-3 9v5l1 5c1 3 2 7 4 9l2 4 5 3 5 2h15l3-1c4-2 9-8 10-12l2-4V51l-2-4c-2-5-7-11-12-13l-3-1h-12l-3 1M127 44l-4 4-2 3v1l1 1 8-1c9 0 9 0 7-4l-2-3-3-1h-5m114 2-3 6-1 4v5l1 5 2 2 4 3 3 1h2l3-1 2-3 2-3V51l-2-3-3-3-4-1h-4l-2 2"/>
</svg>