<svg xmlns="http://www.w3.org/2000/svg" viewBox="0 0 1042 518">
	<path fill="#fff" fill-rule="evenodd" d="M352 36c-12 3-17 7-22 16-3 5-3 9-4 15v146c1 14 6 22 16 28 11 7 47 7 60 0 5-2 10-8 13-13 4-7 4-10 4-88V64l-2-7c-4-11-11-17-24-20-8-2-33-2-41-1m-95 14v13h17v72c0 79 0 77-6 79l-13 1h-9v29h16c19-1 25-2 32-8 5-4 9-12 11-19l1-92V37h-49v13m182 75 1 94c3 14 12 23 27 26 15 2 38 1 47-4 5-2 12-10 15-16 1-5 2-10 2-97V37h-32v86l-1 89c-3 7-19 8-25 2-1-1-2-9-2-89V37h-32v88m112 16v103h31v-83h11c17 1 15-3 16 44l1 39h32v-36l-1-42c-2-10-6-15-13-18-3-1-4-3-1-3 3-1 9-8 11-13 2-4 3-6 2-37 0-33 0-34-2-38-4-10-12-16-22-18-5-2-12-2-35-2h-30v104m112 0v103h29v-67l1-65a286 286 0 0 1 9 36 2515 2515 0 0 1 20 90l2 6h34V37h-28v61c-1 63-1 65-4 49a248 248 0 0 0-6-29 181 181 0 0 1-5-19 243 243 0 0 1-4-18l-10-42c0-2 0-2-19-2h-19v104M805 39l-2 10a1331 1331 0 0 1-12 84l-2 15-2 15a498 498 0 0 1-6 41 1502 1502 0 0 0-6 38c0 2 1 2 15 2h15l1-14 3-21 2-8h29v5a15366 15366 0 0 1 5 33l1 5h14l16-1v-9a330 330 0 0 1-7-46 712 712 0 0 0-9-62 38578 38578 0 0 0-12-86v-2l-22-1c-19 0-21 0-21 2m91 102v103h67v-29h-34l-1-89V37h-32v104M363 64l-4 4c-2 3-2 5-2 73 0 66 0 69 2 72 2 4 7 5 15 5 7-1 10-2 12-6V69c-1-4-6-6-14-6l-9 1m219 36v33h11c11 0 11-1 14-3l2-3V99c0-35 1-33-16-33h-11v34m242-10a758 758 0 0 1-9 69l-1 9v3h22l-1-5a870 870 0 0 0-8-68l-1-10c0-6-2-4-2 2M62 211v46h30v-12l-8-1h-8v-80H62v47m37 0v46h31v-13h-18v-28h18v-12h-17v-26l8-1h9v-13H99v47m718 105-4 9h-15v159h54v-23h-29v-47h28v-22h-28v-45h29v-22h-9l-9-1 5-9 3-5 2-3h-23l-4 9m-662 43v46h12c18 0 23-2 26-12l1-35c0-28 0-31-2-35-4-9-9-11-26-11h-11v47m47 0v46h32v-13h-17v-28h16v-12h-16v-28h17v-12h-32v47m276-34c-7 3-10 5-13 12l-3 5-1 59 1 64c3 11 10 17 22 19 8 1 25 1 31-1s12-7 15-12l3-5v-61c0-54 0-61-2-65-2-6-8-13-14-15l-18-2c-13 0-16 0-21 2m-309 34v34h4c7-1 7-1 7-35v-30l-3-2-5-2h-3v35m175 46v79h21v-58a1837 1837 0 0 1 2-43 1495 1495 0 0 1 14 94l1 7h24l1-8a7043 7043 0 0 1 14-96l2-9v113h24V325h-36l-1 5-1 8-1 8a1383 1383 0 0 0-13 88l-2-8a296 296 0 0 0-4-32 1418 1418 0 0 0-8-64l-1-5h-36v80m206 0v79h22v-51l1-51 4 19a2461 2461 0 0 0 19 80v3h27V325h-22v46c0 49 0 50-4 33a189 189 0 0 0-5-21 1049 1049 0 0 0-12-55l-1-3h-29v80m83-69v11h21v137h25V347h22v-22h-68v11m79 69v79h25v-64h8c7 0 8 0 10 3l3 2v59h25v-27c0-31-1-38-5-43l-6-4c-2 0-3-3-1-3s6-5 9-9c1-3 2-6 2-29 0-25-1-26-3-30l-6-8c-6-5-11-6-37-6h-24v80m177-79-1 4-1 8a588 588 0 0 0-9 62 779 779 0 0 1-10 71l-2 10v3h23v-6a1140 1140 0 0 1 3-24l1-3 10-1 12 1 4 27v6h13c14 0 13 1 11-11a370 370 0 0 1-7-45 759 759 0 0 0-7-48 1775 1775 0 0 0-7-48l-1-7h-16l-16 1m68 79v79h52v-23h-27V325h-25v80m-466-60-3 2c-2 1-2 5-2 57v55l3 2 8 2c6 0 9-1 11-5l1-55v-53l-3-3c-2-3-4-3-8-3l-7 1m246 28v25h8c13 0 12 1 12-26 0-26 1-25-12-25h-8v26m166-8-1 10a614 614 0 0 0-5 47l-1 6h9c8 0 8 0 8-2l-1-8a823 823 0 0 0-9-53"/>
	<path fill="#c40d1d" fill-rule="evenodd" d="M201 140v140h807V0H201v140M352 36c-12 3-17 7-22 16-3 5-3 9-4 15v146c1 14 6 22 16 28 11 7 47 7 60 0 5-2 10-8 13-13 4-7 4-10 4-88V64l-2-7c-4-11-11-17-24-20-8-2-33-2-41-1m-95 14v13h17v72c0 79 0 77-6 79l-13 1h-9v29h16c19-1 25-2 32-8 5-4 9-12 11-19l1-92V37h-49v13m182 75 1 94c3 14 12 23 27 26 15 2 38 1 47-4 5-2 12-10 15-16 1-5 2-10 2-97V37h-32v86l-1 89c-3 7-19 8-25 2-1-1-2-9-2-89V37h-32v88m112 16v103h31v-83h11c17 1 15-3 16 44l1 39h32v-36l-1-42c-2-10-6-15-13-18-3-1-4-3-1-3 3-1 9-8 11-13 2-4 3-6 2-37 0-33 0-34-2-38-4-10-12-16-22-18-5-2-12-2-35-2h-30v104m112 0v103h29v-67l1-65a286 286 0 0 1 9 36 2515 2515 0 0 1 20 90l2 6h34V37h-28v61c-1 63-1 65-4 49a248 248 0 0 0-6-29 181 181 0 0 1-5-19 243 243 0 0 1-4-18l-10-42c0-2 0-2-19-2h-19v104M805 39l-2 10a1331 1331 0 0 1-12 84l-2 15-2 15a498 498 0 0 1-6 41 1502 1502 0 0 0-6 38c0 2 1 2 15 2h15l1-14 3-21 2-8h29v5a15366 15366 0 0 1 5 33l1 5h14l16-1v-9a330 330 0 0 1-7-46 712 712 0 0 0-9-62 38578 38578 0 0 0-12-86v-2l-22-1c-19 0-21 0-21 2m91 102v103h67v-29h-34l-1-89V37h-32v104M363 64l-4 4c-2 3-2 5-2 73 0 66 0 69 2 72 2 4 7 5 15 5 7-1 10-2 12-6V69c-1-4-6-6-14-6l-9 1m219 36v33h11c11 0 11-1 14-3l2-3V99c0-35 1-33-16-33h-11v34m242-10a758 758 0 0 1-9 69l-1 9v3h22l-1-5a870 870 0 0 0-8-68l-1-10c0-6-2-4-2 2M0 211v69h193V141H0v70m62 0v46h30v-12l-8-1h-8v-80H62v47m37 0v46h31v-13h-18v-28h18v-12h-17v-26l8-1h9v-13H99v47m-1 148 1 71h192V288H98v71m203 44 1 115h740V288H301v115m516-87-4 9h-15v159h54v-23h-29v-47h28v-22h-28v-45h29v-22h-9l-9-1 5-9 3-5 2-3h-23l-4 9m-662 43v46h12c18 0 23-2 26-12l1-35c0-28 0-31-2-35-4-9-9-11-26-11h-11v47m47 0v46h32v-13h-17v-28h16v-12h-16v-28h17v-12h-32v47m276-34c-7 3-10 5-13 12l-3 5-1 59 1 64c3 11 10 17 22 19 8 1 25 1 31-1s12-7 15-12l3-5v-61c0-54 0-61-2-65-2-6-8-13-14-15l-18-2c-13 0-16 0-21 2m-309 34v34h4c7-1 7-1 7-35v-30l-3-2-5-2h-3v35m175 46v79h21v-58a1837 1837 0 0 1 2-43 1495 1495 0 0 1 14 94l1 7h24l1-8a7043 7043 0 0 1 14-96l2-9v113h24V325h-36l-1 5-1 8-1 8a1383 1383 0 0 0-13 88l-2-8a296 296 0 0 0-4-32 1418 1418 0 0 0-8-64l-1-5h-36v80m206 0v79h22v-51l1-51 4 19a2461 2461 0 0 0 19 80v3h27V325h-22v46c0 49 0 50-4 33a189 189 0 0 0-5-21 1049 1049 0 0 0-12-55l-1-3h-29v80m83-69v11h21v137h25V347h22v-22h-68v11m79 69v79h25v-64h8c7 0 8 0 10 3l3 2v59h25v-27c0-31-1-38-5-43l-6-4c-2 0-3-3-1-3s6-5 9-9c1-3 2-6 2-29 0-25-1-26-3-30l-6-8c-6-5-11-6-37-6h-24v80m177-79-1 4-1 8a588 588 0 0 0-9 62 779 779 0 0 1-10 71l-2 10v3h23v-6a1140 1140 0 0 1 3-24l1-3 10-1 12 1 4 27v6h13c14 0 13 1 11-11a370 370 0 0 1-7-45 759 759 0 0 0-7-48 1775 1775 0 0 0-7-48l-1-7h-16l-16 1m68 79v79h52v-23h-27V325h-25v80m-466-60-3 2c-2 1-2 5-2 57v55l3 2 8 2c6 0 9-1 11-5l1-55v-53l-3-3c-2-3-4-3-8-3l-7 1m246 28v25h8c13 0 12 1 12-26 0-26 1-25-12-25h-8v26m166-8-1 10a614 614 0 0 0-5 47l-1 6h9c8 0 8 0 8-2l-1-8a823 823 0 0 0-9-53"/>
</svg>