<svg xmlns="http://www.w3.org/2000/svg" viewBox="0 0 529 141">
  <path fill="#fff2f2" fill-rule="evenodd" d="m76.4 17.5.1 11h127l-63.2-.2L77 28l-.4-10.8-.3-10.7v11m7.6.6v7l1.3-.3 1.2-.5.3-3.1.3-3.2h5l.3 3.3.3 3.2h2l.3-6.8.3-6.7H92v6h-5v-6h-3v7m19.4-5.6-.5 1.3.3 5.4.3 5.4 2.4.3 2.3.4 1.1-1.1 1.1-1.1H106v-4.9l2.3-.4 2.2-.4-2.3-.2-2.2-.1v-4h4v-2h-6l-.6 1.4m14.6 5.1v6.6l1.6.6 1.5.6 2.5-1.1L126 23v-3.9l-1-.6-1-.6 1.3-2 1.2-2-2-1.5-1.9-1.4H118v6.5m16 .5v7.3l4.2-.6 4.2-.6 1.3-1.7 1.3-1.8v-6.4l-1.5-1.2-1.4-1.2-4-.5-4.1-.6V18m21-5.2-2.3 1.9v6.6l2.2 1.9 2.3 1.8h3.9l2.4-2.5 2.5-2.4V15l-2-2-2-2h-4.8l-2.3 1.8m19.8-1.2-.7.7v7.2l.8-1.3.8-1.2 1.8 3.7 1.8 3.8 2.3-4.5 2.3-4.5.4 4.5.3 4.5 1-.3 1-.3-.3-5.7-.4-5.7-.8-.8-.8-.9-1.7 4.6-1.8 4.6h-1.2l-2-4.6-2-4.6-.8.8m24 .1-.5.8-2 5.5-2.2 5.4.5.4.5.5.6-1.7.6-1.6h4.6l.5 2 .5 2h2.2v-2.5l-2-5.5-2.2-5.5-.3-.3-.3-.3-.5.8M212 18v7.3l4.2-.6 4.2-.6 1.3-1.7 1.3-1.8v-6.4l-1.5-1.2-1.4-1.2-4-.5-4.1-.6V18m20.2-1.2-2.2 5.9v1.8l1-1.8 1.1-1.7h3.7l1.5 2.3 1.5 2.2.6-.6.6-.6-2-5.9-2-5.8-.9-.9-.8-.8-2.1 5.9M248 18v7h2V11h-2v7m11 0v7.2l1.2-.4 1.2-.4.6-2.4.5-2.3 1.3 2.7L265 25h3.1l-1.6-3-1.5-3 1.2-2 1.3-2-1.1-1.8-1.1-1.7-3.2-.3-3.1-.3V18m16.2-.3.3 6.8 2.7.2 2.8.2.5-1 .6-.9H278v-4.9l2.3-.4 2.2-.4-2.3-.2-2.2-.1v-4h4v-2h-7.1l.3 6.7M137 18v6.1l1.7-.3 1.7-.3 1.6-2.8 1.5-2.7-1.5-2.7-1.6-2.8-1.7-.3-1.7-.3V18m19.6-4.5-1.6 1.6v5.5l1.3 1.8 1.3 1.8 2-.4 1.9-.3 1-2.8.9-2.7-1-2.7-1-2.8-1.5-.3-1.7-.3-1.6 1.6M215 18v6.1l1.7-.3 1.7-.3 1.6-2.8 1.5-2.7-1.5-2.7-1.6-2.8-1.7-.3-1.7-.3V18M45.5 57.5v39l.2-19.8.3-19.8-.3-19.2-.2-19.2v39m19-9.5v25.5l.2-12.8.4-12.7-.4-12.8-.3-12.7V48m161.4-19.3 21.3.3 20.7-.3 20.7-.2h-84l21.3.2m27.6 23.8v14l.3-7.3.4-7.3-.4-6.7-.3-6.7v14"/>
  <path fill="#bf5558" fill-rule="evenodd" d="M77 17.5V28l63.8.2 63.7.3 41.8-.3L288 28V7H77v10.5m7 .6v7l1.3-.3 1.2-.5.3-3.1.3-3.2H92l.3 3.3.3 3.2h2l.3-6.8.3-6.7H92v6h-5v-6h-3v7m19.4-5.6-.5 1.3.3 5.4.3 5.4 2.4.3 2.3.4 1.1-1.1 1.1-1.1H106v-4.9l2.3-.4 2.2-.4-2.3-.2-2.2-.1v-4h4v-2h-6l-.6 1.4m14.6 5.1v6.6l1.6.6 1.5.6 2.5-1.1L126 23v-3.9l-1-.6-1-.6 1.3-2 1.2-2-2-1.5-1.9-1.4H118v6.5m16 .5v7.3l4.2-.6 4.2-.6 1.3-1.7 1.3-1.8v-6.4l-1.5-1.2-1.4-1.2-4-.5-4.1-.6V18m21-5.2-2.3 1.9v6.6l2.2 1.9 2.3 1.8h3.9l2.4-2.5 2.5-2.4V15l-2-2-2-2h-4.8l-2.3 1.8m19.8-1.2-.7.7v7.2l.8-1.3.8-1.2 1.8 3.7 1.8 3.8 2.3-4.5 2.3-4.5.4 4.5.3 4.5 1-.3 1-.3-.3-5.7-.4-5.7-.8-.8-.8-.9-1.7 4.6-1.8 4.6h-1.2l-2-4.6-2-4.6-.8.8m24 .1-.5.8-2 5.5-2.2 5.4.5.4.5.5.6-1.7.6-1.6h4.6l.5 2 .5 2h2.2v-2.5l-2-5.5-2.2-5.5-.3-.3-.3-.3-.5.8M212 18v7.3l4.2-.6 4.2-.6 1.3-1.7 1.3-1.8v-6.4l-1.5-1.2-1.4-1.2-4-.5-4.1-.6V18m20.2-1.2-2.2 5.9v1.8l1-1.8 1.1-1.7h3.7l1.5 2.3 1.5 2.2.6-.6.6-.6-2-5.9-2-5.8-.9-.9-.8-.8-2.1 5.9M248 18v7h2V11h-2v7m11 0v7.2l1.2-.4 1.2-.4.6-2.4.5-2.3 1.3 2.7L265 25h3.1l-1.6-3-1.5-3 1.2-2 1.3-2-1.1-1.8-1.1-1.7-3.2-.3-3.1-.3V18m16.2-.3.3 6.8 2.7.2 2.8.2.5-1 .6-.9H278v-4.9l2.3-.4 2.2-.4-2.3-.2-2.2-.1v-4h4v-2h-7.1l.3 6.7M137 18v6.1l1.7-.3 1.7-.3 1.6-2.8 1.5-2.7-1.5-2.7-1.6-2.8-1.7-.3-1.7-.3V18m19.6-4.5-1.6 1.6v5.5l1.3 1.8 1.3 1.8 2-.4 1.9-.3 1-2.8.9-2.7-1-2.7-1-2.8-1.5-.3-1.7-.3-1.6 1.6M215 18v6.1l1.7-.3 1.7-.3 1.6-2.8 1.5-2.7-1.5-2.7-1.6-2.8-1.7-.3-1.7-.3V18m25.4 47.5v28l.3-14.3.4-14.3-.4-13.7-.3-13.7v28m-16-9v18l.3-9.3.4-9.3-.4-8.7-.3-8.7v18m272 7.5v23.5l.3-11.8.4-11.7-.4-11.8-.3-11.7V64m-321-5v15.5l.3-7.8.4-7.7-.4-7.8-.3-7.7V59m141-1.5v12l.3-6.3.4-6.3-.4-5.7-.3-5.7v12M24 49.7l2.5.4v8.7l-.2 8.7.4-3.8.4-3.7H32v-2h-5v-7h4.9l.6-1 .6-1-5.8.1-5.8.2 2.5.4m217.3 52 6.7.4 6.8-.4 6.7-.3h-27l6.8.3m212 0 6.8.4 6.2-.4 6.2-.3h-26l6.8.3m29.5 0 8.3.4 7.7-.4 7.7-.3h-32l8.3.3M322.4 119v9.5l.4-4.1.3-4.1 3.2-1 3.2-1.1-3.2-.1-3.2-.1-.3-4.3-.4-4.2v9.5"/>
  <path fill="#282526" fill-rule="evenodd" d="M32 9.9v.8l5.2.5 5.2.5 1.8 2.3 1.8 2.2v85.3l-1 6.9-1 6.9-1.9 4-1.8 4.2-4.3 4.3-4.4 4.3-3 1.7-3.1 1.6 2.2.4 2.1.3 4.4-2.2 4.3-2.1 6-4.3 6.1-4.3 3.8-4.2 3.8-4.3 2.5-5.3L63 104l.5-5.2.5-5.3.2-39.3.2-39.4 2.4-1.9 2.3-1.9H76V9H32v.9m285.7 21.7-.7.7v22.4l-.7 21.2-.6 21.3-1.4 1.4-1.4 1.4h-7.1l-3.3-1.5-3.2-1.6-8-8.2-7.9-8.2-4.7-5.5-4.7-5.4 5-4.9 5.2-4.8 2-4.6 2-4.5-.6-3.2-.6-3.1-2-3.2-2-3.2-4.2-2.3-4.3-2.3-34.5-.2-34.5-.2 3.5 1 3.5 1 1.3 1.2 1.3 1-.3 24.1-.3 24.1-1.8 3.3L211 92l-4.1 2.8-4.2 2.7h-14.1l-3.7-2.3-3.7-2.3-2-3.3-2.1-3.4-1-7.3-1-7.4.1-13v-13l.7-5 .7-5 4-1.1 4-1.2h-33l4 1 3.8.8 1.3 1 1.2 1 .4 22.8.3 22.7 2.3 5 2.3 5 2.2 2.3 2.2 2.4 3.6 1.8 3.5 1.8 6.5 1.2 6.4 1.2 5.7-.7 5.8-.6 3.2-1.1 3.3-1.1 4-2.8 4-2.7 3-5.4 3-5.3.5-23.2.5-23.2 1.3-1.3 1.3-1.3h11.1l1.4 2 1.5 2-.3 29.1-.3 29.1-1.4 1.6-1.3 1.7h-6.1l.5.6.6.5h30.4l.6-.5.5-.6h-6.9l-1.9-1.4-1.9-1.4-.4-12-.4-12.2h11.7l3.5 4.7 3.5 4.7 5.9 7.3 5.8 7.4 4.2 2.1 4.1 2.1H313l21.3-.2.6-.5.5-.6H329l-2-2-1.8-1.8-.6-5.4-.6-5.3-.3-16.8-.3-16.7h.9l13.1 12.8 13.2 12.7 13 11.6 12.9 11.6 2.2 1.2 2.2 1.1.4-.7.5-.8.7-31.5.7-31.5 1-1.7.8-1.8 3.3-.9 3.2-1-13.5.1h-13.5l2 .5 2 .4 2.7 1 2.8 1.1.4 3.2.5 3.1.6 20.9.6 20.9-3.7-3.3-3.7-3.2-24.4-23.1-24.4-23.2-.8-.3-.7-.2-.7.6m108 6.6-3.3 7.3-11 24.4-10.9 24.3-2.7 3-2.6 2.8h-6.5l.5.6.6.5h22.7l1.5-.2 1.5-.2-3.5-.6-3.5-.6-.3-2.2-.3-2.1 3.1-7.4 3.1-7.3.9-.9.9-.9H440l.3.4.4.4 3.6 8.8 3.7 8.9v2.6l-1.3.5-1.2.5h27l-2-.5-2-.4-2.7-1-2.8-1.1-1.9-3.2-2-3.1-11-24.5-11-24.5-2.6-5.8L432 31h-3l-3.4 7.3M94.8 34.4l-6.6 2.4-3 2-3 2.2-3.2 3.7-3.3 3.7-2.6 5.6-2.6 5.5.1 8v8l2.2 4.8 2.2 4.9 3 3.8 3 3.8 4.8 3 4.7 3 5 1.5 5 1.5 5.6.7 5.5.6 7-1 6.9-1.2 6.2-2.8 6.1-2.9 4-4L146 87l2.7-5.3 2.8-5.3.4-9 .4-9-2-5.5-2.2-5.5-3.7-3.8-3.6-3.8-4.1-2.4-4.1-2.4-6-1.5-6-1.6h-19l-6.7 2.4m382.2-.2 3.5 1 1.3 1 1.2 1v59.3l-.9 1.3-.8 1.4-3.4.8-3.4.8 11 .1 11.2.1 13.4.6 13.5.7 1.6-1.7L527 99l.6-5.5.7-5.6-.5-.6-.6-.5-1.5 3.5-1.4 3.5-2.4 1.3-2.3 1.4-8.7-.1h-8.7l-2.4-1.7-2.4-1.6-.7-4.7-.6-4.7.1-21 .1-21.2.7-3 .6-3 4.5-1.2 4.5-1.1h-33l3.5 1M99.5 37.6l-4 1.4-2.8 2.8-2.9 2.7-2.1 4-2.2 4v22l2 5 1.8 5 4.5 4.7 4.4 4.7 5.4 2 5.5 2.1h11.4l4-1.9 4.1-1.8 3.1-3.8 3-3.7 1.7-5.7 1.6-5.7V63.3l-2-6.8-2.2-6.8-5.2-5.3-5.3-5.2-5.3-1.6-5.4-1.6h-4.5l-4.6.1-4 1.5m154.3 0-.8.7V67l2.8 1.1 2.7 1 4.8-.4 4.7-.4 2.1-1.9 2.1-1.9 1.5-2.9 1.5-2.8V48l-1.8-3.2-1.9-3.2-2.6-2-2.6-1.9-5.9-.5-5.9-.5-.8.8M6.6 57.8v11.8l6.3.2 6.2.3v-2l-3.9.6-3.9.5-1.2-2.1L9 64.9l.3-9.5.3-9.4h-3v11.8m416 2.4-4.7 11.3-.5 1.3-.5 1.2H438v-.6l-4.8-11.7-4.9-11.7-.5-.5-.5-.6-4.8 11.3M23.8 60l-.3 9.8 5.1.2 5.2.1.6-1.7.7-1.8-1.2 1.3-1.3 1.2H27l-.5-2.3-.5-2.2.3-7.3.2-7.2h-2.4l-.3 9.9m329.6 49-4 1.9-1.7 4-1.7 4.1.6 3 .6 3 2 2.1 2 2.2 3.4 1.4 3.3 1.4h8.6l1.2-.8 1.1-.7.8-3 .7-3-2.6 2.8-2.6 2.7h-5.2l-2.2-1.1-2.1-1.2-1.8-2.1-1.7-2.1v-5l-.1-5.2 1.8-1.6 1.8-1.7 3-.6 2.9-.5 2.8 1 2.8 1 .9 2.3.9 2.3.1-.5.2-.5.1-3.2.2-3.1-2.9-.6-2.9-.6h-6.2l-4 1.9m24-.8-5 .6 1.8.1 1.7.2V130l-1.8 1-1.7 1h5.8l5.7.1v-2h-3v-10h12v9.6l-1.1 1.1-1.1 1.1 9.6.1h9.6v-1.8l-1.1-.3-1.2-.4 1-2.8.9-2.9 3.7-.4 3.7-.4 1.1 2.8 1.2 2.8-.1 1.8v1.7h17.2l-1.9-1.5-1.9-1.4 1-6.3.9-6.3 4 8 4.1 8 4-8 4-7.8.6 1 .7 1 .4 6.4.4 6.4 4.1.3 4.1.3V130H458l-.5-1.8-.5-1.7-1.2-8.5-1.2-8.5-.8-1.4-.7-1.5-4.7 9.5-4.8 9.4-4.6-9.3-4.6-9.2h-1.2l-1.8 11.6-1.7 11.5-2.7-.3-2.6-.3-4.6-10.8-4.6-10.8-.8-.2-.8-.2-4.3 10.4-4.4 10.4-1 1.2-1 1.2-2.5-.5-2.5-.4V109h3.1l-.4-.8-.5-.7-5.4.4-5.3.4 1.8.4 1.7.4v8.9h-12v-8.9l1.8-.3 1.7-.3-1-.6-1-.5-5 .7m113-.1-5 .5 1.8.7 1.7.7v19.4l-1.7 1.3-1.8 1.2 8.5-.1 8.5-.2.3-2.8.3-2.8-2 2-2.1 2.1h-2.1l-2-1-1.9-1v-18l2.2-.9 2.1-.8-.9-.4-.9-.5-5 .6m13.5 0-4.5.5 2.1.6 2.2.7 3.6 5.6 3.6 5.6v8.9l-1.7 1-1.8 1H519V130l-1.3.3-1.2.2-.3-4.8-.3-4.8 2.5-4.4 2.6-4.4 2.5-2 2.5-1.9v-.8l-4 .4-3.9.4.5 1.3.5 1.2-2.1 3.7-2.2 3.6h-1.4l-2.3-4-2.2-4 .6-1 .5-.9-.7-.3-.8-.4-4.5.6m-39.8.7 1.8.4V130l-1.6.9-1.6.9h6.4l6.5.2 3.2-2 3.1-1.9v-6.2l-2.4-2-2.4-2.2 1.5-2.3 1.5-2.3-1.6-2.5-1.6-2.5-7.3.1-7.2.1 1.8.5M291 119.4V130h3.5l-.3-10-.3-10h8.7l2.3 1.6 2.3 1.7 1.5 3.4 1.4 3.5-1.1 3.4-1.2 3.4-2.6 1.5-2.7 1.4h1.8l1.9.1 2.9-3.1 2.9-3.1v-8.4l-3-3-3.1-2.9-7.4-.3-7.5-.4v10.6m28.5.1V130h4.7l-1-1.3-1-1.2v-17.7l3.9.4 3.9.4V109h-10.5v10.5m151.5-6v4.5h1.1l2-1 1.9-1v-3.7l-1.8-1.6-1.9-1.7H471v4.5m-58.8 3.7-1.2 3.4v.9l2.5.1 2.5.2v-2.3l-1.3-2.8-1.2-2.9-1.3 3.4M471 124v5l1.6.7 1.7.6 1.6-1 1.6-1 .3-2.1.3-2.2-2.5-2.5-2.5-2.5H471v5"/>
</svg>