<svg xmlns="http://www.w3.org/2000/svg" viewBox="0 0 952 474">
	<path fill="#fff" fill-rule="evenodd" d="M369 33c-12 3-21 11-23 23l-1 74 1 69 2 5c3 6 8 11 15 14 4 2 6 3 25 3h20l6-4c5-2 8-4 10-7 6-10 6-7 6-85V55l-3-5c-4-10-11-15-22-17h-36m411 1a6008 6008 0 0 0-27 185l14 1h13v-4a727 727 0 0 0 5-33v-3h13l12 1a323 323 0 0 1 6 36v3h29v-4a28600 28600 0 0 1-27-181c-1-2-1-2-19-2l-19 1M281 46v12h16v63l-1 66c-2 5-5 6-16 6h-9v27h15c12-1 17-1 21-3 8-3 12-7 16-14l3-5V34h-45v12m168 70c1 91 0 86 8 95 7 8 15 10 38 10 19-1 23-2 30-10 8-9 8-6 8-97V34h-29v156l-3 3c-3 2-4 2-10 2s-7 0-10-2l-2-3V34h-30v82m103 11v93h29v-37l1-37h17c6 2 6 4 6 40v34h30v-36c0-37-1-40-5-45l-6-5c-4-2-4-2-2-3 4-2 8-8 10-13s2-8 2-32c0-30 0-32-6-41-2-3-5-5-10-7l-6-3-30-1h-30v93m101-1v93l13 1h13V103l28 115c0 2 0 2 16 2h16V34h-27v107l-9-36-12-54-4-17h-34v92m206 1v93h61v-27h-32V34h-29v93M379 59c-5 3-5 5-5 70l1 61 2 3c3 2 4 2 11 2 9 0 11-1 13-6V63l-3-3c-3-2-4-2-10-2l-9 1m202 2v30l1 29h6l10-1c7-2 7-4 7-30V66l-3-3c-3-3-3-3-11-3l-10 1m216 19-8 70-1 4h9l10-1a2610 2610 0 0 0-10-73M72 174v54h35v-15H89v-93H72v54m42 0v54h38v-15h-20l-1-16v-16h20v-16h-20v-15l1-14 10-1h10v-15h-38v54m517 118-4 8h-13v142h49v-21h-26l-1-21v-20h26v-20l-13-1h-13v-38h27v-20l-8-1h-8l4-7 5-8-10-1h-11l-4 8m-342 39v44h13c14-1 17-2 21-7 2-3 3-4 3-36 0-33-1-34-3-37-4-5-7-6-21-7h-13v43m44-42v44l1 42h30v-13h-17v-25h16v-12l-8-1h-8v-23h17v-12l-15-1-16 1m147 11c-10 2-16 9-18 17v57l1 53 2 4c4 6 11 10 21 11 7 0 8 1 20 8l13 7 10-15-7-3-6-3 3-4c7-6 7-8 7-62s0-57-6-63c-4-6-10-7-24-8l-16 1m345 0c-7 2-12 5-15 12l-2 6v106l2 5c5 10 13 14 33 13 15-1 21-4 25-13 2-4 3-7 3-25v-21h-21v18c0 18-1 18-3 20-4 3-12 3-16 0l-2-3v-95l2-3c4-3 11-3 15 0l3 2v32h21v-18c0-20-1-23-5-29-4-5-10-7-23-8l-17 1m-521 1-1 31v31h3c6-2 6-1 6-31l-1-30c-2-1-6-2-7-1m234 0a1977 1977 0 0 0 2 128c5 10 11 13 30 13 13 0 14-1 19-3 5-3 7-4 9-8l3-4V300h-21v119l-3 2c-3 3-12 3-15 0l-2-3V300h-11l-11 1m137 0-1 70 1 70h21c18 0 22-1 26-2 6-2 11-8 13-14l1-23c0-24-1-27-8-31l-3-2 2-2 3-2 3-4c2-4 3-6 3-22 0-14 0-18-2-23-1-6-6-12-13-14-4-2-45-3-46-1m74 0-1 70v70h48v-20h-26v-42h25v-19l-13-1h-12v-39h26v-19l-24-1-23 1m-263 19-2 2v97l2 2c3 3 13 3 16 0 2-2 2-3 2-50v-49l-3-2c-3-3-12-3-15 0m210 20v20h6c5 0 7 0 9-2l3-2v-16l-1-18c-1-2-5-3-11-3h-6v21m1 39-1 22v21h7c5 0 7 0 9-2s3-2 3-17c0-19-1-23-6-24h-12m-149 95"/>
	<path fill="#e30635" fill-rule="evenodd" d="M239 127v126h356l357-1V1H239v126m130-94c-12 3-21 11-23 23l-1 74 1 69 2 5c3 6 8 11 15 14 4 2 6 3 25 3h20l6-4c5-2 8-4 10-7 6-10 6-7 6-85V55l-3-5c-4-10-11-15-22-17h-36m411 1a6008 6008 0 0 0-27 185l14 1h13v-4a727 727 0 0 0 5-33v-3h13l12 1a323 323 0 0 1 6 36v3h29v-4a28600 28600 0 0 1-27-181c-1-2-1-2-19-2l-19 1M281 46v12h16v63l-1 66c-2 5-5 6-16 6h-9v27h15c12-1 17-1 21-3 8-3 12-7 16-14l3-5V34h-45v12m168 70c1 91 0 86 8 95 7 8 15 10 38 10 19-1 23-2 30-10 8-9 8-6 8-97V34h-29v156l-3 3c-3 2-4 2-10 2s-7 0-10-2l-2-3V34h-30v82m103 11v93h29v-37l1-37h17c6 2 6 4 6 40v34h30v-36c0-37-1-40-5-45l-6-5c-4-2-4-2-2-3 4-2 8-8 10-13s2-8 2-32c0-30 0-32-6-41-2-3-5-5-10-7l-6-3-30-1h-30v93m101-1v93l13 1h13V103l28 115c0 2 0 2 16 2h16V34h-27v107l-9-36-12-54-4-17h-34v92m206 1v93h61v-27h-32V34h-29v93M379 59c-5 3-5 5-5 70l1 61 2 3c3 2 4 2 11 2 9 0 11-1 13-6V63l-3-3c-3-2-4-2-10-2l-9 1m202 2v30l1 29h6l10-1c7-2 7-4 7-30V66l-3-3c-3-3-3-3-11-3l-10 1m216 19-8 70-1 4h9l10-1a2610 2610 0 0 0-10-73M1 174v79h222V95H1v79m71 0v54h35v-15H89v-93H72v54m42 0v54h38v-15h-20l-1-16v-16h20v-16h-20v-15l1-14 10-1h10v-15h-38v54m125 95v64l1 62h174V269l-87-1-88 1m191 101v103h473V269l-237-1H430v102m201-78-4 8h-13v142h49v-21h-26l-1-21v-20h26v-20l-13-1h-13v-38h27v-20l-8-1h-8l4-7 5-8-10-1h-11l-4 8m-342 39v44h13c14-1 17-2 21-7 2-3 3-4 3-36 0-33-1-34-3-37-4-5-7-6-21-7h-13v43m44-42v44l1 42h30v-13h-17v-25h16v-12l-8-1h-8v-23h17v-12l-15-1-16 1m147 11c-10 2-16 9-18 17v57l1 53 2 4c4 6 11 10 21 11 7 0 8 1 20 8l13 7 10-15-7-3-6-3 3-4c7-6 7-8 7-62s0-57-6-63c-4-6-10-7-24-8l-16 1m345 0c-7 2-12 5-15 12l-2 6v106l2 5c5 10 13 14 33 13 15-1 21-4 25-13 2-4 3-7 3-25v-21h-21v18c0 18-1 18-3 20-4 3-12 3-16 0l-2-3v-95l2-3c4-3 11-3 15 0l3 2v32h21v-18c0-20-1-23-5-29-4-5-10-7-23-8l-17 1m-521 1-1 31v31h3c6-2 6-1 6-31l-1-30c-2-1-6-2-7-1m234 0a1977 1977 0 0 0 2 128c5 10 11 13 30 13 13 0 14-1 19-3 5-3 7-4 9-8l3-4V300h-21v119l-3 2c-3 3-12 3-15 0l-2-3V300h-11l-11 1m137 0-1 70 1 70h21c18 0 22-1 26-2 6-2 11-8 13-14l1-23c0-24-1-27-8-31l-3-2 2-2 3-2 3-4c2-4 3-6 3-22 0-14 0-18-2-23-1-6-6-12-13-14-4-2-45-3-46-1m74 0-1 70v70h48v-20h-26v-42h25v-19l-13-1h-12v-39h26v-19l-24-1-23 1m-263 19-2 2v97l2 2c3 3 13 3 16 0 2-2 2-3 2-50v-49l-3-2c-3-3-12-3-15 0m210 20v20h6c5 0 7 0 9-2l3-2v-16l-1-18c-1-2-5-3-11-3h-6v21m1 39-1 22v21h7c5 0 7 0 9-2s3-2 3-17c0-19-1-23-6-24h-12"/>
</svg>