<svg xmlns="http://www.w3.org/2000/svg" viewBox="44 168 413 164">
  <path fill="#3c6b5a" fill-rule="evenodd" d="M110 226c0 60 0 68-4 73-3 5-9 7-18 7-8 0-13-2-16-6-4-4-5-9-5-20v-9H44v13c0 25 5 36 21 43 14 7 32 7 47 0 5-3 14-11 17-17 5-10 5-13 5-79l1-62-13-1h-12v58m60 22v80h35c40 0 45-1 57-7s23-18 30-34c4-12 6-21 7-36 0-17-1-26-5-38-6-20-21-35-40-42-7-2-8-2-46-3h-38v80m148-78 29 80 29 78h23l11-29a37474 37474 0 0 1 47-130l-14-1h-14l-20 63-22 62-21-63-21-61-13-1h-14v2m-122 25-1 54v53h20l27-1c15-3 24-13 30-32 2-8 2-32 0-41-5-21-16-31-35-33h-41"/>
</svg>