<svg xmlns="http://www.w3.org/2000/svg" viewBox="26 25 1765 630">
  <path fill="#007ec6" fill-rule="evenodd" d="M90 78v52h32V25H90v53m390 3-25 9a477 477 0 0 1-161 33h-36l-2 2c-2 3-2 8 1 10l2 2 17 2 24 2c9 3 19 8 27 13 8 7 22 21 28 30a1311 1311 0 0 1 78 162v5l-5 10c-14 27-53 68-75 79a291 291 0 0 1-55 15c-5 2-5 7 0 11 2 2 9 1 36-3l24-3h29l31-1c4-2 3-8-1-9a186 186 0 0 0-22-5c-3-1 1-8 23-37 16-21 20-25 25-26 7-1 11 4 23 28 12 23 17 39 16 45-2 6-12 10-34 16-21 5-25 8-25 17v4l3 3 3 3h8l8-1 19-7c53-21 61-22 116-22 44 0 51-1 50-10v-3l-4-2c-2-1-13-4-24-5l-27-6c-13-4-24-13-31-25l-15-35c-22-57-29-79-28-91 2-11 7-21 32-52 25-32 34-43 47-50 15-9 24-11 51-13 17-2 19-3 25-9l4-4v-4c-1-5-3-6-13-6l-14-2c-9-1-22-5-22-6l11 1 17 2h8l2-2c2-3 4-8 4-12h-8c-6 0-8 0-6-1s5-4 6-7v-3h-16l-31-2-35-1h-18l-8 2c-16 4-30 14-41 27-3 4-4 6-4 9 0 6 4 8 20 11 23 4 32 14 24 29-3 7-9 15-23 34-19 23-26 32-27 31a425 425 0 0 1-40-100l-2-10v-30l2-6c6-11 15-17 36-23 11-3 13-5 12-10-1-4-6-5-14-3"/>
  <path fill="#0a2138" fill-rule="evenodd" d="M26 109v84h91v-52H79V25H26v84m106-25v58h112l-1-2c-4-11-1-23 9-28l4-2h35c39-1 47-1 77-8 22-4 43-10 63-17l17-6V25H132v59m572 103c-28 3-53 17-68 37l-2 3v-38h-9c-27 2-44 11-61 32l-7 8v183l3 4c2 4 8 8 14 11 4 3 12 4 31 8 19 3 25 4 30 8 8 5 11 16 6 25-2 5-7 8-13 11l-5 1-33 1-32 1-1 86v87h83V508l6 6c19 20 49 29 81 26 16-1 26-4 38-10 31-15 48-46 53-93l1-81-1-69-2-12c-9-49-34-78-75-86-12-2-27-3-37-2m133 175v175h81v-99l1-108c4-32 19-51 45-59 6-2 11-2 24-3h16v-80h-7c-9-1-24 1-35 4-22 6-40 21-47 39l-2 5v-50h-76v176m182-135 1 41h216v-81h-217v40m340-38c-22 3-37 7-50 14-11 5-17 9-25 17a93 93 0 0 0-24 44l-2 9v16c0 18 0 24 5 36 8 21 26 39 53 51 12 6 24 10 52 19 35 11 47 16 55 24 7 6 8 11 8 20s-2 15-8 22c-14 14-45 18-67 9-14-7-25-25-25-43v-6h-82v10c4 61 41 100 104 111 21 3 51 2 74-2 45-9 74-33 84-71l2-9v-19l1-18-2-7c-8-28-27-48-59-62-10-5-18-7-63-22l-27-10c-21-10-29-25-24-42 2-8 10-16 18-19 9-3 19-4 30-4 16 2 25 5 33 14 6 6 9 13 10 26l1 9h80l-1-8c-1-21-4-34-10-48-5-11-10-19-18-28-15-15-34-25-61-31l-12-2h-50m273 0c-60 8-95 42-98 94-1 20 3 40 12 55 6 9 18 21 29 28 16 11 30 16 71 29 42 13 53 19 60 31l3 5-1 8v9l-2 5c-8 14-24 22-45 22s-37-8-46-22c-4-6-7-19-7-27v-5h-82v10c4 46 25 79 62 97 31 16 72 20 115 12 47-9 76-33 86-73l2-23v-16l-1-8c-5-22-15-38-33-51-15-11-34-19-72-31-29-9-37-12-47-17s-17-12-20-18l-3-5v-8l2-14c7-14 26-21 50-18 6 0 13 2 16 3 15 5 23 18 25 37v8h80v-10c-3-34-13-58-32-77-16-14-35-23-63-29-10-1-51-2-61-1M132 280v49h281l-1-2-23-49-23-47H132v49m547-21c-9 1-20 7-26 13-5 6-8 12-11 22l-2 7-1 59v60l2 8c5 26 21 40 47 40 24 0 41-14 47-39l2-7V306l-2-8c-6-24-20-38-43-39h-13m340 104v33h198v-67h-198v34M132 479v58h316v-27l-4 1c-8 1-16 0-21-2-12-5-17-19-11-32l1-3-10-1h-40l-30 4-30 4-5-1c-13-3-20-16-15-27 4-9 10-12 23-14 19-3 42-10 49-16l4-3H132v59m288-52-5 8 5 2c6 2 9 4 12 10 2 3 2 5 2 9v5l7-2 7-2v-37h-22l-6 7m599 71v40h217v-80h-217v40"/>
</svg>