<svg xmlns="http://www.w3.org/2000/svg" viewBox="0 0 970 375">
  <path fill="#fff" fill-rule="evenodd" d="M111 69c-2 2 0 3 11 4 9 1 11 1 12 3 2 2 2 7 2 82 0 62-1 80-2 83-2 6-7 11-11 11-6 0-7-2-3-8 6-9 6-18 1-24-3-4-7-6-14-6-11 0-18 8-18 19 0 22 28 31 54 17 15-7 29-22 32-32 2-6 3-39 3-91l1-52c1-2 7-3 14-3 6 0 9-1 5-4l-44-1c-36 0-42 0-43 2m587 25h9l-4-1-5 1m60 29c0 5 1 7 1 4v-8c0-3-1-1-1 4m-58 29h9l-4-1-5 1m-309 51c0 3 0 4 1 3v-6c-1-1-1 0-1 3m538 27"/>
  <path fill="#d6282f" fill-rule="evenodd" d="M38 2c-9 3-15 11-16 20A5817 5817 0 0 0 5 215c-4 44-5 60-4 63 2 9 9 16 18 18a3413 3413 0 0 0 186 17 595 595 0 0 1-29 61l94-55 2-31a195208 195208 0 0 0 21-243c0-6-2-12-6-16-8-9 0-8-127-19A34222 34222 0 0 0 38 2m327 64c-13 2-26 11-32 23-8 16-8 41-1 57 2 5 10 13 16 16l16 8c18 7 19 8 22 10 4 4 5 9 5 23 0 15-1 20-5 24-4 3-9 4-17 4-10-1-14-7-15-19v-8h-28v9a45 45 0 0 0 43 46c16 1 28-3 37-12s13-22 13-45c0-22-2-32-11-40-4-5-11-9-27-15-25-10-25-11-25-28 0-11 0-13 2-17 3-6 10-10 18-8 9 1 15 8 16 21v8l14-1h14v-7c1-22-10-39-30-47-7-2-17-3-25-2m110 0-13 4c-11 6-18 14-22 26-2 6-2 7-3 61 0 60 0 67 5 77 12 26 48 33 72 14 6-4 11-12 13-20 2-6 2-9 2-65l-1-65c-5-16-19-29-37-32h-16m339 0c-17 3-31 16-35 33l-1 67c0 59 1 61 3 66 4 12 12 20 24 24 4 2 8 2 17 2 11 0 12 0 19-3 17-9 26-24 26-45v-7h-28v8c0 5-1 9-3 12-5 10-22 11-27 1-2-3-2-5-2-61s0-58 2-61c2-6 6-8 12-8 11 0 17 6 18 20v8h28v-11c-1-11-3-19-8-26-6-10-17-17-29-19h-16m-703 3c-2 2 0 3 11 4 9 1 11 1 12 3 2 2 2 7 2 82 0 62-1 80-2 83-2 6-7 11-11 11-6 0-7-2-3-8 6-9 6-18 1-24-3-4-7-6-14-6-11 0-18 8-18 19 0 22 28 31 54 17 15-7 29-22 32-32 2-6 3-39 3-91l1-52c1-2 7-3 14-3 6 0 9-1 5-4l-44-1c-36 0-42 0-43 2m442-1v153c2 13 11 27 23 33 15 8 34 6 47-4 7-4 12-12 15-19l3-5V67h-28v154l-3 3c-7 10-21 9-27-1l-2-4-1-76V67h-13l-14 1m113 95v95h28v-81h16l12 40 13 41h14l15-1-28-82-1-4 4-3c9-6 15-15 18-27 2-8 1-35-1-42-4-13-11-22-20-26-10-5-15-6-44-6h-26v96m222 0v95h82v-28h-54v-55h47v-27h-47V93h54V67h-82v96M478 94c-6 2-9 5-11 9a1438 1438 0 0 0-2 110c2 11 7 17 17 18 6 0 13-3 16-7 2-3 3-4 3-61s0-57-2-61c-4-7-14-10-21-8m216 28v30h8c13 0 18-1 22-6 5-4 6-10 6-27 0-11-1-13-3-17-4-6-9-8-22-9h-11v29"/>
</svg>