<svg xmlns="http://www.w3.org/2000/svg" viewBox="5 5 200 63">
  <path fill="#ed1c24" d="M5 5h200v63H5Z"/>
  <path fill="#fff" d="M59 44V34c0-5-3-8-8-8-6 0-9 3-9 8v2h7v-2l2-1 1 1v1c0 2-1 3-4 4-5 2-7 4-7 9 0 4 2 7 7 7 2 0 4-1 4-3l1 2h7l-1-10m-7 2c0 2-1 3-2 3l-2-2 2-4 2-1v4zm18-20c-5 0-8 3-8 8v13c0 5 3 8 8 8 6 0 9-3 9-8v-2h-7v2l-2 1-1-1V35l1-2c1 0 2 0 2 2v1h7v-2c0-5-3-8-9-8m13 1h-2v6h2v13c0 7 3 9 11 8v-6c-2 0-4 0-4-3V33h4v-6h-4v-9h-7zm77 0h-2v6h2v13c0 7 3 9 11 8v-6c-2 0-4 0-4-3V33h4v-6h-4v-9h-7zm-53 20-1 1-2-1V27h-7v20c0 5 2 8 7 8l4-2v1h7V27h-8zm28-3V34c0-5-3-8-8-8-6 0-9 3-9 8v2h7v-2l2-1 1 1v1c0 2-1 3-4 4-5 2-7 4-7 9 0 4 3 7 7 7 2 0 4-1 5-3v2h7l-1-10m-7 2c0 2-1 3-2 3l-2-2c0-2 1-3 3-4l1-1v4zm10-28h7v36h-7zm10 0h8v7h-8zm0 9h8v27h-8zm31-3h5l6-6h-8zm4 2c-6 0-9 3-9 8v13c0 5 3 8 9 8 5 0 9-3 9-8v-2h-8v2l-1 1-2-1v-5h11v-8c0-5-4-8-9-8m1 12h-3v-3c0-2 1-2 2-2l1 2v3zM33 18v7h3c0 3-1 4-3 4v3c4 0 7-2 7-7v-7zM18 54h15v-6h-7V18h-8Z"/>
</svg>