<svg xmlns="http://www.w3.org/2000/svg" viewBox="0 0 4168 1250">
  <path fill="#fff" fill-rule="evenodd" d="M2949 318c-22 1-50 8-68 15-40 14-73 41-92 73a163 163 0 0 0 44 219c19 15 47 29 85 46 70 29 93 48 93 80 0 14-4 25-13 33-17 16-46 21-89 13-39-6-83-23-116-46l-6-4-1 3a15454 15454 0 0 0-54 116 426 426 0 0 0 180 65 391 391 0 0 0 72 0c15-2 39-8 55-15 57-22 97-67 111-125 5-19 6-50 4-71-4-35-18-64-42-89-25-25-55-43-115-69-46-19-63-29-75-40a45 45 0 0 1-14-37c2-36 50-53 107-37a311 311 0 0 1 75 32l54-116a320 320 0 0 0-195-46m440 0c-20 2-43 7-61 13-13 5-37 17-48 25-14 10-34 30-43 44-20 29-28 59-27 95 1 68 37 119 110 156l37 17c75 31 98 51 98 83 0 25-15 42-41 48-11 2-37 2-54 0-42-6-88-24-123-48l-6-4-5 10a2358 2358 0 0 0-50 109 432 432 0 0 0 168 64 373 373 0 0 0 94-1l40-11a178 178 0 0 0 120-172c0-28-1-38-7-57-16-50-60-88-139-122-56-23-73-33-86-45a45 45 0 0 1-10-51c8-18 28-27 59-29 26-1 56 7 93 24a333 333 0 0 1 26 14l8-15a7281 7281 0 0 1 46-101l-18-10a328 328 0 0 0-181-36m-1923 4a485 485 0 0 1-52 3 3412 3412 0 0 0-92 8l-1 296 1 295h141V747l36 1c38 0 50-1 74-5 46-8 85-25 115-52 33-28 55-69 62-116a324 324 0 0 0 3-57c-3-44-22-88-52-119-43-45-107-71-187-76l-48-1m476 0a488 488 0 0 1-58 2l-13 1a1075 1075 0 0 0-74 7l-4 1-1 294 1 296 71 1h70V730l35 1 36 1a330 330 0 0 1 21 40 16075 16075 0 0 1 81 151h159l-16-28a1568705 1568705 0 0 0-116-197l7-5c27-18 50-44 65-75 20-41 27-93 17-141-15-75-71-126-162-146a408 408 0 0 0-119-9m364 5-1 299 1 298h376l2-1V794h-237V683h212V559l-106-1h-106V457h237V326h-188l-190 1m1346 0-1 299 1 298h378V793h-236l-1-55v-55h211V559l-105-1h-106V457h237V326h-188l-190 1m-2860 9a687 687 0 0 1-21 45 29275 29275 0 0 1-149 320 41127 41127 0 0 0-103 221l-5 11h145l13-30 22-54 9-23h101l100 1 17 41 22 53 5 12h148a618 618 0 0 0-19-41 27203 27203 0 0 0-156-335 33438 33438 0 0 1-96-207l-9-18-11-1h-11l-2 5M138 635v298h318l15-34a25353 25353 0 0 1 34-73l11-22-118-1H280V336H138v299m1812-185-14 1-2 1v163h3l6 1h54c48-5 79-30 86-70 4-22 1-43-8-59-12-20-34-33-64-38-11-1-46-1-61 1m-447 4h-13l-25 3h-2v168h3c11 2 55 2 66 0 34-5 58-19 70-41 5-8 9-21 10-33 4-37-9-67-38-84-15-8-30-12-54-13h-17M795 586a25275 25275 0 0 1-54 136l62 1h63l-1-2a7518 7518 0 0 0-61-157l-9 22"/>
  <path fill="#ec1c24" fill-rule="evenodd" d="M0 625v625h4169V0H0v625m2949-307c-22 1-50 8-68 15-40 14-73 41-92 73a163 163 0 0 0 44 219c19 15 47 29 85 46 70 29 93 48 93 80 0 14-4 25-13 33-17 16-46 21-89 13-39-6-83-23-116-46l-6-4-1 3a15454 15454 0 0 0-54 116 426 426 0 0 0 180 65 391 391 0 0 0 72 0c15-2 39-8 55-15 57-22 97-67 111-125 5-19 6-50 4-71-4-35-18-64-42-89-25-25-55-43-115-69-46-19-63-29-75-40a45 45 0 0 1-14-37c2-36 50-53 107-37a311 311 0 0 1 75 32l54-116a320 320 0 0 0-195-46m440 0c-20 2-43 7-61 13-13 5-37 17-48 25-14 10-34 30-43 44-20 29-28 59-27 95 1 68 37 119 110 156l37 17c75 31 98 51 98 83 0 25-15 42-41 48-11 2-37 2-54 0-42-6-88-24-123-48l-6-4-5 10a2358 2358 0 0 0-50 109 432 432 0 0 0 168 64 373 373 0 0 0 94-1l40-11a178 178 0 0 0 120-172c0-28-1-38-7-57-16-50-60-88-139-122-56-23-73-33-86-45a45 45 0 0 1-10-51c8-18 28-27 59-29 26-1 56 7 93 24a333 333 0 0 1 26 14l8-15a7281 7281 0 0 1 46-101l-18-10a328 328 0 0 0-181-36m-1923 4a485 485 0 0 1-52 3 3412 3412 0 0 0-92 8l-1 296 1 295h141V747l36 1c38 0 50-1 74-5 46-8 85-25 115-52 33-28 55-69 62-116a324 324 0 0 0 3-57c-3-44-22-88-52-119-43-45-107-71-187-76l-48-1m476 0a488 488 0 0 1-58 2l-13 1a1075 1075 0 0 0-74 7l-4 1-1 294 1 296 71 1h70V730l35 1 36 1a330 330 0 0 1 21 40 16075 16075 0 0 1 81 151h159l-16-28a1568705 1568705 0 0 0-116-197l7-5c27-18 50-44 65-75 20-41 27-93 17-141-15-75-71-126-162-146a408 408 0 0 0-119-9m364 5-1 299 1 298h376l2-1V794h-237V683h212V559l-106-1h-106V457h237V326h-188l-190 1m1346 0-1 299 1 298h378V793h-236l-1-55v-55h211V559l-105-1h-106V457h237V326h-188l-190 1m-2860 9a687 687 0 0 1-21 45 29275 29275 0 0 1-149 320 41127 41127 0 0 0-103 221l-5 11h145l13-30 22-54 9-23h101l100 1 17 41 22 53 5 12h148a618 618 0 0 0-19-41 27203 27203 0 0 0-156-335 33438 33438 0 0 1-96-207l-9-18-11-1h-11l-2 5M138 635v298h318l15-34a25353 25353 0 0 1 34-73l11-22-118-1H280V336H138v299m1812-185-14 1-2 1v163h3l6 1h54c48-5 79-30 86-70 4-22 1-43-8-59-12-20-34-33-64-38-11-1-46-1-61 1m-447 4h-13l-25 3h-2v168h3c11 2 55 2 66 0 34-5 58-19 70-41 5-8 9-21 10-33 4-37-9-67-38-84-15-8-30-12-54-13h-17M795 586a25275 25275 0 0 1-54 136l62 1h63l-1-2a7518 7518 0 0 0-61-157l-9 22"/>
</svg>