<svg xmlns="http://www.w3.org/2000/svg" xml:space="preserve" viewBox="5 5 200 39">
  <path fill="#d71823" d="M5 7V6l10-1v35l4 2v1H5v-1l4-2V8zm26 12c2 0 6 0 8 3l1 6v12l4 2v1h-9l-1-4c-1 3-4 5-7 5-4 0-7-3-7-7s4-7 8-7l6-1v-3c0-3-1-5-4-5s-5 4-6 6l-3-4c3-3 6-4 10-4m-5 17c0 3 0 5 3 5 2 0 5-1 5-5v-5h-5c-1 1-3 2-3 5"/>
  <path fill="#221f20" d="M47 43v-1l4-2V11h-8l-2 5-2-1 1-7 29 1 1 7h-2l-1-5h-9v29l4 2v1Z"/>
  <path fill="#221f20" d="M65 21v-1l8-1 1 4c2-2 4-4 7-4l3 1-1 6c-1-2-2-4-5-4-4 0-4 5-4 8v10l5 2v1H65v-1l3-2V22Zm21 0v-1l10-1v21l3 2v1H86v-1l4-2V22Zm10-11c0 2-2 4-4 4s-3-2-3-4c0-1 1-3 3-3s4 2 4 3m2-3V6l9-1v20c2-4 4-6 7-6h1c7 0 10 4 10 12 0 7-5 13-12 13l-12-2V8Zm9 33 5 2c6 0 6-8 6-12 0-5-1-9-4-9-5 0-7 7-7 11v8m27-20v14c0 5 1 7 4 7l4-2c2-2 2-3 2-6V22l-4-1v-1h10v20l4 1v1l-10 1v-3c-1 1-4 3-8 3-5 0-8-1-8-8V22l-3-1v-1h9m30 3c1-1 3-4 8-4 7 0 8 3 8 8v13l4 2v1h-14v-1l4-2V24c-1-2-2-3-4-3s-4 2-5 4l-1 5v10l4 2v1h-13v-1l3-2V22l-3-1v-1l9-1zm26 9c0 5 1 10 6 10l8-4 1 1c-3 3-6 5-10 5-7 0-12-4-12-12s4-13 12-13c6 0 10 5 10 11v1h-15Zm9-3c0-3 0-8-4-8s-5 4-5 8z"/>
</svg>