<svg xmlns="http://www.w3.org/2000/svg" viewBox="0 0 617 93">
  <path fill="#d41e2e" fill-rule="evenodd" d="M11 1C3 1 0 2 0 3l4 3 5 1v78l-5 1c-8 4-5 5 13 5 17 0 20-1 12-5l-5-1V0h-4l-9 1m338 22v17l-2-2c-2-1-2-1 0 1l3 3V25l-1-18v16m84-16 1 39 1 39V46c0-34-1-39-2-40v1m93 10 1 4v-8l-1 4m75 11c0 5 1 7 1 4v-8c0-3-1-1-1 4m-14 2 1 3v-7l-1 4M52 35l-12 6c-2 2-2 2 1 6l4 5 2-4c5-9 14-12 20-6 3 2 3 3 3 9l1 7h-9c-10 1-17 3-22 8-9 8-5 23 7 26 8 2 18-1 22-7l2-2v4l1 4h11c8 0 11-1 11-2l-4-3-5-1V66c0-22-1-25-8-29-6-3-19-4-25-2m535 20c0 8 1 11 1 7a185 185 0 0 0-1-7m-66-5c0 4 1 5 1 3v-6c0-2-1-1-1 3M306 64c0 4 1 5 1 3v-6c0-2-1-1-1 3m16 1c0 4 1 5 1 3v-6c0-2-1-1-1 3m49-1c0 3 0 4 1 3v-6c-1-1-1 0-1 3m-181 0c0 2 0 2 1 1v-4c-1-1-1 0-1 3M56 64c-4 2-6 6-6 12s3 10 8 10c8 0 11-5 13-16v-7h-6l-9 1m472 23v3h-32l-31 1h31c34 0 34 0 33-5-1-1-1-1-1 1m-127 1h4c1-1 0-1-2-1-3 0-3 0-2 1m-194 1c1 1 4 2 16 2s15-1 16-2h-1l-15 1-15-1h-1m34 0c1 1 3 2 13 2h12l-12-1-12-1h-1m35 0c0 2 1 2 16 2h16l-15-1-16-1h-1m149 0c1 1 3 2 17 2h16l-16-1-16-1h-1m-73 3h4c1-1 0-1-2-1-3 0-3 0-2 1m200 1h4c1-1 0-1-2-1s-3 0-2 1"/>
  <path fill="#050505" fill-rule="evenodd" d="m359 1-10 1c-10 0-11 2-4 4l5 1v35l-4-3c-8-8-25-6-33 4-5 6-6 12-6 23l3 15c4 6 9 10 16 11 9 2 18-1 21-7 2-4 3-4 3 2v4h7l16-2-5-2-5-2V42l-1-42-3 1m85 0-10 1c-10 0-11 2-4 4l5 1v38c0 42 0 40-5 42l-4 2 15 1 16-1-4-2-5-2V42c0-39 0-42-2-42l-2 1M219 6c-6 3-6 9-3 13 4 3 8 3 11-1 4-4 3-7-1-11-2-2-4-3-7-1M72 10l5 3 5 2 17 38c15 38 16 39 19 39s0 5 26-57l9-21 5-1 4-3-12-1-13 1 4 2c2 1 3 1 3 3l-23 55-22-55c0-1 1-2 3-2l3-3-17-1-16 1m394 0 5 3 5 1v71l-5 1-6 3 31 1h32V74l-3 5-2 5h-32V50h25l1 4c2 6 4 5 4-1l1-11-1-6-3 4-2 4h-25V15h30l1 4c3 7 4 6 4-2V9h-30l-30 1m-8 9h-3l3 4c3 4 3 6-1 14l-2 8c1 0 9-9 11-14 2-4 2-8-1-11-1-2-2-2-7-1m136 3-6 1v13h-5c-5 0-5 0-5 3 0 2 0 2 5 2h5v20c-1 22 0 25 5 29 4 2 12 3 18 1 5-2 6-2 6-4l-2-1c-3 1-10 0-11-1-2-2-3-9-3-26V41h7c7 0 7 0 7-2 0-3 0-3-7-3h-7v-8l-1-8-6 2M165 35c-9 3-15 9-18 19-3 15 3 30 16 36 6 3 17 3 24 1 5-1 12-7 15-12 5-8 5-24 1-32-6-11-23-16-38-12m227 0c-8 2-16 9-18 17-2 5-2 18-1 23 2 6 10 14 17 16 11 3 23 1 30-6 3-3 3-4 2-5-2-1-3 0-6 2-15 12-29 4-29-15v-5h37v-5c-3-17-16-26-32-22m155 0c-8 3-12 8-12 16 0 9 4 12 17 16s18 11 11 17c-3 3-3 3-10 3-5 0-7-1-10-3-4-3-4-4-4-8 0-3 0-4-2-4-2 1-4 15-2 16 6 4 23 5 30 2 13-6 15-24 3-30l-12-5c-9-3-12-5-12-9 0-5 4-7 11-7 9 1 12 3 13 9 1 4 4 4 4 1l1-7v-5l-4-1c-6-2-17-2-22-1m-333 1-7 2 4 2 5 1v44l-4 1-4 3 15 1 15-1-4-2-4-2V35h-5l-11 1m28 1 5 3c4 1 5 3 13 13l8 11-2 3-9 10c-5 6-7 9-11 10l-4 2 12 1c11 0 14-1 8-2l-3-2 12-16 12 15c0 1-1 2-3 2-7 2-2 3 12 3l15-1-4-2c-4-2-6-4-14-15l-9-13 7-10 11-10c3 0 4-1 4-2l-9-1c-10 0-12 1-8 3 2 1 2 2-3 8l-6 6-5-6-4-6 2-2c5-2 3-3-12-3l-15 1m-70 2c-9 3-12 21-8 36 1 8 4 12 9 13 9 3 15-3 17-17 1-9 0-20-3-25-2-7-9-10-15-7m158 1c-4 2-6 7-7 16-3 18 3 32 12 32 6 0 12-8 14-17 1-7 1-19-1-24-4-8-11-11-18-7m63 1c-2 2-4 7-5 12l-1 4h23v-4c0-5-3-12-6-14s-8-1-11 2"/>
</svg>