<svg xmlns="http://www.w3.org/2000/svg" width="542" height="159" viewBox="0 0 542 159" version="1.1"><path d="M 130.471 27.221 C 130.202 27.924, 130.098 57.750, 130.241 93.500 L 130.500 158.500 144 158.500 L 157.500 158.500 157.500 92.500 L 157.500 26.500 144.230 26.221 L 130.960 25.942 130.471 27.221 M 131 92.500 L 131 158 144 158 L 157 158 157 92.500 L 157 27 144 27 L 131 27 131 92.500 M 0 93.500 L 0 112 8 112 L 16 112 16 108 L 16 104 12.500 104 L 9 104 9 89.500 L 9 75 4.500 75 L 0 75 0 93.500 M 20 93.500 L 20 112 28.500 112 L 37 112 37 108 L 37 104 32.937 104 L 28.873 104 29.187 100.750 L 29.500 97.500 33.250 97.190 L 37 96.879 37 93 L 37 89.121 33.250 88.810 L 29.500 88.500 29.500 86 L 29.500 83.500 33.250 83.190 L 37 82.879 37 78.940 L 37 75 28.500 75 L 20 75 20 93.500" stroke="none" fill="#1c7a9b" fill-rule="evenodd"/><path d="M 138.500 1.412 C 136.850 2.145, 134.426 3.909, 133.114 5.332 L 130.727 7.919 130.727 12.013 L 130.727 16.106 133.572 19.075 L 136.417 22.045 140.208 23.181 L 144 24.317 147.926 23.140 L 151.853 21.964 154.426 18.905 L 157 15.847 157 11.646 L 157 7.445 155.535 5.353 C 152.251 0.665, 144.312 -1.172, 138.500 1.412 M 69 28.552 C 65.975 29.391, 61.821 31.186, 59.770 32.540 L 56.040 35.002 54.020 38.961 L 52 42.920 52 92.500 L 52 142.080 54.027 146.053 L 56.054 150.027 60.108 152.963 L 64.161 155.899 71.678 157.572 L 79.195 159.244 90.348 158.759 L 101.500 158.275 106.500 156.535 C 109.250 155.577, 113.011 153.655, 114.859 152.263 L 118.218 149.732 120.087 145.616 L 121.956 141.500 121.978 117.250 L 122 93 108.500 93 L 95 93 95 116.345 L 95 139.690 92.920 141.572 L 90.840 143.455 87 143.455 L 83.160 143.455 81.080 141.572 L 79 139.690 79.015 92.595 C 79.024 66.693, 79.361 45.005, 79.765 44.400 C 82.219 40.725, 88.535 40.060, 92.365 43.073 L 95 45.145 95 61.073 L 95 77 108.500 77 L 122 77 122 60.157 L 122 43.315 119.681 38.907 L 117.362 34.500 110.539 31.003 L 103.715 27.507 89.107 27.266 L 74.500 27.026 69 28.552 M 131 92.500 L 131 158 144 158 L 157 158 157 92.500 L 157 27 144 27 L 131 27 131 92.500 M 173 41 L 173 55 169 55 L 165 55 165 62 L 165 69 168.931 69 L 172.863 69 173.186 104.250 L 173.510 139.500 175.308 143.500 C 177.804 149.052, 181.359 152.471, 187.368 155.100 L 192.500 157.346 207.250 157.797 L 222 158.248 222 151.226 L 222 144.205 213.443 143.853 L 204.886 143.500 202.980 141 C 200.148 137.285, 199.882 133.357, 200.205 100 L 200.500 69.500 211.250 69.216 L 222 68.932 222 61.966 L 222 55 211 55 L 200 55 200 41 L 200 27 186.500 27 L 173 27 173 41 M 247 28.552 C 243.975 29.391, 239.821 31.186, 237.770 32.540 L 234.040 35.002 232.020 38.961 L 230 42.920 230 92.492 L 230 142.064 231.376 145.357 C 233.131 149.559, 239.103 154.489, 244.944 156.559 L 249.500 158.174 260.711 158.725 L 271.922 159.276 278.178 158.045 C 289.294 155.858, 295.526 151.772, 298.462 144.746 L 300 141.064 300 92.500 L 300 43.936 298.623 40.718 C 296.764 36.373, 292.523 32.570, 286.500 29.846 L 281.500 27.585 267 27.305 L 252.500 27.026 247 28.552 M 313.197 54.723 C 334.104 128.051, 336.384 137.724, 333.649 141.466 L 332.298 143.314 324.149 143.785 L 316 144.257 316 151.128 L 316 158 330.341 158 L 344.682 158 349.461 156.562 C 360.067 153.370, 360.174 153.073, 374.611 87.054 C 380.932 58.149, 386.482 32.813, 386.945 30.750 L 387.787 27 374.144 27.002 L 360.500 27.004 358.204 39.252 C 349.492 85.720, 347.135 95.788, 346.965 87.250 C 346.946 86.287, 343.867 72.450, 340.123 56.500 L 333.316 27.500 319.297 27.223 L 305.278 26.947 313.197 54.723 M 410 28.552 C 406.975 29.391, 402.777 31.215, 400.671 32.605 L 396.843 35.132 394.943 39.316 L 393.044 43.500 393.022 92.790 L 393 142.080 395.027 146.053 L 397.054 150.027 401.108 152.963 L 405.161 155.899 412.678 157.572 L 420.195 159.244 431.348 158.759 L 442.500 158.275 447.500 156.535 C 450.250 155.577, 454.011 153.655, 455.859 152.263 L 459.218 149.732 461.087 145.616 L 462.956 141.500 462.978 121.750 L 463 102 449.500 102 L 436 102 436 120.845 L 436 139.690 433.920 141.572 L 431.840 143.455 428 143.455 L 424.160 143.455 422.080 141.572 L 420 139.690 420 115.845 L 420 92 441.500 92 L 463 92 463 67.657 L 463 43.315 460.681 38.907 L 458.362 34.500 451.539 31.003 L 444.715 27.507 430.107 27.266 L 415.500 27.026 410 28.552 M 471 92.500 L 471 158 485 158 L 499 158 499 101.122 L 499 44.245 500.461 43.033 C 501.264 42.366, 503.705 41.581, 505.885 41.289 L 509.848 40.757 512.424 43.333 L 515 45.909 515 101.955 L 515 158 528.500 158 L 542 158 541.994 101.750 L 541.989 45.500 540.928 41.679 L 539.867 37.858 536.410 34.032 C 534.509 31.927, 531.433 29.484, 529.575 28.603 L 526.198 27 518.280 27 L 510.363 27 505.432 28.464 C 499.804 30.136, 498.377 30.096, 498.794 28.280 L 499.088 27 485.044 27 L 471 27 471 92.500 M 261 41.694 C 260.175 41.989, 258.938 42.939, 258.250 43.806 L 257 45.382 257 92.536 L 257 139.690 259.080 141.572 L 261.160 143.455 265.187 143.455 L 269.214 143.455 271.107 141.116 L 273 138.778 273 91.962 L 273 45.145 270.365 43.073 L 267.730 41 265.115 41.079 C 263.677 41.122, 261.825 41.399, 261 41.694 M 423.500 42.195 C 420.178 44.078, 420.031 44.905, 420.015 61.750 L 420 78 428 78 L 436 78 436 61.573 L 436 45.145 433.365 43.073 L 430.730 41 428.115 41.030 C 426.677 41.047, 424.600 41.571, 423.500 42.195" stroke="none" fill="#040404" fill-rule="evenodd"/></svg>