<svg xmlns="http://www.w3.org/2000/svg" viewBox="0 0 516 139">
  <path fill="#fff" fill-rule="evenodd" d="M133 25c-24 5-26 65-2 71 19 5 32-4 32-22l1-6-9-1h-9l-1 7c-1 10-6 14-9 7-1-3-2-36 0-40 3-7 9-4 9 5v5h18v-5c0-16-12-25-30-21M16 61l1 35h40V81H35V26H16v35m318-28v6h18V26h-18v7M72 42c-19 7-19 49 0 54 13 4 26-1 29-12 2-7 2-7-7-7h-8l-1 3c-2 10-10 7-9-3l1-4 12-1h13v-9c-1-18-13-26-30-21m109 0c-17 4-21 44-5 53 19 10 36-3 35-27 0-22-10-31-30-26m106 1-5 4-1 3v-7h-18v26l1 27h17V79l1-17 2-2 7-2h5V42l-3-1-6 2m37-1-5 4-3 3v-6h-17v53h18V63l2-3 7-2h5V41h-3l-4 1m45 0c-19 7-19 49 0 54 13 4 26-1 29-12 2-7 2-7-7-7h-8l-1 3c-2 10-10 7-9-3l1-4 12-1h13v-9c-1-18-13-26-30-21m58 0-4 4-3 3v-6h-18v26l1 27h17V79l1-17 2-2 7-2h5V42l-3-1-5 1M215 65c0 19 0 23 2 26 3 7 16 8 23 2l2-2v5h17V43h-18v19c0 20 0 22-4 22-3 0-4-3-4-22V43h-18v22m119 5v26h18V43h-18v27M79 53l-3 5v4h9v-4c-1-5-3-7-6-5m297 0-3 5v4h10l-1-4c-1-5-3-7-6-5m-190 2c-2 3-2 23-1 27s7 4 8 0c2-9 0-29-4-29l-3 2M29 103l-1 4v3l-4-1c-6 0-9 3-9 10 0 6 3 9 11 9h6v-13c0-11-1-14-3-12m30 1c-4 5-1 11 7 12 7 2 10 6 5 8-4 2-11 0-11-4l-2-1c-3 0-2 3 1 6 5 5 15 4 17-2 2-5-1-8-10-10-5-2-7-4-3-7 2-2 5-1 8 2s5 3 4 0c-1-6-11-8-16-4m37 0c0 2 2 4 3 2 1-1 1-4-1-4l-2 2m48 11c0 14 3 20 3 7l1-5 6-1h6v6c0 5 0 6 2 6 1 0 2-2 2-13s-1-13-2-13c-2 0-2 1-2 5v6h-13v-5l-1-6c-2 0-2 2-2 13m74-10 1 2 2-2c0-2-1-3-2-3l-1 3m34 10c0 11 0 13 2 13l1-6c0-13 7-14 8-2 1 11 4 12 4 1 0-10-7-17-11-11l-1-3c-1-10-3-5-3 8m-130-8-1 2-2 1 2 2 1 8v7l2 1c3 0 5 0 5-2l-2-1c-2-1-2-2-2-7s0-6 2-6l2-1-2-2c-1 0-2-1-2-3l-1-2c-1 0-2 1-2 3m121 0-1 2-2 2 2 1 1 7c0 7 1 9 5 9 3 0 3-3 0-3-2-1-2-2-2-6 0-5 0-6 2-7l2-1-2-2c-1 0-2-1-2-3l-1-2c-1 0-2 1-2 3m-207 4c-6 6-2 17 6 17 4 0 10-5 6-6l-2 1c-2 4-9 2-9-2l7-1h6v-3c0-7-8-10-14-6m44 0-2 3c0 2 4 1 4 0 1-2 5-2 7-1 1 2-1 4-4 4-5 0-9 5-7 9 2 2 7 3 10 1h2c1 2 5 1 5 0l-1-2-1-6c0-10-7-14-13-8m17-1c-2 1-1 18 1 18 1 0 2-2 2-9 0-9-1-11-3-9m5 0c-1 4 0 17 2 18 2 0 2-1 2-7 0-12 7-14 8-1 1 11 4 12 4 1 0-10-6-16-11-11h-5m63 0 3 9c4 8 4 13 1 13l-2 2c0 2 3 1 5-1s10-23 10-24c-2-1-4 1-6 8l-2 6-2-5c-3-7-7-13-7-8m19 1-2 3c0 2 4 1 4 0 1-2 5-2 7-1 1 2-1 4-4 4-5 0-9 5-7 9 2 2 7 3 10 1h2c1 2 5 1 5 0l-1-2-1-6c0-10-7-14-13-8m18 1c-8 9 3 22 12 14l2-4c0-2-3-1-5 1-3 5-8 1-8-5s5-8 9-4c2 2 2 2 3 1s1-2-1-4c-4-3-9-3-12 1m16 6c0 8 0 10 2 10s1-18-1-19l-1 9m6 1c0 7 0 9 2 9l1-6c0-5 0-7 2-8 4-4 7-2 7 7 0 6 0 7 2 7s2-15-1-17c-2-2-5-2-8-1h-2c-2-3-3 0-3 9m47-7c-6 6-2 16 6 16 4 0 10-5 7-6l-3 1c-2 4-9 2-9-2l7-1c7 0 8-1 5-7-3-5-9-5-13-1m-251 2c-4 4-1 11 4 11 3 0 4-2 4-6 0-7-5-9-8-5m18-1c-2 3-1 4 4 4l4-1c0-2-2-4-4-4l-4 1m235 0c-2 3-1 4 4 4l4-1c0-2-2-4-4-4l-4 1m-143 4c0 2 1 2 6 2 7 0 7-2-1-3l-5 1m-46 3c-3 1-3 4 0 5 2 0 6-2 6-5h-6m104 0c-3 1-3 4 0 5 2 0 6-2 6-5h-6"/>
  <path fill="#eb2b23" fill-rule="evenodd" d="M0 70v69h517V0H0v70m133-45c-24 5-26 65-2 71 19 5 32-4 32-22l1-6-9-1h-9l-1 7c-1 10-6 14-9 7-1-3-2-36 0-40 3-7 9-4 9 5v5h18v-5c0-16-12-25-30-21M16 61l1 35h40V81H35V26H16v35m318-28v6h18V26h-18v7M72 42c-19 7-19 49 0 54 13 4 26-1 29-12 2-7 2-7-7-7h-8l-1 3c-2 10-10 7-9-3l1-4 12-1h13v-9c-1-18-13-26-30-21m109 0c-17 4-21 44-5 53 19 10 36-3 35-27 0-22-10-31-30-26m106 1-5 4-1 3v-7h-18v26l1 27h17V79l1-17 2-2 7-2h5V42l-3-1-6 2m37-1-5 4-3 3v-6h-17v53h18V63l2-3 7-2h5V41h-3l-4 1m45 0c-19 7-19 49 0 54 13 4 26-1 29-12 2-7 2-7-7-7h-8l-1 3c-2 10-10 7-9-3l1-4 12-1h13v-9c-1-18-13-26-30-21m58 0-4 4-3 3v-6h-18v26l1 27h17V79l1-17 2-2 7-2h5V42l-3-1-5 1M215 65c0 19 0 23 2 26 3 7 16 8 23 2l2-2v5h17V43h-18v19c0 20 0 22-4 22-3 0-4-3-4-22V43h-18v22m119 5v26h18V43h-18v27M79 53l-3 5v4h9v-4c-1-5-3-7-6-5m297 0-3 5v4h10l-1-4c-1-5-3-7-6-5m-190 2c-2 3-2 23-1 27s7 4 8 0c2-9 0-29-4-29l-3 2M29 103l-1 4v3l-4-1c-6 0-9 3-9 10 0 6 3 9 11 9h6v-13c0-11-1-14-3-12m30 1c-4 5-1 11 7 12 7 2 10 6 5 8-4 2-11 0-11-4l-2-1c-3 0-2 3 1 6 5 5 15 4 17-2 2-5-1-8-10-10-5-2-7-4-3-7 2-2 5-1 8 2s5 3 4 0c-1-6-11-8-16-4m37 0c0 2 2 4 3 2 1-1 1-4-1-4l-2 2m48 11c0 14 3 20 3 7l1-5 6-1h6v6c0 5 0 6 2 6 1 0 2-2 2-13s-1-13-2-13c-2 0-2 1-2 5v6h-13v-5l-1-6c-2 0-2 2-2 13m74-10 1 2 2-2c0-2-1-3-2-3l-1 3m34 10c0 11 0 13 2 13l1-6c0-13 7-14 8-2 1 11 4 12 4 1 0-10-7-17-11-11l-1-3c-1-10-3-5-3 8m-130-8-1 2-2 1 2 2 1 8v7l2 1c3 0 5 0 5-2l-2-1c-2-1-2-2-2-7s0-6 2-6l2-1-2-2c-1 0-2-1-2-3l-1-2c-1 0-2 1-2 3m121 0-1 2-2 2 2 1 1 7c0 7 1 9 5 9 3 0 3-3 0-3-2-1-2-2-2-6 0-5 0-6 2-7l2-1-2-2c-1 0-2-1-2-3l-1-2c-1 0-2 1-2 3m-207 4c-6 6-2 17 6 17 4 0 10-5 6-6l-2 1c-2 4-9 2-9-2l7-1h6v-3c0-7-8-10-14-6m44 0-2 3c0 2 4 1 4 0 1-2 5-2 7-1 1 2-1 4-4 4-5 0-9 5-7 9 2 2 7 3 10 1h2c1 2 5 1 5 0l-1-2-1-6c0-10-7-14-13-8m17-1c-2 1-1 18 1 18 1 0 2-2 2-9 0-9-1-11-3-9m5 0c-1 4 0 17 2 18 2 0 2-1 2-7 0-12 7-14 8-1 1 11 4 12 4 1 0-10-6-16-11-11h-5m63 0 3 9c4 8 4 13 1 13l-2 2c0 2 3 1 5-1s10-23 10-24c-2-1-4 1-6 8l-2 6-2-5c-3-7-7-13-7-8m19 1-2 3c0 2 4 1 4 0 1-2 5-2 7-1 1 2-1 4-4 4-5 0-9 5-7 9 2 2 7 3 10 1h2c1 2 5 1 5 0l-1-2-1-6c0-10-7-14-13-8m18 1c-8 9 3 22 12 14l2-4c0-2-3-1-5 1-3 5-8 1-8-5s5-8 9-4c2 2 2 2 3 1s1-2-1-4c-4-3-9-3-12 1m16 6c0 8 0 10 2 10s1-18-1-19l-1 9m6 1c0 7 0 9 2 9l1-6c0-5 0-7 2-8 4-4 7-2 7 7 0 6 0 7 2 7s2-15-1-17c-2-2-5-2-8-1h-2c-2-3-3 0-3 9m47-7c-6 6-2 16 6 16 4 0 10-5 7-6l-3 1c-2 4-9 2-9-2l7-1c7 0 8-1 5-7-3-5-9-5-13-1m-251 2c-4 4-1 11 4 11 3 0 4-2 4-6 0-7-5-9-8-5m18-1c-2 3-1 4 4 4l4-1c0-2-2-4-4-4l-4 1m235 0c-2 3-1 4 4 4l4-1c0-2-2-4-4-4l-4 1m-143 4c0 2 1 2 6 2 7 0 7-2-1-3l-5 1m-46 3c-3 1-3 4 0 5 2 0 6-2 6-5h-6m104 0c-3 1-3 4 0 5 2 0 6-2 6-5h-6"/>
</svg>