<svg xmlns="http://www.w3.org/2000/svg" xml:space="preserve" viewBox="21 261 600 121">
  <path fill="#231f20" d="M566 319v-53l1-1h7c4 0 7 1 9 3 3 4 5 13 5 24 0 10-1 18-5 23-1 3-5 4-8 4h-9zm37 62c13 0 18-9 18-27h-1c0 12-2 18-6 18-3 0-4-2-5-5l-2-20c-2-18-12-24-24-27 15-2 25-11 25-28 0-19-8-30-28-30h-45v2h9l2 2v110l-2 1h-9v2h42v-2h-9c-1 0-2 0-2-2v-54h9c6 0 9 3 10 13l1 19c1 20 7 28 17 28zm-113-2h42v-2h-10l-1-1V266l1-2h10v-2h-42v2h9l1 2v110l-1 1h-9v2zm-40 3c23 0 39-27 39-61s-16-60-40-60c-23 0-39 26-39 60s16 61 40 61zm0-2c-3 0-5-1-8-3-5-6-9-22-9-56s4-50 9-56l7-3c3 0 5 1 8 3 5 6 9 22 9 56s-4 50-10 56l-6 3zm-75 0h7l24-102c3-10 5-14 9-14h4v-2h-23v2h5c6 0 5 7 3 15l-16 67-16-74c-1-5-1-8 1-8h8v-2h-40v2h4c3 1 4 3 6 9l24 107zm-110-1h74v-48h-1c-3 12-6 24-11 32-5 10-10 14-19 14h-10l-2-2v-54h4c5 0 8 1 11 5 3 5 6 14 6 22h1v-56h-1c0 9-3 17-6 22-3 4-6 5-11 5h-4v-53l1-1h10c7 0 12 3 16 8 5 6 9 17 12 33h1v-44h-71v2h9l2 2v110l-2 1h-9v2zm-52-2-1-2V266l1-2h8c4 0 7 1 10 3 7 5 10 22 10 54 0 31-4 47-10 53l-9 3h-9zm-32 2h43c22 0 40-21 40-58s-18-59-40-59h-43v2h9l1 2v110l-1 1h-9v2z"/>
  <path fill="#849daa" d="M97 379h74v-48h-1c-3 12-6 24-11 33s-11 13-19 13h-11l-1-2v-54h4c4 0 8 2 11 6s5 13 5 21h2v-55h-2c0 8-2 17-5 21s-7 5-11 5h-4v-52l1-2h10c7 0 12 3 16 8 5 7 9 18 12 33h1v-43H97v2h9l1 1v110l-1 1h-9v2zm-76 0h71v-52h-1c-3 12-6 24-11 34s-9 16-17 16H53l-1-2V266l1-1h10v-2H21v2h9l1 1v110l-1 1h-9v2z"/>
</svg>