<svg xmlns="http://www.w3.org/2000/svg" xml:space="preserve" viewBox="20 241 600 161">
  <path fill="#d71823" d="m61 241-41 3v4l17 4v136l-16 6v4h56v-4l-16-6V241zm84 99v-1c0-11-2-32-18-32-15 0-20 18-22 33h40zm-40 14c0 19 4 39 27 39 7 0 17-3 31-16l5 5c-11 13-22 20-39 20-31 0-51-16-51-51 0-29 17-52 48-52 27 0 43 20 43 46v4h-64v5z"/>
  <path d="M230 389c39 0 46-33 46-67 0-35-15-58-46-58l-12 1v122l12 2m7-133c39 0 69 22 69 69 0 48-25 73-71 73h-63v-4l20-7V266l-19-6v-4h64m77 53v-4l37-4 2 15c7-11 16-16 29-16 5 0 11 1 15 4l-8 22c-4-6-8-13-17-13-17 0-18 19-18 32v43l19 6v4h-58v-4l15-6v-75l-16-4zm134 86c22 0 25-27 25-44s-3-44-25-44c-21 0-24 26-24 43 0 16 2 45 24 45m53-45c0 32-22 52-53 52s-53-20-53-52c0-34 19-50 52-50 34 0 54 16 54 50m40-87c0 7-7 14-14 14-7 1-14-6-14-14 0-7 7-14 14-14s14 7 14 14zm-41 45v-4l41-3v87l15 6v4h-54v-4l15-6v-76l-17-4zm93-33v28h23v9h-23v50c0 14 0 23 5 27 2 2 5 2 7 2 4 0 9-1 13-3l2 6c-5 4-16 7-25 7s-18-2-22-8-5-14-5-24v-58h-17v-8h17v-22l25-6z" class="st1"/>
</svg>