<svg xmlns="http://www.w3.org/2000/svg" viewBox="5 5 199.9 28.9">
  <g fill="none" fill-rule="evenodd">
    <path fill="#d71823" d="M27.4 22.8v-.2c0-2-.5-5.8-3.2-5.8s-3.7 3.3-4 6zM20 25.2c0 3.4.8 7 5 7 1.1 0 3-.5 5.5-2.9l.8 1c-2 2.3-3.9 3.6-7 3.6-5.4 0-9-3-9-9 0-5.4 3-9.4 8.6-9.4 4.8 0 7.6 3.5 7.6 8.1v.7H20v.9z"/>
    <path fill="#221f20" d="m41.7 7.8 10.7 18.7-.1-17.2-2.4-.7v-.8h7.3v.8l-2.5.7-.1 24.3h-3l-13.2-22 .2 19.8 3 1v.7H33v-.8l3.2-1V9.6l-2.8-1v-.8ZM66 32.5c4 0 4.4-4.8 4.4-7.8s-.4-7.8-4.4-7.8c-3.8 0-4.4 4.7-4.4 7.6 0 2.9.5 8 4.4 8m9.5-8c0 5.7-4 9.3-9.5 9.3s-9.4-3.6-9.4-9.2c0-6 3.4-9 9.3-9 6 0 9.6 2.8 9.6 9m6.6-8.7v10.5c0 4 .3 5.7 2.7 5.7.3 0 1.9 0 3.2-1.7 1-1.2 1-2.4 1.2-4.6V18l-2.7-.9v-.8l7.1-.4v15.5l3 .7v.7c-1.6 0-7 .7-7 .7l-.3-2.5a7 7 0 0 1-5.7 2.7c-4.2 0-6-1.2-6-6v-9.8l-2.6-1v-.7l7-.3m22.5.3v.7l-2 1 4 10.3 4.5-10.7-2-.6v-.7h6.6v.7l-2 .7-7.5 16.1h-1.6l-7-15.7-2.5-1v-.8zm21.7 6.6v-.2c0-2-.4-5.8-3.2-5.8-2.7 0-3.6 3.3-4 6zm-7.2 2.4c0 3.4.7 7 5 7 1.1 0 2.9-.5 5.4-2.9l.9 1c-2 2.3-4 3.6-7 3.6-5.5 0-9.1-3-9.1-9 0-5.4 3.1-9.4 8.7-9.4 4.8 0 7.6 3.5 7.6 8.1v.7H119v.9zm11.8-18.9v-.7l7.3-.6v26.4l2.8 1v.7h-10v-.7l2.8-1V7Zm10.3 0v-.7l7.3-.6v26.4l2.8 1v.7h-9.9v-.7l2.8-1V7Zm17.5 2.8c0 1.2-1.2 2.5-2.5 2.5a2.6 2.6 0 0 1-2.5-2.5c0-1.3 1.1-2.5 2.5-2.5 1.3 0 2.5 1.2 2.5 2.5zm-7.3 8v-.8l7.3-.6v15.7l2.7 1v.7h-9.7v-.7l2.7-1V17.8Zm23.5-.4-.5 4.2-1-.1-.4-2.4a8.9 8.9 0 0 0-4.2-1.3c-1 0-3 .5-3 2.1 0 2.2 2.3 2.4 4.8 3.1 2.5.8 5 2 5 5.4 0 3.9-3 6-6.8 6-2 0-4.3-.5-6.3-1.6l.7-4.9 1 .2.3 3c1.5 1 2.4 1.7 4.4 1.7 1.8 0 3.7-.8 3.7-3 0-2-3.2-2.8-5-3.3-2.1-.7-4.8-1.4-4.8-5 0-4 3.1-5.2 6.6-5.2 2.5 0 4.4.7 5.5 1m8.8-5.4v5h4.2v1.5h-4.2v9c0 2.5 0 4.1 1 4.9.3.3.7.3 1.2.3.8 0 1.6-.2 2.3-.6l.4 1.1c-1 .8-2.8 1.2-4.6 1.2-1.6 0-3.1-.4-3.9-1.4-.7-1-.9-2.4-.9-4.3V17.7h-3v-1.5h3v-4Zm17 11.6v-.2c0-2-.4-5.8-3.2-5.8-2.7 0-3.6 3.3-4 6h7.2zm-7.2 2.4c0 3.4.7 7 5 7 1.1 0 2.9-.5 5.4-2.9l.9 1c-2 2.3-4 3.6-7 3.6-5.5 0-9.1-3-9.1-9 0-5.4 3.1-9.4 8.7-9.4 4.8 0 7.6 3.5 7.6 8.1v.7h-11.5v.9z"/>
    <path fill="#d71823" d="M12.3 5 5 5.6v.7l3 .8v24.3l-2.8 1v.7h9.9v-.7l-2.8-1Z"/>
  </g>
</svg>