<svg xmlns="http://www.w3.org/2000/svg" viewBox="5 5 200 36.5">
  <g fill="none" fill-rule="evenodd">
    <path fill="#d71823" d="M12.8 5 5 5.7v.7l3.2.9v26.2l-3 1.1v.8h10.6v-.8l-3-1Zm15.8 19.2V24c0-2-.5-6.3-3.4-6.3-3 0-4 3.7-4.3 6.5zm-7.8 2.6c0 3.7.8 7.7 5.3 7.7 1.3 0 3.2-.6 6-3.2l.8 1c-2 2.6-4.2 4-7.5 4-5.9 0-9.8-3.3-9.8-9.9 0-5.7 3.4-10 9.4-10 5.1 0 8.2 3.8 8.2 8.7v.8H20.7Z"/>
    <path fill="#221f20" d="M160.7 9.4c0 1.4-1.2 2.7-2.7 2.7a2.8 2.8 0 0 1-2.6-2.7c0-1.3 1.2-2.7 2.6-2.7 1.5 0 2.7 1.4 2.7 2.7zm-7.7 8.7v-.8l7.7-.7v17l3 1v.8h-10.4v-.8l2.8-1V18.9Zm23.4 6.1V24c0-2-.5-6.3-3.4-6.3-3 0-4 3.7-4.3 6.5zm-7.8 2.6c0 3.7.8 7.7 5.3 7.7 1.3 0 3.2-.6 6-3.2l.8 1c-2 2.6-4.1 4-7.5 4-5.8 0-9.8-3.3-9.8-9.9 0-5.7 3.4-10 9.4-10 5.1 0 8.2 3.8 8.2 8.7v.8h-12.4zm20.4-7.3a7.4 7.4 0 0 1 6.4-3.3c5.6 0 6.4 2.2 6.4 6.8v10.6l3.2 1v.8h-11v-.8l2.9-1v-9.5c0-2.1 0-3.3-.4-4.2-.6-1.3-1.3-2-3-2-1.2 0-3 1.2-3.8 3.3a10 10 0 0 0-.6 4.1v8.3l2.7 1v.8h-10.3v-.8l2.8-1V19l-3-.9v-.7l7.3-.8.4 3zM40.8 21.8c0-5 1.2-12.5 7.6-12.5 6.3 0 7.6 7.4 7.6 12.4 0 4.8-1.5 12.8-7.6 12.8-6.3 0-7.6-8-7.6-12.7zm23.5 14.7-1.7 1.1-9.7-2c6.3-1.8 9-7.3 9-14.7 0-8.3-5.4-13.3-13.5-13.3-8.2 0-13.5 5-13.5 13.3 0 8 3.1 13.9 10.6 15l-2.1 2 .7 1 3.6-2 14.1 4.6 3.3-4.3zM95 34.7c4.2 0 4.7-5.2 4.7-8.4s-.5-8.5-4.7-8.5c-4.1 0-4.7 5.2-4.7 8.3 0 3.1.5 8.6 4.7 8.6m10.1-8.5c0 6-4.2 10-10.1 10-6 0-10.1-4-10.1-10 0-6.6 3.6-9.8 10-9.8s10.2 3.1 10.2 9.8m7.7-14.5V17h4.5v1.6H113v9.7c0 2.7 0 4.5 1 5.3.4.3.9.4 1.4.4.8 0 1.7-.2 2.5-.6l.4 1.2c-1 .7-3 1.3-5 1.3-1.7 0-3.3-.5-4.1-1.6-.8-1.1-1-2.6-1-4.7v-11H105V17h3.2v-4.2ZM127 9.4c0 1.4-1.3 2.7-2.7 2.7a2.8 2.8 0 0 1-2.7-2.7c0-1.3 1.3-2.7 2.7-2.7 1.4 0 2.7 1.4 2.7 2.7zm-7.8 8.7v-.8l7.8-.7v17l2.9 1v.8h-10.4v-.8l2.9-1V18.9l-3.2-.8zm20.3 16.4c1.6 0 4.8-2.2 4.8-8.5 0-3-.4-8.2-4.6-8.2-4 0-4.5 6.2-4.5 9 0 4.5 1.2 7.7 4.3 7.7zm1.6-28v-.8L149 5v28.5l3.1 1.2v.7c-2.4 0-5 .3-7.5.4l-.3-3.6a6.4 6.4 0 0 1-6 4c-6 0-8.4-4.4-8.4-9.8 0-5.8 2.9-10 9-10 2.4 0 4.3.8 5.5 3V7.2l-3.2-.9zM70.4 16.7V28c0 4.4.3 6.2 3 6.2.3 0 2 0 3.4-1.8 1.2-1.4 1.2-2.6 1.3-5V19l-3-.9v-1l7.7-.3v16.7l3.1.8v.8c-1.6 0-7.4.7-7.4.7l-.3-2.7c-1 1.2-2.8 3-6.2 3-4.4 0-6.4-1.3-6.4-6.6V19L63 18v-.8l7.5-.3"/>
  </g>
</svg>