<svg xmlns="http://www.w3.org/2000/svg" version="1.0" viewBox="0 0 800 305">
  <path fill="#d7001f" d="m292 6-19 2a186 186 0 0 0-44 9l-3 1a102 102 0 0 0-25 12l-1 1-1 1-20 15c-12 12-26 30-31 41a148 148 0 0 0 5 139c5 9 7 12 7 9l2-10 3-14 10-47 4-21 4-19 3-12 10-52 5-22v-3h50l2 6a2113 2113 0 0 1 20 98l11 53 9 46 4 22-25 1-24-1-3-11-3-17-1-8c0-2 0-2-15-2h-16l-3 18-3 16-1 5h-21l6 6 8 5 1 1 13 7 6 4a162 162 0 0 0 85 13 221 221 0 0 0 66-13c8-3 9-4 19-10l16-11-5 1c-8 2-25 4-34 4a161 161 0 0 1-45-8c-3 0-11-7-13-11-2-5-2-6-2-34l1-30h7a533 533 0 0 0 40-4v20c0 26 1 28 11 28 7 0 10-1 12-5 2-2 2-5 2-18 0-18-1-24-6-30-4-4-5-5-27-12-19-6-22-8-28-12-4-3-5-4-9-11l-2-5-1-35c0-31 0-37 2-41 5-15 15-21 41-23l13-1c5-1 30 1 34 2a276 276 0 0 1 16 3c-2-3-19-15-27-19a123 123 0 0 0-27-11l-20-5c-7-2-33-2-43-1z"/>
  <path fill="#d7001f" d="M424 89v30h-5a743 743 0 0 0-38 5l-5 1v-21c0-25-1-27-7-29h-9c-4 0-5 1-7 5s-2 6-2 18c0 18 2 28 7 32 3 2 18 8 21 8l2 1 2 1 24 9c6 3 11 8 13 13 4 7 4 11 4 46l-1 35 3-3c7-9 17-26 22-39a153 153 0 0 0-1-105l-5-10-12-19-4-7-1-1-1 30zm-198 4-1 7-2 13a1067 1067 0 0 0-6 44l-3 23-1 4h24l-1-8-1-14-2-14-3-20-2-22c-1-15-1-15-2-13zM10 187l-1 23v23h33v-5c0-8 0-9-10-9l-10 1v-33c0-1-11-2-12 0zm38 1-1 23 1 22h31v-13h-9c-6 0-8 0-9-2s3-4 8-4h6v-10l-7-1-7-1c0-2 1-2 7-2h9l1-7 1-7H63c-15 0-15 0-16 2zm45 0c-5 4-7 7-7 13l1 7c2 3 9 7 15 8l5 3c0 2-4 2-10 0-5-2-8-2-8 0l-2 5-3 4 4 2c3 2 7 2 14 3 9 0 10 0 14-2 5-4 7-8 7-14-2-8-4-10-15-14l-6-3 1-1c2-1 8 1 11 2 2 0 3-1 5-5l2-6c-1-2-12-4-18-4l-10 2zm521 0-4 17 4 1c4-1 4-1 7-8 3-10 3-10-2-11l-5 1zm151 0c-13 2-21 17-17 31 2 6 8 12 15 14 12 5 24 0 31-11 2-5 2-6 2-12-1-13-9-21-22-22h-9zm13 14c3 4 4 11 1 15-5 11-18 5-17-7 1-7 4-10 10-10l6 2zm-308-12v44h10c24 0 32-6 32-23 0-8-2-13-6-17-5-4-9-5-23-6-13 0-13 0-13 2zm25 13c3 3 3 12 1 16-2 2-9 5-11 3l-1-11v-11h5c3 0 5 1 6 3zm26 8v23h30v-6l1-7h-9c-8 0-8 0-8-3 0-2 0-2 7-2h7v-11h-7l-7-1c0-3 1-3 10-3h7v-12l-16-1h-15v23zm57-22v45h33v-12l-9-1h-9v-33h-7l-8 1zm54 0v45h14v-45l-7-1h-7zm24 22c0 26-1 24 9 23h5v-11l1-10 6 8c10 14 8 13 16 13h7v-46h-14v11c0 12 0 12-9-2l-7-9h-14v23zm55-1v23h7l7 1 1-8v-7h6c6 0 6 0 7-4 0-4 0-8-2-9h-6c-4 0-5 0-5-2-1-3 0-3 8-3h7v-12l-15-1h-15v22z"/>
</svg>