<svg xmlns="http://www.w3.org/2000/svg" xml:space="preserve" viewBox="68 204 365 92">
  <path fill="#b4131d" d="M68 208v-2l23-2v84l9 4v2H68v-2l9-4v-77l-9-3m70 53c0-9-2-19-9-20-10 0-13 11-14 20h23zm-8 30c4 0 10-1 18-9l3 3c-5 6-12 11-22 11-18 1-31-10-30-31 1-17 13-28 30-27 16 0 23 14 22 28h-36c0 10 0 25 15 25"/>
  <path fill="#231f20" d="M209 233h-3l-2-9c-3-3-9-8-17-8-8 1-14 5-13 14 0 8 8 10 15 12 12 4 26 9 25 30-1 14-11 24-30 24-10-1-16-3-24-8l1-20h2l3 13c4 6 13 10 19 10 9 0 15-6 15-16 1-14-14-17-18-18-7-2-23-6-21-26 1-12 11-18 27-19 8 0 19 2 22 4l-1 17m41 59c11 0 14-11 14-26 0-14-3-24-14-24s-14 11-14 24c0 14 4 26 14 26zm31-27c0 19-13 31-31 31s-31-12-30-31c1-20 13-27 30-27 18 0 30 7 31 27"/>
  <path fill="#231f20" d="M280 208v-2l23-2v84l9 4v2h-32v-2l9-4v-77l-9-3m70 53c0-9-3-19-10-20-9 0-12 11-13 20h23zm-8 30c3 0 9-1 18-9l2 3c-5 6-11 11-21 11-19 1-31-10-30-31 1-17 13-28 29-27 16 0 24 14 23 28h-37c0 10 1 25 16 25m47-74c0 4-4 8-8 8s-8-4-8-8 4-8 8-8c5 0 8 4 8 8zm-23 25v-2l23-2v50l9 4v2h-31v-2l9-3v-44l-10-3m34-34v-2l24-2v84l9 4v2h-32v-2l9-4v-77l-10-3"/>
</svg>