<svg xmlns="http://www.w3.org/2000/svg" aria-labelledby="mgLogo" class="header-logo-image logo-mg" viewBox="45 45.1 200 22.6">
  <path fill="#016ea5" d="M195.7 64.3c-.9 1.7-2 2.2-4.6 2.2h-1.9l7-14.1v-.1l-.2-.3h-3.2c-4.3 0-4.4-.1-4.8-.5h-.6l-.6 4.4h.5l.4-.8c.9-2 1.5-2.3 4-2.3h1.6l-7 14.2.2.3h9.3l.8-3.9h-.4zm-12.3.4-3.7-13.1h-.6l-1.1 1-3.4 11.6c-.5 1.6-1 2.3-1.8 2.5l-.3.2v.4h4.2v-.4l-.4-.1c-.7-.1-1-.4-1-1.1l.3-2 .6-2.1h3.7l.8 2.8.2 1.4c0 .6-.3.9-1 1l-.5.1v.4h5.9V67l-.4-.1c-.7-.2-1-.8-1.4-2.1zm-3.7-4h-3.2l1.6-6.1Zm64.3 4c-.9 1.5-1.6 1.9-3 1.9h-.2c-1.1 0-1.4-.3-1.4-2.7v-4.2h.8c2 .2 2.1.7 2.3 1.9v.5h.6v-5.5h-.6v.4c-.2 1.4-.3 1.8-2.3 1.9h-.8v-6.2h1.3c1.4 0 2.2.5 3.1 2l.4.5h.4l-.5-3.3h-8.7v.4l.4.1c1 .2 1.1.6 1.1 3v8.3c0 2.5-.2 2.8-1.1 3l-.4.2v.4h9.1l.5-3.4h-.5zM172 59l.6-.2v-.5H165v.5l1 .2c1.2.3 1.5.7 1.5 3.6V64c0 2-.8 2.8-2.6 2.8-3.1 0-5-4-5-11 0-6.2 1.9-9.7 5-9.7 2 0 3.2 1.7 4.5 4.3l.6 1.2h.7l-.6-5v-.1a9.4 9.4 0 0 0-5-1.4c-4.3 0-9 3.9-9 11.2 0 7 3.3 11.4 8.7 11.4a16 16 0 0 0 6.7-1.5h.1v-.5c-1-.5-1.1-.7-1.1-2.7v-.4c-.1-2.5 0-3.3 1.4-3.5zm61.2-7.5c-.6.4-1 .5-5.1.5-4 0-4.3 0-4.8-.5h-.5l-.4 4.2h.5l.5-1c.6-1.5 1.3-2 3-2h.4v11c0 2.7-.1 2.8-1.2 3l-.6.2v.4h6.1V67l-.7-.2c-1-.2-1.1-.3-1.1-3v-11h.6c1.9 0 2.4.6 2.7 2l.2 1h.5l.5-4.2zm-26.7 13.2c-1 1.5-1.6 1.9-3 1.9h-.2c-1.1 0-1.5-.3-1.5-2.7v-4.2h.9c2 .2 2.1.7 2.2 1.9v.5h.6v-5.5h-.5v.4c-.2 1.4-.4 1.8-2.3 1.9h-.9v-6.2h1.3c1.5 0 2.3.5 3.2 2l.3.5h.5l-.5-3.3h-8.9v.4l.5.1c.9.2 1 .6 1 3v8.3c0 2.5-.1 2.8-1 3l-.5.2v.4h9.1l.5-3.4h-.4ZM220 51.5c-.5.4-1 .5-5 .5s-4.3 0-4.8-.5h-.6l-.4 4.3h.5l.5-1c.7-1.6 1.4-2 3-2h.5v11c0 2.6-.2 2.7-1.2 3l-.7.1v.4h6.1V67l-.6-.2c-1-.2-1.2-.3-1.2-3v-11h.6c2 0 2.4.6 2.7 2l.2 1h.5l.5-4.2zm-81 13.1-3.7-13v-.1h-.6l-1 1-3.5 11.7c-.5 1.6-1 2.3-1.7 2.5l-.4.1v.4h4.2v-.4h-.4c-.6-.2-1-.5-1-1.2l.4-2 .6-2.1h3.7l.8 2.9.2 1.4c0 .6-.3.8-1 1h-.5v.5h5.7v-.4l-.4-.2c-.6-.2-1-.7-1.4-2zm-3.7-4h-3.2l1.7-6zM73 67.5a5 5 0 0 0 4.1-2.2 10 10 0 0 0 1.7-5.8c0-4.9-2.3-8-5.8-8s-5.8 3.2-5.8 8c0 4.9 2.3 8 5.8 8zm-.4-15.3c2.5 0 3.3 4.2 3.3 8.1 0 4.4-.8 6.6-2.7 6.6-2.4 0-3.3-4.2-3.3-8.1 0-4.5.9-6.6 2.7-6.6zm28.8 15v-.4l-.6-.2c-1-.2-1.2-.3-1.2-3v-11h.6c2 0 2.4.6 2.6 2.1l.2 1h.5l.6-4.3h-.6c-.6.4-1 .5-5.1.5-3.9 0-4.2 0-4.8-.5h-.5l-.4 4.3h.5l.5-1c.7-1.6 1.3-2 3-2h.5v11c0 2.6-.2 2.7-1.2 3l-.7.1v.4h5.1zm49.6-3.7-.6.9c-.9 1.6-1.6 2.1-2.8 2.1-1.2 0-1.5-.3-1.5-2.7v-8.4c0-2.5.1-2.7 1.1-3l.7-.2v-.4H142v.4l.4.2c.9.2 1.1.5 1.1 3v8.3c0 2.5-.2 2.7-1.1 3l-.4.1v.4h8.8l.7-3.8zm-31.8 3.7h7.9l.6-3.3h-.5l-.5.7c-1 1.4-1.7 1.9-3 1.9h-.2c-1.1 0-1.5-.3-1.5-2.7v-4.2h.9c2 .2 2.1.7 2.2 1.8v.6h.7v-5.5h-.6v.3c-.2 1.5-.4 1.9-2.3 2h-.9v-6.1l1.2-.1h.1c1.5 0 2.3.5 3.2 2l.4.6h.4l-.5-3.3h-8.7v.3l.4.2c.9.2 1.1.5 1.1 3v8.3c0 2.5-.2 2.7-1.1 3l-.5.1v.4zm-38-13.4-.1 9.6c0 2.6-.3 3-1.4 3.3h-.2v.5h4.2v-.5h-.2c-1.3-.3-1.5-.8-1.5-3.3V55l7.4 12.3v.1l.6-.1V55.5c0-2.4.4-3 1.4-3.2h.2v-.5h-4.2v.4l.2.1c1.2.2 1.5.8 1.5 3.2v7L83 51.8h-3.7v.4l.3.1c.7.3 1 .6 1.7 1.5zM48 67.2h3v-.6h-.5c-1.8-.4-2-1-1.9-4.7l.3-11.3 5.5 16.7h.7l5.2-16.7.5 11.7c0 3.6-.1 3.8-1.7 4.2l-.6.2v.5h7.9v-.6h-.2c-1.7-.3-2-1-2-4.3L63.9 51c0-3.9.3-4.6 1.4-4.9l1-.2v-.6H61l-5 16.4-5.1-16.3h-5.4v.5l.9.3c1 .4 1.7 1.2 1.5 4.7l-.5 11c-.2 3.7-.7 4.3-2.2 4.7H45v.7h1.1l1.9-.1zm61.7-3.5v-3.2h.4l2.3 4.8c.7 1.6 1.5 2 3 2h1.5v-.5h-.1c-.8-.1-1-.5-2-2.2l-2.3-4.8a4.3 4.3 0 0 0 2.7-4c0-2.4-1.7-3.9-4.4-3.9h-5.3v.5h.4c1 .3 1.2.6 1.2 3.1v8.3c0 2.5-.3 2.7-1.2 3l-.4.1v.4h5.7V67l-.5-.1c-.8-.4-1-.5-1-3.1zm1-11.2c1.4 0 2 1 2 3.5s-.8 3.6-2.4 3.6h-.6v-7l1-.1z"/>
</svg>