<svg xmlns="http://www.w3.org/2000/svg" viewBox="7 6 527 57">
  <path fill="#777477" fill-rule="evenodd" d="M359 7h4c1-1 0-1-2-1s-3 0-2 1m29 0h8l-4-1-4 1M40 9v9l1 7V9h4l5-1h-5l-5 1M7 10v10l1 8v-9l1-9 2 2c1 2 1 2 1 0-1-3-4-4-5-2m14 9c0 9 0 9 1 2 0-4 0-7 1-6l1-1-1-1-1-1c0-1 1-2 4-2 6 0 6-1 0-1h-5v10M53 9l7 10-3-5-4-5m379 1h5c1-1 0-1-2-1-3 0-4 0-3 1m38 0v6c1 3 1 3 1-1v-5h7l7-1h-7l-8 1m-346 3h6c1-1 0-1-3-1s-4 0-3 1m132 0h5c1-1 0-1-2-1-3 0-4 0-3 1m228 10c0 6 1 8 1 5V17c0-3-1-1-1 6M77 15c0 2-2 3-2 2l-1 1c1 1 2 1 4-2l2-3-3 2m105 14v15a238 238 0 0 0 0-15m12-1c0 9 1 12 1 8a213 213 0 0 0-1-8m13-14-1 2h3v1h2v-1l-2-2h-2m22 3c0 5 0 5-4 5l-3 1-1 17v18h-11l6 1h6V23h8V13l-1 4m299-1c4 4 4 5 3 2l-3-4c-2-1-2-1 0 2m-416 1c-3 3-8 9-8 11l3-4 7-7 3-3-5 3m304 0c-3 3-4 4-1 6v3h-1l-7-3 2 1c3 1 3 3 0 2-2 0-4 2-2 3l1 5v1c0-3 0-3 4-3 7 0 8-1 5-6-2-5-2-6 0-4l2 6 3 9v2c0 3 5 13 9 16s8 3 11-1l2-4c-1-1 0-4 1-5l2-7c0-6 1-8 5-7l6-1h2c1 1 1 1 0 0l3-7 2-5-12 6 5-2c4-2 6-2 5 0-1 1-9 3-10 2v-3c0-1 1-2 3-2 3 0 3 0 2-1h-2l-4-2c-2-2-2-2-1 0 2 1 2 2 0 3-3 2-5 1-7-1s-4-2-9-2c-8 0-12 1-14 5-1 2-2 2-3 1l-3-2 2-3 2-3-3 3m-176 3-2 4 3-3 3-4-4 3m78 8v11l1-11V17l-1 11m108-10c-3 1-4 2-3 3v4c1 2 1 2 2 1v-3l3-1 4-1h6c6 0 7 0 5-3h-7l-8 2-3 1 1-2c4-2 4-3 0-1m13 1 2 1c2 0 2 0 1-1h-3M28 20l-3 1c0 2 5 6 5 4l1 2c1 1 1 1 1-1s-1-3-3-3c-4 0-4-2 0-2l2-1v-1l-3 1m422 0c-1 1-3 2-8 2h-3l2 2c2 2 2 2 4 0v1c-1 2-1 2-4 1-3-3-4-2-4 0-1 2-1 2-1 0 0-3 0-3-4-3s-4 0-3 2a457 457 0 0 1 5 12l1-4 1-4v5c0 6-1 7-4 5-1-1-2-1-3 1-2 2-2 5 0 8h7l-1 1c-2 1 1 4 3 4s2-1 4-10c1-1 0-2-1-3h-2c1 1 0 2-1 3-3 0-3-1-1-3s2-2 0-3c-1-1-1-1 2-5s4-5 5-4h2v-1l2 1h1l-1-2-1-2c-1-2-1-2 1 0 2 1 2 1 3-2s1-4-1-2m-260 1h3l-3-1c-2 0-2 0 0 1m211 0 2 4 3 2-2-3c-2-2-2-2 1-3 5-1 5-1 0-1l-4 1m-199 1 4 1h4l-4-1h-4m-83 1v3c-1 2 0 2 2 1s2-2 0-2c-1 0-2-1-1-2v-1l-1 1M14 24c2 0 3 1 3 2 1 1 1 1 1-1s0-2-3-2-3 0-1 1m50 2c3 4 3 5 5 3l-1-1-4-2-2-3 2 3m186-1-1 4-2 3 3-2c2-4 3-7 1-7l-1 2m170 0 2 3v2c2 2 2-2 0-4l-2-1m113 3c0 2 0 3 1 2v-4c-1-1-1 0-1 2m-393-2 1 1 3 3h1c0-2-5-5-5-4m152 0 2 2v1l-1 1-1 2v1c2 0 3-1 3-5 1-2 0-3-1-3l-2 1m134 1c-1 1 0 2 3 6l3 3-2-4-2-5c-1-2-1-2-2 0m27 0c-3 1-4 3-2 3v-1h6l-2-1c-1-1 0-1 1-1l4-1c0-1-3-1-7 1m-45 2h3c3 0 3 0 2 1s-1 1 1 1c4 0 5-2 2-2h-8M52 41c0 11 0 12-2 11v1l2 3c0 2-1 2-6 2l-6 1h13V29l-1 12m21-9c0 2 2 3 2 1v-2c-1-1-2 0-2 1m370 6c0 7 0 8 2 5l1-5v-6c1-2 1-2-1-2s-2 1-2 8m-78 4v10l1-21-1 11m58-10c-1 0-2 1-1 3l1 5c0 1 0 2 2 2s2 0 1-1c-2-1-2-2-1-5s1-3 1-1l1 4c1 1 1 1 2-1v-4c-2-2-4-3-6-2m17 1c-2 2-2 2 0 5l2 2v-9l-2 2m-302 3c0 2 0 3 1 2v-4c-1-1-1 0-1 2m12 1c0 2 0 3 1 2v-5c-1-1-1 0-1 3m84-1c0 2 0 3 1 2v-4c-1-1-1 0-1 2m48 1c0 2 0 3 1 2v-4c-1-1-1 0-1 2m23 1c4 7 6 8 2 2l-4-6 2 4m-159-1v2l-1 1h-1c0 2 2 1 3-1l1-2h-2m309 0c-1 2-1 2 1 2l2-2h-3m-57 6c0 4 1 5 1 3v-6c0-2-1-1-1 3M60 41l3 4-1-3c-4-5-5-5-2-1m55-2 2 4 1 1-2-4-1-1m236 11c0 6 1 9 1 5a122 122 0 0 0-1-5M162 40l2 2c2 1 2 0 0-2h-2m161 2 1 2 2-3-2-1-1 2m106 0v1l2 1 2-1c0-1-3-2-4-1M70 45l-4 3c-1-1-1-1 0 0 1 2 1 1 4-2l2-4-2 3m165-2c0 2 4 8 5 8l-1-1-2-5-2-2m-24 1c2 0 2 0 1 2v1l1-1h1l1-1-4-2v1m39 2 3 1c1 0 1-1-1-1l-2-2v2m247-1c1 2 4 3 4 1l-1-1h-3m-217 1h-1l-1 1-1 4-2 3 6-9-1 1m-88 4c-1 3-1 3 1 2l1-6-2 4M81 53l1 6h6c5 0 6 0 6-2h-1l-6 1h-5v-6l-1-5v6m44-5h4c1-1 0-1-2-1s-3 0-2 1m49 0 3 1 2-1h-5m-3 1v2l1 2c2 0 1-4-1-5v1m42 0v3c1 1 1 1 1-1 0-3 0-4-1-2m218 3c0 3 2 4 6 4 2 0 3-1 4-3 2-3 2-3 0-1-2 3-4 3-6 0-3-2-4-3-4 0m-289 3c-4 2-4 3-1 1l5-5-4 4m174-1 3 3-2-3-3-3 2 3m63-2v1l-1 2h1c1-1 1-1 3 1l1 1c0-2-2-3-3-4 0-2-1-2-1-1m33-1 3 4 4 3-3-4-4-3m40 4-2 4 3-3 3-4-4 3m-284 3 4 2v-1l-3-1h-1m82 1 4 1h2l-2-1-4-1v1m14 0c-2 1-2 1 0 1l3-1h-3m30 0h6c1-1 0-1-3-1-4 0-5 1-3 1m27 0h4c1-1 0-1-2-1-3 0-3 0-2 1m112 4h4c1-1 0-1-2-1s-3 0-2 1"/>
  <path fill="#1e1b1d" fill-rule="evenodd" d="m353 7-1 27v27h13V31l2 2 11 15 8 13h12l1-27V7h-14v14c0 14 0 14-2 12-1-1-18-24-18-26h-12M41 20l-1 25v13h6l6-1-2-1v-1c2-1 2-1 0-2v-1c2 1 2 0 2-11l1-12 6 9 7 10 2-2 4-4 6-8 3-4 1 5c0 3 0 4 2 4s3 1 1 3v1l-1 1-1-2c-1-1-1 2-1 7v9h5c5 0 6 0 7-2V10l-4-1h-6c-2 1-9 10-9 12l-1 1-3 4-4 4-7-11-7-10H41v11M8 19l1 8 2-1h1c0 2 5 1 5 0l-2-2c-2 0-3-1-3-2a1056 1056 0 0 0-2-12c-2 0-2 2-2 9m14-7 1 1 1 1-1 1c-1-1-1 1-1 6v7h5l4-1-1-2c-1 1-5-2-5-3s1-2 3-2c3-1 3-2-1-3-3 0-2-3 1-4 2 0 3-1 3-2l-4-1c-4 0-5 1-5 2m401 0c-4 2-10 8-8 8l3 2c1 1 2 1 3-1 2-4 6-5 14-5 5 0 7 0 9 2s5 3 7 1 2-2-1-4c-5-4-8-5-16-5l-11 2m48 3-1 26 1 20h5l7-1V38l1-15V10h-13v5m25-4v48c0 2 2 2 6 2h6v-6l1-7 6 6 6 7h7c8 0 8 1 0-10l-6-7 3-3c9-5 11-15 5-23-5-6-9-8-23-8l-11 1m-381 5c-19 12-14 40 9 43 7 2 13 0 19-6 5-5 5-5 3-6-1-1-1-1 1-1l2-1v-1c2-2 1-13-1-17-4-9-11-14-21-14-6 0-7 0-12 3m44 14c0 21 1 23 9 27 6 4 11 4 17 1 4-2 7-6 8-11 1-3 1-3-2-3l-2-1h5V13h-11v15c0 13 0 16-2 18-2 3-6 4-9 1-2-2-2-3-2-18V13h-11v17m44-16-1 5c0 2 1 3 4 3h4v10c0 11 0 11 3 11l2 2-1 1h-1l-1 1v-3c-2 0-2 1-2 7l1 7h10V40l1-17 3-1c4 0 4 0 4-5v-4h-10c-10 0-12 1-8 3v1h-2v-1h-3l1-2c1-1 0-1-1-1l-3 1m46 0c-12 6-18 20-11 33 8 17 33 17 41 0 6-12 1-27-12-33h-18m42 9 1 9 1-1 1-2v-1c-3-1-2-3 0-3 1 0 2 1 1 3 0 3-2 7-3 7l-1 12v11h6l5-1a323 323 0 0 1 1-22l9 12c7 11 7 11 12 11l5 1V37l1-22-6-1h-5v25l-9-12-9-13h-10v9m135-5c-3 1-4 2-3 3v4c1 2 1 2 2 1v-3l3-1 4-1h6c6 0 7 0 5-3h-7l-8 2-3 1 1-2c4-2 4-3 0-1m13 1 2 1c2 0 2 0 1-1h-3m17 0c-2 0-3 1-3 2-1 4 0 4 5 3 4-1 7-4 5-5h-7m-7 2-6 1h-4l2 2c2 2 2 2 4 0v1c-1 2-1 2-4 1-3-3-4-2-4 0-1 2-1 2-1 0 0-3 0-3-4-3s-4 0-3 2a457 457 0 0 1 5 12l1-4 1-4v5c0 6-1 7-4 5-1-1-2-1-3 1-2 2-2 5 0 8h7l-1 1c-2 1 1 4 3 4 3 0 4-5 4-15v-7l-2 2c-2 2-2 2-1 4l1 2-1 1c1 1 0 2-1 3-3 0-3-1-1-3s2-2 0-3c-1-1-1-1 2-5s4-5 5-4h2v-1l2 1h1l-1-2-1-2h1c2 1 2 1 3-2s1-3-2-1m8 1-3 2 5-2 4-3-6 3m-267-1h3l-3-1c-2 0-2 0 0 1m219 0h-4c-3 1-3 1-1 3 1 2 2 3 4 3 3-1 4-2 1-3l-2-1 7 3h1c2-2-3-7-6-5m99 7v7h4c6 0 11-5 8-10-1-2-7-5-10-5-2 0-2 1-2 8m-93-6 2 3c2 2 2 2 2 0l-2-3h-2m-296 1v2l-2 4c-4 7-2 14 4 18 8 4 18-2 18-11 0-8-6-13-14-12-4 1-5 1-5-1h-1m131 2-1 4c-3 3-3 8-1 13 3 7 13 8 19 2 3-2 3-4 3-8s0-5-2-8c-4-3-9-5-13-3-2 1-3 1-3-1l-1-1-1 2m170 0 2 3v2c2 2 2-2 0-4l-2-1M85 26c-2 1-1 2 1 1l1-1h-2m55 0 1 1 3 3h1c0-2-5-5-5-4m286 1c-1 1 0 2 3 6l3 3-2-4-2-5c-1-2-1-2-2 0m28-1c-4 2-7 7-7 12l-2 7c-1 1-2 4-1 5l-2 4c-3 4-7 4-11 1s-9-13-9-16v-2c-1 0-3-5-2-7 0-2 0-2-1-1-1 2-2 3-7 3h-4v6c1 9 6 17 15 22 5 2 18 2 23 0 4-2 10-8 12-13 2-3 3-11 3-15-1-3-1-3-3-2l-5 1c-2 0-3 0-2-1v-1h6l-2-1c-1-1 0-1 1-1l4-1h-6m-46 3h3c3 0 3 0 2 1s-1 1 1 1c4 0 5-2 2-2h-8M73 32c0 2 2 3 2 1v-2c-1-1-2 0-2 1m12-1v1l1 5 1-3-1-4-1 1m358 7c0 7 0 8 2 5l1-5v-6c1-2 1-2-1-2s-2 1-2 8m-20-6c-1 0-2 1-1 3l1 5c0 1 0 2 2 2v-6c1-3 1-3 1-1l1 4c1 1 1 1 2-1v-4c-2-2-4-3-6-2m-278 6v3l3-4c0-2-2-1-3 1m132-1v4l1-1 1-2 1-1h-3m178 1-1 3 4-4c0-2-2-1-3 1m-347 2 2 2c2 1 2 0 0-2h-2m54 0 2 2c2 1 2 0 0-2h-2m77 0 2 2c2 1 2 0 0-2h-2m152 0-1 2h2l2 1v1-3c0-2-1-2-3-1m-68 2 1 2 2-3-2-1-1 2m-51 0c-1 1-1 1 1 1l2-1h-3m157 0v1l2 1 2-1c0-1-3-2-4-1m68 3c1 2 4 3 4 1l-1-1h-3m-138 1-1 1-2 1 1 1 3-4-1 1m-188 4 1 3c1 0 1-4-1-5v2m42-1v3h3l-1-1-1-1c0-2-1-2-1-1m52 1 1 2 1 2v1l1-1c0-2-3-6-3-4m166 2c0 3 2 4 6 4 2 0 3-1 4-3 2-3 2-3 0-1-2 3-4 3-6 0-3-2-4-3-4 0"/>
</svg>