<svg xmlns="http://www.w3.org/2000/svg" viewBox="75 318 930 445">
  <path fill="#1331ad" fill-rule="evenodd" d="M194 320c-25 9-37 36-25 61 4 7 13 16 21 20 5 2 7 3 18 3s12-1 18-4c9-4 17-12 21-21s5-21 2-31c-4-13-14-23-27-28-8-3-20-3-28 0m100-1c-12 4-22 13-27 24-3 6-3 7-3 18s0 12 3 19c5 9 12 16 21 21 5 2 6 3 18 3s13-1 18-3c9-5 16-12 21-21 3-7 4-8 4-19s-1-12-4-18c-4-9-12-17-21-21-6-3-8-3-16-4l-14 1m169 1a43 43 0 1 0 45 72c22-21 17-56-11-70-7-3-8-3-17-4-9 0-11 0-17 2M75 361v41h24v-62h7c14 0 20 3 22 12l1 27v23h23v-27c-1-30-1-34-9-42-9-10-20-13-51-13H75v41m276-40 16 41 15 40h20l15-40 16-41-12-1-11 1-9 25-9 24a852 852 0 0 1-17-49c-1-1-24-2-24 0m324 0c-68 4-112 30-132 82-4 10-9 29-10 43l-2 12h-33v87h33v215h86V545h59v-87h-59v-5c3-22 12-38 26-44 10-5 16-6 36-7h18v-81l-4-1-18 1m-476 20c-7 3-12 9-14 17-1 9 5 20 14 24 5 2 14 2 19-1 15-8 16-29 2-39-5-3-15-4-21-1m98 0c-9 4-13 11-13 21 0 19 25 29 38 14 4-4 6-8 6-15 0-13-9-22-22-22l-9 2m173-1c-5 2-9 6-12 11-7 16 3 32 20 32 15 1 26-13 22-27-1-6-7-13-12-15s-14-3-18-1m362 116a157 157 0 0 0-132 124 154 154 0 1 0 187-121c-17-4-38-5-55-3m-632 3a42 42 0 0 0-21 73c21 20 55 14 67-13 3-6 4-7 4-18 0-10-1-12-3-17l-7-11c-9-11-25-16-40-14m93 0-1 43v42h23c25 1 29 1 40 7 11 5 20 19 24 35l2 91v83h85v-83l-1-95c-7-46-25-79-56-99-19-12-44-20-73-23-13-1-42-2-43-1m550 76a76 76 0 0 0-66 71 75 75 0 0 0 54 75c7 2 11 2 21 2 11 0 13 0 22-3 25-8 44-29 50-54 2-8 2-27 0-35a75 75 0 0 0-81-56M165 673v87h85V617l-4-7c-4-9-11-16-20-20l-6-3-28-1h-27v87"/>
</svg>