<svg xmlns="http://www.w3.org/2000/svg" viewBox="-.2 1.1 366.2 54.9">
  <path fill="#231f20" fill-rule="evenodd" d="m88.3 6-1.1 3-1.9-.1c-1 0-3-.5-4.3-1l-2.5-.7 2.3-.7c3-1 2.8-2.5-.3-2.5h-2.6l-.6 1.6-.6 1.7 1 1.6a5 5 0 0 0 3.2 2l2.1.2V16h4v-3.9l1.9-.6 1.9-.6L92 8l1.2-2.9-.7-1c-1.2-2-3-1.1-4.2 1.9m8.2.5-4 3.4 3.5 3 3.5 3h2.3l2.2.1V3h-1.8c-1 0-3.5 1.6-5.7 3.5m12.7-2.8-3.3.4-.5 1.4-.6 1.3L107 9l2 2 1-.5 1-.6V16h4V7h7V3l-4.8.2c-2.6 0-6.2.3-8 .5m23 1.5-2.6 6.2c-2 4.8-2 4.6.4 4.6h2.1l1.3-3 1.3-3.2L136 13l1.2 3.1h4.8l-2.8-6.3-2.8-6.2-1.6-.3-1.7-.3-.9 2.3M145 6.7l-4 3.7 3.3 2.8 3.3 2.7h6l-3.3-2.5a12 12 0 0 1-3.2-3.4v-.8l2 .5 2 .5 1.5-1.2c1.9-1.6 1.9-2.5 0-4.4-2.3-2.3-3-2-7.6 2.1m34.9-.8-3.5 3-6.9.3-6.9.3v6l3.3.3 3.2.3v-3l-1.8-.4c-1-.3.4-.5 3-.6l4.8-.1V9.8l3.5 3.1 3.6 3.1h4.9V9.6l3.3 3.2 3.3 3.2h4.6l-2.3-2.5-2.3-2.5h3.3V2.9l-1.8.3-1.7.3-.3 2.3-.3 2.2H187l-.3-2.2-.3-2.3-1.7-.3-1.6-.3-3.4 3m-24.6.3.3 2.3 3.3.3 3.2.3V8c0-1.8-2.7-4-5-4h-2.1l.3 2.3m43.5-1.6c-.4.3-.7 1.4-.7 2.4V9l2 1c2.6 1.5 4 1.4 4-.4V8h-1.5c-.8 0-1.5-.5-1.5-1s.7-1 1.5-1 1.5-.5 1.5-1V4h-2.3c-1.3 0-2.7.3-3 .7M.6 7.2C1 8.6 1.6 17.4 1.7 27l.4 17.4-1 1C.4 46 0 47 0 47.8V49h8v-1c0-.6-.7-2.1-1.5-3.4l-1.6-2.3.3-11.6.3-11.6L12 34.2a85.5 85.5 0 0 0 7.8 15.6l1.2.4V8.9l1.5-.5c.8-.4 1.5-1.2 1.5-2V5h-9v1.1c0 .7.7 1.7 1.5 2.3l1.6 1.1-.3 9-.3 8.8-4.8-11.1L7.8 5h-8l.8 2.3M267 6c0 .6.7 1.7 1.5 2.5L270 10v35l-1.5.5c-.8.4-1.5 1.2-1.5 2V49h9v-1.4c0-.7-.7-2-1.5-2.6l-1.5-1.2V18.5l6.8 15.4a89.8 89.8 0 0 0 8 15.9l1.2.4V9l1-.6c.6-.3 1-1.3 1-2V5h-8v1.4c0 .8.7 1.6 1.5 2l1.5.5v19.6l-5.1-11.8L275.8 5H267v1m-157 .5c0 .3.2.5.5.5s.5-.2.5-.5-.2-.5-.5-.5-.5.2-.5.5m40 0c0 .3.2.5.5.5s.5-.2.5-.5-.2-.5-.5-.5-.5.2-.5.5M56.8 8.7c-1 .3-2 1.3-2.3 2.4l-.6 1.9H50v3h11.6l1-1 1.2-1.2.6 1.1.7 1.1H76v-3h-1.5c-.8 0-2-.9-2.5-2l-1-2h-3c-1.6 0-3.2.5-3.5 1l-.7 1.1-1.1-.9a7.3 7.3 0 0 0-5.9-1.5m124.6.4-.6 1 1 1.2 1.2 1.1v-2.2c0-2.4-.5-2.8-1.6-1.1M99 10c0 .7.3 1 .7.7.3-.4.3-1 0-1.4-.4-.3-.7 0-.7.7m-41 2.5c0 .3.2.5.5.5s.5-.2.5-.5-.2-.5-.5-.5-.5.2-.5.5m9.3.2c.4.3 1 .3 1.4 0 .3-.4 0-.7-.7-.7s-1 .3-.7.7m69.7 6c0 .5-2 .7-4.5.5l-4.5-.4-1.6 1.3c-.9.7-2 2.5-2.6 3.8l-1 2.6.7 3.2.6 3.3 5.4 4 5.5 4v1.5c0 .7-.7 2-1.6 3l-1.6 1.6-2.2-1.4-2.1-1.4-1-3.1-1-3.2H123v10.7l6.4.2 6.4.1 2.1-2.6 2.1-2.7v-7.9l-2.9-2.6-6-5.4-3.2-2.7L129 23l1.1-2.1 1.7.3 1.7.3 2 3.8c2.7 5 3.5 4.7 3.5-1.8V18h-1c-.6 0-1 .3-1 .8m218.3 0c-1.3.2-3 1.3-3.8 2.5l-1.5 2.1v8.2l2.8 2.6c1.5 1.4 4 3.3 5.4 4.3l2.8 1.7v2.3c0 1.2-.7 2.8-1.5 3.5l-1.5 1.2-2.4-1.5-2.4-1.6-.7-3c-.4-1.7-1-3.1-1.6-3.1h-.9v10.7l5.7.2 5.6.2 2.4-2.2 2.3-2.2v-9.3l-2.8-2.5c-1.5-1.4-4-3.3-5.4-4.2L355 27v-5.1l1.7-.6 1.6-.6 2.4 2.7c1.2 1.5 2.3 3.4 2.3 4.2V29h3v-9.9l-1.2-.7-1.2-.8-.3 1.1-.4 1.1-2.7-.7c-1.5-.4-3.7-.5-5-.3M24 20c0 .6.7 1.3 1.5 1.6l1.5.6v20.3l1.3 2.5a11 11 0 0 0 4.1 3.9l3 1.4 3.5-1 3.6-.8 1.7-3.5 1.8-3.5V22h1c.5 0 1-.7 1-1.5V19h-8v1.4c0 .8.7 1.6 1.5 2l1.5.5v18.7l-1.6 2.2L40 46h-2c-1 0-2.2-.5-2.9-1.2L34 43.6V22h3v-3H24v1m26 0c0 .7.7 1.8 1.5 2.6l1.5 1.5v21l-1.5.5c-.8.4-1.5 1.2-1.5 2V49h9v-3h-3v-8c0-9.8-.7-10 7 2a65 65 0 0 0 7.3 10h.7V22.9l1.5-.5c.8-.4 1.5-1.2 1.5-2V19h-8v1c0 .7.7 1.8 1.5 2.6l1.5 1.5v5.6c0 3.1-.2 5.4-.4 5.2-.3-.2-2.7-3.9-5.5-8.2L58 19h-8v1m32 12a78.4 78.4 0 0 1-6 15.6V49h8v-1c0-.5-.7-1.3-1.5-1.7l-1.4-.8.6-2.3.5-2.2H89l.6 2.1.7 2.2-1.6.9c-.9.5-1.6 1.3-1.6 1.8v1h13v-.9c0-.5-.7-1.4-1.5-2-.8-.7-3.3-7-5.7-14.2L88.6 19h-2.4l-4.1 13M99 24v5h.8c.5 0 1.5-1.4 2.3-3.2.8-1.7 2-3.4 2.7-3.6l1.2-.4V46h-3v3h13v-3h-3V21.8l1.3.4c.6.2 1.9 1.8 2.7 3.6 2.1 4.5 3 4 3-1.8v-5H99v5m44-3.6c0 .8.7 1.6 1.5 2l1.5.5V45l-1.5.6c-.8.4-1.5 1.2-1.5 2V49h6.5c7 0 7.7-.5 4.5-3.3l-2-1.7V24l2-1.7c3.2-2.8 2.4-3.3-4.5-3.3H143v1.4m24.7-.7-4.1 12.8-3.7 12-1.5 1.1c-.8.6-1.4 1.6-1.4 2.3V49h8v-1.5c0-.8-.5-1.5-1-1.5h-1.1l.3-2.3.3-2.2 3.8-.3 3.7-.3v1c0 .5.3 1.6.6 2.5l.6 1.6H169v3h12v-1.4c0-.8-.4-1.6-1-1.8-.5-.1-3-6.1-5.3-13.2-4-11.8-5.7-15.1-7-12.9m20 1.8c-3.5 3.2-4.8 6.8-4.8 13.2v5.1l1.5 3.1c1 1.7 2.7 3.8 4 4.7 1.4.9 2.8 2.4 3.1 3.5 1.6 4.9 15.5 7 15.5 2.3v-1.3l-1.4.5c-1.9.7-5.6-1.3-5.6-3 0-.8.7-1.6 1.5-2 .8-.3 2.4-2 3.5-3.8l2-3.3v-5.7c0-6.8-1.1-10-4.6-13.3l-2.7-2.5h-9.4l-2.7 2.5m104.4-1V22h3v24h-3v3h20.9l.7-4.5.6-4.6-.7-.7-.7-.7-1.2 2c-.6 1-1.9 2.7-2.9 3.7L307 46h-5V35.1l1.4.5c.8.3 1.8 1.9 2.1 3.5.4 1.6 1 2.9 1.6 2.9h.9V26h-.9c-.5 0-1.4 1.4-2 3-.5 1.6-1.5 3-2 3H302V22h2.4c3 0 5.6 2.4 5.6 5v2h3V19h-21v1.5m23-.8c0 .3.6 1.4 1.4 2.2.7.9 2.8 7 4.6 13.7 4.8 17.8 4.5 17.7 8.7 5l3-9 2.3 8.8c3.5 13 3.8 12.8 8.5-5.9 1.6-6 3.4-11.7 4.2-12.6 2-2.4 1.6-2.9-2.7-2.9h-4v1.4c0 .8.5 1.6 1.2 1.8l1.2.4-1.4 6.5-1.4 6.4-1.9-6.5-1.9-6.4 1.1-.4c.6-.2 1.1-1 1.1-1.8V19h-11v1.5c0 .8.4 1.5 1 1.5.5 0 1.2 1 1.5 2.3l.5 2.2-1.3 4.4c-1.6 5-2 4.8-4-3l-1.5-5.8 1.4-.5c.8-.3 1.4-1 1.4-1.6v-1h-6c-3.3 0-6 .3-6 .7m-121.7 2c-2 1.4-3.3 6.2-3.3 12.8V41l1.1 2.5c2.3 4.9 6.2 4.3 8-1l1.1-3.6-.4-6.8-.4-6.9-1.8-2c-2-2.3-2.5-2.4-4.3-1.3m-109 12.7L83.2 38h4.7l-1.1-3.3-1.3-3.4c0-.2-.6 1.3-1.2 3.2m81.7-1c0 .7-.3 2-.6 3l-.6 1.5h2c2.4 0 2.5-.3 1.6-3.8-.7-2.4-2.4-3-2.4-.8"/>
  <path fill="#199ba9" fill-rule="evenodd" d="m232 2.1-6.6 1.4-2.1.5-2.9 4.2a40.5 40.5 0 0 1-5.6 6.6l-2.6 2.2-.8 6.8c-.5 3.7-.7 8.5-.5 10.7l.3 4 2.2 2.5a29 29 0 0 1 3.5 5.2l1.3 2.6 6.8 3.6 6.7 3.5h12.5l3.6-2.5 4.8-3.3 1.2-1 2.8 3c3.1 3.3 4.6 3.6 6.4 1.4l1.3-1.6-3.3-3.4-3.4-3.5h3.1l2.2-6.3a91 91 0 0 0 2.8-9.1l.6-3-2.1-4a34 34 0 0 1-2.6-6.7c-.3-1.4-1.6-4-2.8-5.9l-2.3-3.3-6-1.8c-3.3-1-6.8-2.3-7.7-2.9-2-1.2-4.6-1.1-10.8.1m0 4.8a22.5 22.5 0 0 0-16.6 19.5l-.6 4.4 1.6 4.9 1.6 5 3.8 3.5c2 2 5.2 4.4 7.1 5.3l3.4 1.7 6.8-.4 6.8-.4 4.3-3 4.3-3 2.8-5.3 2.7-5.5V23.5l-1.9-4a30 30 0 0 0-5.2-7.2L249.5 9 245 7.5c-4.6-1.6-9-1.8-13.1-.6m-1.3 8.9c-2.6.2-4.7.7-4.7 1.2l-.6 2.7-.6 1.8 1.2-1.8L227 18h7.8l.6-1c1-1.5.7-1.5-4.8-1.2m9.9 1.8c-2.2 2.1-3 5.8-2.3 10.2l.6 3.7 2.2 1.8c1.2 1 2.6 1.7 3.2 1.7.6 0 .3-.6-.7-1.3l-1.9-1.4-.4-5-.5-5.1 1.5-3.1c1.7-3.3.8-4-1.7-1.5m7.1-.4c.6.7 1.3 3 1.7 5l.7 3.8-1.1 4-1 4h-1.2c-.6 0-.9.3-.6.6.4.3 1.5 0 2.6-.5l2-1 1.2-3.6 1.2-3.5-.7-3.3c-.8-3.3-3.1-6.7-4.8-6.7h-1l1 1.3M224 23.5l-.1 2.1 3.3-.4 3.4-.4 1.6 1.7c2.4 2.3 2.1 4.2-.8 6l-2.5 1.7-3-1-3-1.1.5.9c.3.5 2 1.2 4 1.6l3.3.6 2-1.1a9 9 0 0 0 3.2-3.2l1.1-2-.6-2c-.4-1-1.7-2.7-3-3.5l-2.5-1.6-3 1-2.9 1-.5-1.1-.4-1.2-.1 2m2.6 16.2c.3.7.9 1.3 1.3 1.3s1-.6 1.3-1.3l.5-1.3h-3.6l.5 1.3m4.3.8V43h3.5l-1.5-1-1.5-1h3l-1.4-.9-1.3-.9 1.3-.5 1.4-.5-1.8-.1-1.7-.1v2.5m5.7-1c-1 2.3-1 2.2 1.3 2.8 2.3.6 2.5-.2.7-2.7l-1.4-1.9-.6 1.7m4.4 1.4v2.7l.6-1.3.5-1.3 1.1 1 1.2 1 .1-2.5.2-2.4H241v2.8m5-1.9c0 .6.5 1.3 1.1 1.7l1.1.6-1.3 1-1.4.8h3.5v-1.5c0-.8-.6-1.5-1.3-1.5h-1.2l1.5-1 1.5-1h-1.8c-1 0-1.7.4-1.7 1m-3.7.7c.4.3 1 .3 1.4 0 .3-.4 0-.7-.7-.7s-1 .3-.7.7m-5.3.8c0 .3.2.5.5.5s.5-.2.5-.5-.2-.5-.5-.5-.5.2-.5.5"/>
  <path fill="#fff" fill-rule="evenodd" d="M232 7a22.5 22.5 0 0 0-16.6 19.4l-.6 4.4 1.6 4.9 1.6 5 3.8 3.5c2 2 5.2 4.4 7.1 5.3l3.4 1.7 6.8-.4 6.8-.4 4.3-3 4.3-3 2.8-5.3 2.7-5.5V23.5l-1.9-4a30 30 0 0 0-5.2-7.2L249.5 9 245 7.5c-4.6-1.6-9-1.8-13.1-.6m-1.3 8.9c-2.6.2-4.7.7-4.7 1.2l-.6 2.7-.6 1.8 1.2-1.8L227 18h7.8l.6-1c1-1.5.7-1.5-4.8-1.2m9.9 1.8c-2.2 2.1-3 5.8-2.3 10.2l.6 3.7 2.2 1.8c1.2 1 2.6 1.7 3.2 1.7.6 0 .3-.6-.7-1.3l-1.9-1.4-.4-5-.5-5.1 1.5-3.1c1.7-3.3.8-4-1.7-1.5m7.1-.4c.6.7 1.3 3 1.7 5l.7 3.8-1.1 4-1 4h-1.2c-.6 0-.9.3-.6.6.4.3 1.5 0 2.6-.5l2-1 1.2-3.6 1.2-3.5-.7-3.3c-.8-3.3-3.1-6.7-4.8-6.7h-1l1 1.3M224 23.5l-.1 2.1 3.3-.4 3.4-.4 1.6 1.7c2.4 2.3 2.1 4.2-.8 6l-2.5 1.7-3-1-3-1.1.5.9c.3.5 2 1.2 4 1.6l3.3.6 2-1.1a9 9 0 0 0 3.2-3.2l1.1-2-.6-2c-.4-1-1.7-2.7-3-3.5l-2.5-1.6-3 1-2.9 1-.5-1.1-.4-1.2-.1 2m2.6 16.2c.3.7.9 1.3 1.3 1.3s1-.6 1.3-1.3l.5-1.3h-3.6l.5 1.3m4.3.8V43h3.5l-1.5-1-1.5-1h3l-1.4-.9-1.3-.9 1.3-.5 1.4-.5-1.8-.1-1.7-.1v2.5m5.7-1c-1 2.3-1 2.2 1.3 2.8 2.3.6 2.5-.2.7-2.7l-1.4-1.9-.6 1.7m4.4 1.4v2.7l.6-1.3.5-1.3 1.1 1 1.2 1 .1-2.5.2-2.4H241v2.8m5-1.9c0 .6.5 1.3 1.1 1.7l1.1.6-1.3 1-1.4.8h3.5v-1.5c0-.8-.6-1.5-1.3-1.5h-1.2l1.5-1 1.5-1h-1.8c-1 0-1.7.4-1.7 1m-3.7.7c.4.3 1 .3 1.4 0 .3-.4 0-.7-.7-.7s-1 .3-.7.7m-5.3.8c0 .3.2.5.5.5s.5-.2.5-.5-.2-.5-.5-.5-.5.2-.5.5"/>
</svg>