<svg xmlns="http://www.w3.org/2000/svg" xml:space="preserve" viewBox="27 278 600 96">
  <path d="M283 301c-2 0-3 2-3 4v43c0 1 1 3 3 3s3-1 3-3v-43c0-2-1-4-3-4m-11 21c-1-13-9-21-22-21h-12c-3 0-5 2-5 5v40c0 3 2 5 5 5h12c13 0 21-8 22-21v-8m-6 8c-1 10-6 15-16 15h-11v-38h11c10 0 16 6 16 16v7m-84 16-13-15c6-2 12-5 12-14 0-8-5-16-16-16h-14c-3 0-5 2-5 5v42c0 1 1 3 3 3s3-2 3-3v-16h8c2 0 3 0 4 2l13 16 2 1 2-1c2-1 2-3 1-4m-7-29c0 6-3 9-10 9h-13v-19h13c6 0 10 4 10 10m31-16c-6 0-12 2-15 4-1 0-2 1-2 3l1 2 2 1 2-1c4-2 8-2 12-2 8 0 12 3 12 11v3l-14-2c-11 0-18 6-18 15 0 10 6 16 18 16 9 0 16-3 19-5l1-3v-25c0-11-6-17-18-17m-1 44c-9 0-13-3-13-9s5-10 13-10l13 2v13c-3 3-9 4-13 4m131-24c-1-12-10-20-21-20s-20 8-21 20v10c1 12 10 20 21 20s20-8 21-20v-10m-21 24c-8 0-14-6-15-14v-10c1-8 7-14 15-14s14 6 14 14v10c0 8-6 14-14 14m26-16c0 2 1 3 3 3h12c2 0 3-1 3-3s-1-3-3-3h-12c-2 0-3 1-3 3m177-28c-6 0-11 2-14 4-1 0-2 1-2 3l1 2 2 1 2-1c4-2 8-2 11-2 9 0 12 3 12 11v3l-13-2c-11 0-19 6-19 15 0 10 7 16 18 16 10 0 17-3 19-5 2-1 2-2 2-3v-25c0-11-6-17-19-17m-1 44c-8 0-13-3-13-9 1-6 5-10 13-10l14 2v13c-3 3-9 4-14 4m91-44c-6 0-11 2-14 4-1 0-2 1-2 3l1 2 2 1 2-1c4-2 8-2 11-2 9 0 13 3 13 11v3l-14-2c-11 0-19 6-19 15 0 10 7 16 19 16 9 0 16-3 19-5l1-3v-25c0-11-6-17-19-17m0 44c-9 0-13-3-13-9s4-10 13-10l13 2v13c-3 3-9 4-13 4m-182-44c-6 0-12 2-14 4-2 0-2 1-2 3v2l3 1 1-1c5-2 8-2 12-2 9 0 12 3 12 11v3l-13-2c-12 0-19 6-19 15 0 10 7 16 18 16 9 0 17-3 19-5l1-3v-25c1-11-5-17-18-17m-1 44c-8 0-13-3-13-9s5-10 13-10l13 2v13c-3 3-8 4-13 4m-26-10-3 2c-2 5-6 8-12 8-8 0-13-6-14-14v-10c1-8 6-14 14-14 6 0 10 3 13 8l2 2c2 0 3-1 3-3v-1c-3-8-10-12-18-12-11 0-19 8-20 20v10c1 12 9 20 20 20 8 0 15-5 18-12v-1c0-2-1-3-3-3m74-33c-9 0-16 2-19 5l-1 3v38c0 2 1 3 3 3s3-1 3-3v-37c3-2 9-3 14-3 9 0 14 5 14 13v27c0 2 1 3 3 3s3-1 3-3v-27c0-13-7-19-20-19m111 20c0-13-9-21-22-21h-12c-3 0-5 2-5 5v40c0 3 2 5 5 5h12c13 0 22-8 22-21v-8m-6 8c0 10-6 15-16 15h-10v-38h10c10 0 16 6 16 16v7"/>
  <path fill="#d00" d="M75 343c9 0 17-8 17-17s-8-17-17-17-18 8-18 17 8 17 18 17zm-20 0c-10 0-17-8-17-17s8-17 17-17v34zm40 19v-16h16c0 9-7 16-16 16zm-40-72v16H39c0-8 7-16 16-16zm0 72v-16H39c0 9 7 16 16 16zm59-21v-30c6 3 9 9 9 15s-4 12-9 15zm-54-54h30c-4-5-9-9-15-9-7 0-12 4-15 9zm29 79H60c3 4 8 8 15 8 6 0 11-3 14-8zm3-20c0 10-8 17-17 17s-18-8-18-17h35zm3-3c9 0 17-8 17-17s-8-17-17-17v34zm-3-37c0-9-8-17-17-17s-18 8-18 17h35zm-57 35 1-30c-5 3-9 9-9 15s4 12 8 15zm76-35H95v-16c9 0 16 8 16 16z"/>
</svg>