<svg xmlns="http://www.w3.org/2000/svg" xml:space="preserve" viewBox="26.5 297.9 600.1 56.1">
  <path fill="#0079f1" d="M72.7 298H35.8a9 9 0 0 0-9.3 9.1c0 5.3 3.9 9.1 9.3 9.1H45v28.1c0 6.1 4.1 9.7 9.3 9.7s9.3-3.7 9.3-9.7v-28.1h9.2a9 9 0 0 0 9.3-9.1 9 9 0 0 0-9.4-9.1zm52.7 41.2-17.3-34.8c-2.3-4.3-5.2-6.4-9-6.4a9.2 9.2 0 0 0-9.3 9.3c0 1.8.3 3.5 1.5 5.5l17.3 34.8c2.3 4.5 5.2 6.4 8.8 6.4 5.3 0 9.3-4.1 9.3-9.3a10 10 0 0 0-1.3-5.5zm1.3-31.7c0 5.4 4.1 9.5 9.4 9.5 5.3 0 9.4-4.1 9.4-9.5s-4.1-9.5-9.4-9.5a9.3 9.3 0 0 0-9.4 9.5zm37.4 37c0-5.4-4.1-9.5-9.4-9.5-5.3 0-9.4 4.1-9.4 9.5s4.1 9.5 9.4 9.5a9.4 9.4 0 0 0 9.4-9.5zm1.3-31.8 17.3 34.8c2.3 4.5 5.2 6.4 8.8 6.4 5.3 0 9.3-4.1 9.3-9.3a10 10 0 0 0-1.5-5.5L182 304.3c-2.3-4.5-5.2-6.4-8.8-6.4a9.2 9.2 0 0 0-9.3 9.3c.1 1.9.4 3.5 1.5 5.5z"/>
  <path fill="#e72a31" d="M598.6 346.1c-2.2-.2-4-.7-5.7-1.3-3.2-1-5.7-2.6-7.3-4.8a18 18 0 0 1-3.3-8h14.2c.5 1.7 1.6 3 3.4 3.7 1.8.7 4 1 6.6 1a14 14 0 0 0 5.3-.7c1.1-.5 1.7-1.3 1.7-2.2a3 3 0 0 0-.2-1c-.2-.3-.5-.6-.8-.7a13 13 0 0 0-3.7-.9c-1.8-.2-4.5-.5-8-.7a27.3 27.3 0 0 1-12.8-3.2c-2.8-1.7-4.2-4.6-4.2-8.6 0-4.1 1.7-7.3 5.2-9.7a26 26 0 0 1 14.8-3.5c6.6 0 11.7 1 15.3 3.1 3.7 2.1 6.1 5.6 7.3 10.5h-13.6a4.4 4.4 0 0 0-2.9-3.3c-1.6-.6-3.7-.9-6.3-.9-2.5 0-4.2.2-5.2.8-.9.6-1.5 1.3-1.5 2.2 0 .5.1.9.5 1.1.2.3.8.6 1.5.8.8.2 1.9.5 3.4.6l5.9.5a43.5 43.5 0 0 1 10.3 1.6c2.7.8 4.8 2.1 6.1 3.7 1.4 1.6 2 3.8 2 6.5 0 1.4-.2 2.6-.6 3.9a9.5 9.5 0 0 1-1.7 3.3 13.7 13.7 0 0 1-6.7 4.7 54 54 0 0 1-19 1.5zm-18.7-.8H542v-38.6h37v10h-24.7v5.3h22.1v7.7h-22.1v5.3h25.5v10.4h.1zm-77.8 0v-38.6h13.4v26.5H537v12.1h-34.9zm-40.2 0v-38.6h13.4v26.5h21.5v12.1h-34.9zm-5.1 0H419v-38.6h37v10h-24.7v5.3h22.1v7.7h-22.1v5.3h25.5v10.3zm-71.9 0-16-38.6h13.8l9.6 24.7 10.3-24.7h13.7l-17 38.6h-14.4zm-46.2.5c-2-.3-3.7-.9-5.3-1.7a13.7 13.7 0 0 1-6.8-7 29.3 29.3 0 0 1-2.2-12.4v-18h13.4v17.9c0 3.7.7 6.2 1.9 7.7 1.4 1.5 3.3 2.2 5.8 2.2s4.4-.7 5.7-2.2c1.2-1.4 1.9-4 1.9-7.7v-17.9h13.4v18a28.3 28.3 0 0 1-2.4 12.6 15.5 15.5 0 0 1-7.1 7 26.4 26.4 0 0 1-11.4 2.2c-2.7-.1-4.9-.3-6.9-.7zm-35.1-12.9c1.8-1.4 2.6-3.5 2.6-6.7s-.9-5.5-2.6-7a10.8 10.8 0 0 0-7.1-2.2c-3.1 0-5.4.8-7.1 2.3-1.7 1.5-2.6 3.8-2.6 6.9 0 2.9.9 5.1 2.6 6.5 1.7 1.5 4.1 2.2 7.1 2.2 2.9.1 5.3-.6 7.1-2zm-13.8 12.9c-2-.3-4-.9-5.7-1.6a17.5 17.5 0 0 1-8-6.6c-1.9-3-2.8-6.7-2.8-11.4v-.1c0-2.2.2-4.1.8-5.9a17.7 17.7 0 0 1 10.4-12c3.5-1.6 7.5-2.4 12.1-2.4a30.6 30.6 0 0 1 11.9 2.4c3.4 1.6 6.1 4 8.2 7 1.9 3.1 2.9 6.7 2.9 11v.2a24 24 0 0 1-.7 6.2 17.3 17.3 0 0 1-10.2 11.6 35.1 35.1 0 0 1-18.9 1.6zm-52.6-23.5v23h-12.4v-38.6h12.5l18.5 22.2v-22.2h12.4v38.6h-12l-19-23z"/>
</svg>