<svg xmlns="http://www.w3.org/2000/svg" viewBox="1 0 2399 415">
  <path fill="#0c149b" fill-rule="evenodd" d="M860 123c-28 4-50 22-60 50-2 7-2 9-2 22s0 15 2 23a72 72 0 0 0 70 49c20 0 37-7 51-22a72 72 0 0 0 0-100 71 71 0 0 0-44-22l-9-1-8 1"/>
  <path fill="#33f4c4" fill-rule="evenodd" d="M1576 2a63 63 0 0 0-36 86c7 16 21 27 39 33 8 2 24 2 33 0a63 63 0 0 0 44-72c-5-23-21-40-44-48-7-2-29-1-36 1m-349 43c-35 4-62 17-88 42-29 30-43 64-43 105a145 145 0 0 0 82 133 150 150 0 0 0 159-17c9-7 19-18 22-24 11-22 3-50-17-61-6-3-7-3-16-3-13 0-21 2-43 15l-17 8c-24 8-45 4-60-12a52 52 0 0 1-17-39c0-15 5-27 16-39 21-20 49-21 80-3 27 15 42 18 57 11 20-10 28-39 17-61-6-12-27-30-48-40-19-9-31-13-52-15-15-2-17-2-32 0m1006 0a149 149 0 0 0-130 175 150 150 0 0 0 197 112l5-2v24c1 28 1 31 10 42a48 48 0 0 0 83-13c2-5 2-13 2-108 0-99 0-103-2-112-10-46-37-82-80-103a158 158 0 0 0-85-15M475 62a149 149 0 0 0-87 250c10 10 18 15 29 16 19 3 40-7 47-23 2-3 3-8 3-12 1-13-2-19-17-49-3-5-7-13-8-18a56 56 0 0 1 38-70l15-1c10 0 13 0 18 2 17 7 29 19 34 36 2 6 2 9 2 19-1 10-1 13-4 20l-8 17c-12 22-16 32-15 44 1 13 8 24 21 31 20 9 41 6 57-11a149 149 0 0 0 41-131A150 150 0 0 0 475 62m1412-1a149 149 0 0 0-130 117c-3 12-3 46-1 60 6 28 20 54 39 74 11 10 15 13 26 16 12 3 28-1 38-8 13-10 18-23 15-39-2-7-5-15-17-37-6-12-9-20-10-31 0-11 1-19 6-29a55 55 0 0 1 67-27c17 6 31 21 35 39 5 16 1 34-12 56-12 21-16 34-13 45 3 15 14 26 31 30 11 3 22 2 33-3a143 143 0 0 0 56-115c0-31-8-57-24-82-30-46-86-72-139-66M64 74c-9 3-14 6-22 14-18 18-30 40-38 66-2 9-2 12-3 33 0 27 1 34 6 51a149 149 0 0 0 207 87c34-17 63-50 75-85 6-20 6-24 6-48 0-21 0-23-2-33-6-22-13-38-25-55-8-10-20-22-25-26-24-13-56-4-66 20l-1 13c0 11 3 20 13 37 12 22 16 36 13 52-3 22-20 41-42 45-19 4-37-1-50-14-20-20-22-44-7-73l10-21c7-13 9-24 7-33-2-11-7-18-16-24-12-8-27-10-40-6m1405 51c-8 3-16 7-21 13-11 11-14 22-14 46a149 149 0 0 0 196 142c18-7 40-20 49-30 15-16 17-39 5-58a41 41 0 0 0-44-19c-8 2-9 3-27 12-11 6-21 8-32 8-21 0-38-12-49-33-5-12-7-18-8-33l-2-18c-3-12-9-22-19-26-8-5-26-6-34-4m772 13-17 5a55 55 0 0 0-11 91c32 27 81 9 89-31l2-11c0-6-3-17-7-25-6-12-19-23-33-28-5-1-20-2-23-1"/>
</svg>