<svg xmlns="http://www.w3.org/2000/svg" viewBox="9 24 542 195">
  <path fill="#181818" fill-rule="evenodd" d="m273 24-8 2a4559 4559 0 0 1-12 62v1h1l1 2-1 2-1 1v10a55084 55084 0 0 1-5 23v13l-2 10-1 1a176 176 0 0 1-5 35c1 0 1 4-1 14-3 16-3 16 1 16h25l2-9a578 578 0 0 1 4-34c0-2 7-3 7-1l1 1 1-1h2l5 1h-3l-1 2c0 4-1 6-3 6l-1 1 4-1c2-1 3-2 2-3v-1c1-1 2 0 2 1l1 3v6l-1 3c-1 0-2 0-1 2l2 1c1-1 1 0 1 1 0 2 0 3-2 2h-2c0 2 2 5 4 5l1 1 3 14 14 1c14 0 15-1 14-7a249 249 0 0 1-4-28l-1-1 1-2v-2c-2-1-2-7-1-9 1-1 1-1 0 0-2 0-2 0-2-2l1-3h1v-1c-3 0-3-2-2-4v-3l-2-3c0-3 3-5 4-3 0 1 1 2 2 1h6v-1h-4l-2-2-1-1c1 2 0 2-2 2s-3-1-3-2l1-1 1-1-2-1-2-6c-1-5-1-6 1-8 1-1 1-1-1-2s-2-2-2-4l1-4 1-2-1 1-1 1-3-16v-3l-1-7-1-5-1-7-2-10v-7l-2-8c-3-25-4-29-6-30-3-2-10-3-19-2M13 25l-3 1-1 83 1 81 3 6c7 16 25 24 44 21 17-3 28-12 32-27l2-24a2778 2778 0 0 1 0-27c-1-6 0-7 12-6 2 0 5 5 5 6v1c2-2 2 5 2 39 0 32 0 36 2 37l14 1 14-1 1-41v-39l-3-6c-3-6-9-11-13-11-3 0-2-1 2-3 5-3 10-9 11-15 2-4 2-10 2-25 0-17 0-20-2-25-5-14-14-22-29-26H62c-2 2-2 5-2 49a445 445 0 0 1-1 50v29c0 24 0 27-2 30-3 6-12 6-16 0l-1-14a33644 33644 0 0 0 0-125c0-20 1-19-14-20l-13 1m142 0c-1 2-2 4-2 83a54546 54546 0 0 1 1 107 352 352 0 0 0 40 2c9-1 11-1 18-5 8-3 11-7 17-15 4-8 5-13 5-40 0-22-1-24-3-28-3-5-7-9-12-10-3-2-3-2-2-3h4c-1-1 1-2 2-3 6-4 9-11 10-19l1-7v-1l-1-18c-1-14-1-16-3-21-5-11-13-18-26-21-9-3-45-3-49-1m174 1-1 15a1260 1260 0 0 1 0 29c0 14 0 13-2 13-1-1-1-1 0 0l-1 2c-1 1-1 1 1 1 2-1 2 0 2 2l-2 2-3 1c-2 2-2 0-1-2l1-2-2 2c-2 3 0 5 3 3h2l1 1 1 1-2 1c-2 0-2 0-1 1v5c-1 1-1 1 1 2l1 1 1 1v3l-1 2h-3c-1 1-1 1 1 2h3v23c0 21 0 22-2 23-2 0-2 0 0 1 2 0 2 1 2 5l-1 4v1l1 3c1 1 1 2-1 2l-2 2h1l2-1-1 4v1l1 3-1 3v1l1 14 1 15c2 2 25 1 27 0 2-2 2-4 2-24v-22h2c3 1 3-2 0-3-2 0-2-1-2-19l1-18 1-1-1-1-1-5c0-4 0-5 2-4v-2l-1-2 2 2v4l3 3a195 195 0 0 0 2 13l1 1a129 129 0 0 1 8 29c1 2 1 3-1 3-1 1-1 1 1 1l3 4-1 5c-2 0-1 2 1 2 1 0 2 0 2 2l1 4v3l1 4 4 11c3 9 5 11 11 11l7 1h2v-1l1 1 1 1 1-1 2-2c3-1 3-1 3-7l1-7 1-1 1-2c1-2 1-5-1-7l-2-4c0-2 0-2 1-1h1l-1-2v-2l2-3h-1c-2 2-2 2-2-4 0-5 0-6 2-6 1 1 1 1 0 0-2-2-2-4-2-34a322 322 0 0 1 1-41c-2 0-1-8 1-10v-2l-1 1-1 1 1-2V63h2v-1c-1-1-1-2 1-3l1-2h-1v1h-2c-2-1-3-3-1-5v-2l-1-5c0-3 0-4 2-4v-1l-2-8-1-8c-2-2-25-1-27 1-2 1-2 6-2 41 0 37 0 42-3 39l-2-1c-1 1-2 0-3-5l-1-7-1-1-1-2-1-2-1-2c0-5-1-7-2-8l1-3v-1c-2 0-2-1-2-6l-1-2-1-5-1-3c-1 1-3-5-3-9-1-6-4-16-6-19-2-5-4-6-16-6-9 0-10 0-11 2m102-1c-4 1-4 2-4 11a372 372 0 0 1-1 57 218 218 0 0 1 0 49l1 37 1 37 2 2h3l12-1 12-1 1-26c0-9 0-11 1-10 1 0 2 0 1-2 0-2 0-2-1-1-1 2-1 2-1-13a2419 2419 0 0 0 1-106v-2l-1-2c0-1 0-2 2-1v-3l1 1 3 1c1 1 2 0 1-2l-3-2-2-2-2-2v-2l1-1c1 0 2-2 1-3s-1-1 0 0l-1 2-1-6c0-7-1-9-4-9h-23m65 0c-2 1-3 3-4 10l-2 9v2l-1 7v2a54 54 0 0 1-3 21l-1 8c0 4-1 5-2 5l-3 1 2 1c2-1 2 2 1 10l-2 9c0 4-1 5-2 5l-2 2h1l2-1v3l-2 11-1 9a2242 2242 0 0 0-10 65c-1 12-1 13 8 13 22 0 20 0 20-2a296 296 0 0 0 5-39l1-4h14l3 21 4 23c2 1 25 2 28 0 1-1 1-7-6-49a1066 1066 0 0 1-11-72 2685 2685 0 0 1-11-69c-3-2-22-3-26-1M91 55v50h4c6 0 10-2 13-6 1-3 2-6 2-15 0-18 0-23-4-27-3-3-4-3-9-3l-6 1m94 0-1 49c2 2 9 1 13-2 5-3 6-6 6-23 0-16-2-22-6-24h-12m93 37-2 11a402 402 0 0 1-2 46h8c2 0 2-5 0-31l-1-17c0-12-2-17-3-9m229 1v9c1 1 1 1 0 0l-1 4v4l-1 3-1 12v25h9v-11a341 341 0 0 1-3-32v-6c0-4-1-6-2-7v-2l-1 1m-318 40-4 1-1 6c-1 4 0 6 1 8v2l-1 7c0 4 0 6 1 5l-1 3-1 5v12c0 4 1 6 4 6l2 1v1l1-1 4-1c3-1 8-5 8-7l1-3 1-15c0-11 0-12-2-11l-2 1 2-3c2-1 2-2 1-7-1-6-3-8-4-7l-1-1c1-2-4-3-9-2"/>
</svg>