<svg xmlns="http://www.w3.org/2000/svg" viewBox="0 0 456 124">
  <path fill="#ffeee7" fill-rule="evenodd" d="M103 7v1h113V6H103v1m156 0-1 1h129V7l-1-1H259v1M140 56v33h-1l-1 1h1l2-1V55l-1-32v33m219 7v26h-3l-2 1-1 1v1l1-1v-1h6V64a340 340 0 0 0-1-1m4 35h22v12l1 12V98l-22-1h-22l21 1m-163 4c-3 2-4 4-4 9v4l3 2 2 2h3c3 0 6-2 7-5l1-3v-3c-1-3-4-6-6-6h-1l1 1 1 5 1 3-1 3-1 4h-2l-3-1-1-1v-11l2-2c3-2 3-2-2-1m-68 8v9h5l-1-8v-8h2l1 1 2 2 1 3v4l-1 3-2 1-1 1h4l2-2 1-2v-8l-2-2-2-2h-9v8m18 0 1 7 1 1h8l1-2 1-7 1-7h-4l1 1 1 1v11l-2 1c-1 2-2 2-4 1l-1-1v-7l1-7h-5v8m24-4 1 3 1-1 1-1 2 5 3 5h1l1-5 3-5 1-1v6l-1 7h5v-17h-5l-2 5-2 5-3-5-1-5h-6l1 4m41-2 1 8v7h2l-1-6v-6h1l4 6 5 6 1-8 1-9h-4l1 1 1 1v8l-4-5-3-5h-5v2m17 0v3l1-2 3-2h1v16h5l-1-8v-8h1l2 2 2 1v-4h-14v2m25 7v8h4v-9h1l2 1c1 3 1 3-1 5l-1 2h2c2 0 5-2 5-4l-2-3-1-2 2-2v-2l-1-2-1-1h-9v9m16-1v9h4v-7l2 2 2 3 3 1 2 1v-1l-2-4-2-3 1-2c2-2 2-4 1-6l-1-1h-10v8m17-7h1v13l2 1 3 2c3 0 6-2 6-3v-1l-2 1c-1 2-2 2-4 1l-1-1-1-5v-6l1-1 1-2h-4c-2 0-3 0-2 1m18 2 1 3v6l-1 5h2v-6l1-6 4 6 5 6v-15l1-1 1-1h-4l1 3v5l-1 1-3-4-3-5h-5l1 3m20-2-2 1-1 4-1 3 1 2c1 3 5 6 7 6l4-1 3-1 1-3 1-3v-3l-1-3-2-1-4-2h-1l1 1 2 2v10l-1 3h-2l-3-1-1-1v-11l2-1 1-2h-1l-3 1"/>
  <path fill="#d82334" fill-rule="evenodd" d="M84 111v12h301V98H84v13m116-9c-3 2-4 4-4 9v4l3 2 2 2h3c3 0 6-2 7-5l1-3v-3c-1-3-4-6-6-6h-1l1 1 1 5 1 3-1 3-1 4h-2l-3-1-1-1v-11l2-2c3-2 3-2-2-1m-68 8v9h5l-1-8v-8h2l1 1 2 2 1 3v4l-1 3-2 1-1 1h4l2-2 1-2v-8l-2-2-2-2h-9v8m18 0 1 7 1 1h8l1-2 1-7 1-7h-4l1 1 1 1v11l-2 1c-1 2-2 2-4 1l-1-1v-7l1-7h-5v8m24-4 1 3 1-1 1-1 2 5 3 5h1l1-5 3-5 1-1v6l-1 7h5v-17h-5l-2 5-2 5-3-5-1-5h-6l1 4m41-2 1 8v7h2l-1-6v-6h1l4 6 5 6 1-8 1-9h-4l1 1 1 1v7l-4-4-3-4-3-1h-2v2m17 0v3l1-2 3-2h1v16h5l-1-8v-8h1l2 2 2 1v-4h-14v2m25 7v8h4v-9h1l2 1c1 3 1 3-1 5l-1 2h2c2 0 5-2 5-4l-2-3-1-2 2-2v-2l-1-2-1-1h-9v9m16-1v9h4v-6l4 4 3 1 2 1v-1l-2-4-2-3 1-2c2-2 2-4 1-6l-1-1h-10v8m17-7h1v13l2 1 3 2c3 0 6-2 6-3v-1l-2 1c-1 2-2 2-4 1l-1-1-1-5v-6l1-1 1-2h-4c-2 0-3 0-2 1m18 2 1 3v6l-1 5h2v-6l1-6 4 6 5 6v-15l1-1 1-1h-4l1 3v5l-1 1-3-4-3-5h-5l1 3m20-2-2 1-1 4-1 3 1 2c1 3 5 6 7 6l4-1 3-1 1-3 1-3v-3l-1-3-2-1-4-2h-1l1 1 2 2v10l-1 3h-2l-3-1-1-1v-11l2-1 1-2h-1l-3 1"/>
  <path fill="#222121" fill-rule="evenodd" d="M3 2v2h5l5 1 12 58 11 58h1l10 1h9l1-2 2-6L85 10c2-4 3-5 8-6l3-1 1-1-15-1H68v3h8l2 2 2 2-10 41-10 40L47 5l6-1h5V3l1-1-28-1L3 2m218 0 1 1v7l-1 7h23v-7l-1 2-3 3h-2v-2l1-3 1 2 1 1h1V5h-1l-1 2-1 1h-1V6l1-3c0-2 2-1 4 2l1 4V1h-6c-4 0-6 0-5 1h1v13h-2v-2c1-4 0-4-2-1l-2 3h-2V3h1l1-1V1h-8l1 1m25 0c-2 2-1 4 3 8s4 5 1 5h-2l-1-3-2-2v7l4-1c8 0 9-2 4-8l-4-5V2h1l3 3c1 4 2 3 2 0V1h-8l-1 1m165 2-4 1-4 4-5 7-2 5v5l1 9 1 5 15 21c8 11 15 24 17 28l3 6 1 7v7l-2 3-2 4-3 1-3 1h-4l-3-1-3-2c-4-4-9-16-12-31-3-13-3-13-5-14h-1v51h1l7-4 5-3 2 2 6 4 4 1h14l4-2 8-4 3-3 2-5 2-4v-8l-1-8-3-7c-1-4-9-16-17-28l-15-22-2-6-2-5v-8l2-3 3-2h10l4 4 4 4 3 9 4 17 2 8h3V2h-1l-6 3-6 3-4-3-4-2-6-1h-6l-5 2M207 21c-2 0-5 2-6 4l-3 2-1 4-1 4 1 4 1 4 8 12 11 18 2 5v7l-2 3-3 2h-4l-2-2-3-3-2-6-3-11-2-7h-1v31l4-2 3-2 4 2 3 2h9l3-2 3-1 3-4 2-3V72l-3-6-11-18-8-12-1-4-1-4 1-2 1-3h2l2-1 3 1c3 2 6 6 8 16l3 9h1V20l-4 2-4 2-2-1-2-2-3-1-6 1M87 22v1h4v67h-6l1 1 2 1h36V62h-2v5l-3 11-2 6-4 3-3 3h-5V57h4l2 3 2 3 1 6v5h2V38h-1l-1-1-1 6v6l-3 3-4 3h-1V23h8l2 2c3 4 6 12 7 18v5h2V21H87v1m49 0v1h5v67h-5v2h23v-2h-4V56h2l3 1 2 1v15l1 16c2 3 10 4 15 2 4-2 8-10 5-11l-1-1v3c-1 4-3 6-5 6h-1V64l-3-3-3-3-4-1-4-1 4-2c4-2 7-5 9-8l1-3v-9l-1-3c-2-4-7-8-11-9l-3-1h-25v1m124 0-6 32-5 31-2 3-3 2-1 1v1h13v-1l-3-2-2-1v-5l2-5 5-1 5 1 1 6 1 6h-4l1 1v1h21v-1l-2-1h-2l-1-6-6-34-4-29h-4l-4 1m34 0v1h5v63l-3 3-3 3h15l-3-2-4-2V32l8 30 7 30h11V24l3-1 3-1-4-1h-7l-3 1 2 1 3 1 1 2v44l-7-24-6-24-9-1h-9v1m52 15v15h2v-2c0-4 4-18 6-23l2-4h4v67h-6v2h25v-2h-5V23h1l3 2c3 3 6 15 7 21l1 5 1 1h1V21h-42v16m-191 1v16h2l4-1 1-1V24l-4-1h-3v15m101 19-3 16v2h10v-1l-4-31-3 14"/>
</svg>